STARTFONT 2.1
COMMENT
COMMENT Converted from OpenType font "manrope-regular.otf" by "otf2bdf 3.0".
COMMENT
FONT -FreeType-Manrope-Medium-R-Normal--89-640-100-100-P-396-ISO10646-1
SIZE 64 100 100
FONTBOUNDINGBOX 85 111 -3 -22
STARTPROPERTIES 19
FOUNDRY "FreeType"
FAMILY_NAME "Manrope"
WEIGHT_NAME "Medium"
SLANT "R"
SETWIDTH_NAME "Normal"
ADD_STYLE_NAME ""
PIXEL_SIZE 89
POINT_SIZE 640
RESOLUTION_X 100
RESOLUTION_Y 100
SPACING "P"
AVERAGE_WIDTH 396
CHARSET_REGISTRY "ISO10646"
CHARSET_ENCODING "1"
FONT_ASCENT 94
FONT_DESCENT 26
COPYRIGHT "Copyright 2019-2021 The Manrope Project Authors (https://github.com/sharanda/manrope)"
_OTF_FONTFILE "manrope-regular.otf"
_OTF_PSNAME "Manrope-Regular"
ENDPROPERTIES
CHARS 191
STARTCHAR 0020
ENCODING 32
SWIDTH 202 0
DWIDTH 18 0
BBX 0 0 0 0
BITMAP
ENDCHAR
STARTCHAR 0021
ENCODING 33
SWIDTH 315 0
DWIDTH 28 0
BBX 6 64 11 0
BITMAP
FC
FC
FC
FC
FC
FC
FC
FC
FC
FC
FC
FC
FC
FC
FC
FC
FC
FC
FC
FC
FC
FC
FC
FC
FC
FC
FC
FC
FC
FC
FC
FC
FC
FC
FC
FC
FC
FC
FC
FC
FC
FC
FC
FC
FC
FC
FC
FC
00
00
00
00
00
00
00
00
00
FC
FC
FC
FC
FC
FC
FC
ENDCHAR
STARTCHAR 0022
ENCODING 34
SWIDTH 393 0
DWIDTH 35 0
BBX 21 16 5 48
BITMAP
FE03F8
FE03F8
FE03F8
FE03F8
FE03F8
FE03F8
FE03F8
FE03F8
FE03F8
FE03F8
FE03F8
FE03F8
FE03F8
FE03F8
FE03F8
FE03F8
ENDCHAR
STARTCHAR 0023
ENCODING 35
SWIDTH 922 0
DWIDTH 82 0
BBX 71 64 5 0
BITMAP
00000003F8000FC000
00000003F8001FC000
00000003F0001FC000
00000007F0001F8000
00000007F0001F8000
00000007E0003F8000
00000007E0003F8000
0000000FE0003F0000
0000000FE0007F0000
0000000FC0007F0000
0000000FC0007E0000
0000001FC0007E0000
0000001FC000FE0000
0000001F8000FE0000
0000001F8000FC0000
0000003F8000FC0000
0000003F0001FC0000
0000003F0001FC0000
01FFFFFFFFFFFFFFFE
01FFFFFFFFFFFFFFFE
01FFFFFFFFFFFFFFFE
01FFFFFFFFFFFFFFFE
03FFFFFFFFFFFFFFFC
03FFFFFFFFFFFFFFFC
000000FC0007F00000
000000FC0007E00000
000001FC0007E00000
000001FC000FE00000
000001F8000FE00000
000001F8000FC00000
000003F8000FC00000
000003F8001FC00000
000003F0001FC00000
000007F0001F800000
000007F0001F800000
000007E0003F800000
000007E0003F000000
00000FE0003F000000
00000FE0007F000000
3FFFFFFFFFFFFFFFC0
3FFFFFFFFFFFFFFFC0
7FFFFFFFFFFFFFFF80
7FFFFFFFFFFFFFFF80
7FFFFFFFFFFFFFFF80
FFFFFFFFFFFFFFFF00
00003F8000FC000000
00003F8001FC000000
00003F0001FC000000
00007F0001F8000000
00007F0003F8000000
00007E0003F8000000
00007E0003F0000000
0000FE0003F0000000
0000FE0007F0000000
0000FC0007F0000000
0000FC0007E0000000
0001FC0007E0000000
0001FC000FE0000000
0001F8000FE0000000
0003F8000FC0000000
0003F8000FC0000000
0003F0001FC0000000
0003F0001F80000000
0007F0001F80000000
ENDCHAR
STARTCHAR 0024
ENCODING 36
SWIDTH 585 0
DWIDTH 52 0
BBX 46 82 3 -9
BITMAP
00000FE00000
00000FE00000
00000FE00000
00000FE00000
00000FE00000
00000FE00000
00000FE00000
00000FE00000
00007FF80000
0007FFFF8000
001FFFFFE000
003FFFFFF800
00FFFFFFFC00
01FFFFFFFE00
03FFE01FFF00
07FF0003FF80
07FC0000FFC0
0FF800003FE0
0FF000001FE0
1FE000000FF0
1FC0000007F0
1FC0000007F8
1F80000003F8
3F80000003F8
3F80000001FC
3F80000001FC
3F80000001FC
3F8000000180
1FC000000000
1FC000000000
1FE000000000
0FF000000000
0FF800000000
07FE00000000
07FF80000000
03FFF0000000
01FFFF000000
007FFFE00000
003FFFFE0000
000FFFFFC000
0001FFFFF000
00003FFFFC00
000003FFFF00
0000007FFF80
0000000FFFC0
00000001FFE0
000000003FF0
000000000FF8
0000000007F8
0000000003F8
0000000001FC
0000000001FC
0000000000FC
0000000000FC
0000000000FC
7E00000000FC
FE00000000FC
FE00000000FC
7F00000000FC
7F00000001FC
7F80000001FC
3FC0000003F8
3FE0000003F8
1FF0000007F8
1FF800000FF0
0FFC00003FE0
07FF8000FFE0
03FFF00FFFC0
01FFFFFFFF80
00FFFFFFFF00
003FFFFFFC00
000FFFFFF000
0003FFFFC000
00007FFC0000
00000FE00000
00000FE00000
00000FE00000
00000FE00000
00000FE00000
00000FE00000
00000FE00000
00000FE00000
ENDCHAR
STARTCHAR 0025
ENCODING 37
SWIDTH 900 0
DWIDTH 80 0
BBX 70 66 5 -1
BITMAP
0007F0000000000000
003FFE000000000200
00FFFF800000000700
03FFFFC00000000F80
07FFFFE00000001FC0
0FFFFFF00000003FE0
0FF80FF80000007FC0
1FE003FC000000FF80
3FC001FC000001FF00
3F8000FE000003FE00
7F00007E000007FC00
7E00007F00000FF800
7E00003F00001FF000
7E00003F00003FE000
FC00003F00007FC000
FC00003F0000FF8000
FC00003F0001FF0000
FC00003F0003FE0000
FE00003F0007FC0000
7E00003F000FF80000
7E00007F001FF00000
7F00007E003FE00000
3F8000FE007FC00000
3FC001FC00FF800000
1FE007FC01FF000000
1FF81FF803FE000000
0FFFFFF007FC000000
07FFFFE00FF8000000
03FFFFC01FF0000000
00FFFF803FE0000000
003FFE007FC0000000
0007F000FF80000000
00000001FF00000000
00000003FE00000000
00000007FC003F8000
0000000FF801FFF000
0000001FF007FFFC00
0000003FE00FFFFF00
0000007FC01FFFFF80
000000FF803FFFFFC0
000001FF007FE07FE0
000003FE00FF801FE0
000007FC00FE000FF0
00000FF801FC0007F0
00001FF001F80003F8
00003FE003F80001F8
00007FC003F00001F8
0000FF8003F00000FC
0001FF0003F00000FC
0003FE0003F00000FC
0007FC0003F00000FC
000FF80003F00000FC
001FF00003F00000FC
003FE00003F00001F8
007FC00003F80001F8
00FF800001F80003F8
01FF000001FC0007F0
03FE000000FE000FF0
07FC000000FF001FE0
0FF80000007FC07FE0
1FF00000003FFFFFC0
0FE00000001FFFFF80
07C00000000FFFFF00
038000000007FFFC00
010000000001FFF800
0000000000003FC000
ENDCHAR
STARTCHAR 0026
ENCODING 38
SWIDTH 652 0
DWIDTH 58 0
BBX 53 66 4 -1
BITMAP
00003FF0000000
0003FFFE000000
000FFFFF800000
001FFFFFE00000
007FFFFFF00000
00FFFFFFF80000
00FFF83FFC0000
01FF8007FE0000
03FE0001FF0000
03FC0000FF0000
07F800007F8000
07F000003C0000
07F00000200000
0FE00000000000
0FE00000000000
0FE00000000000
0FE00000000000
0FE00000000000
0FE00000000000
0FE00000000000
0FE00000000000
07F00000000000
07F00000000000
07F80000000000
03FC0000000000
01FE0000000000
01FF0000000000
00FF8000000000
007FC000000000
003FE000000000
001FF000000000
007FF800000000
01FFFC00000000
03FFFE00000000
07FFFF8001FC00
0FFEFFC001FC00
1FF87FE001FC00
1FE01FF001FC00
3FC00FF801FC00
3F8007FC01FC00
7F8003FE01FC00
7F0001FF01FC00
7F0000FF81FC00
7F00007FC1FC00
7E00003FE1FC00
FE00001FF9FC00
FE000007FDF800
FE000003FFF800
FE000001FFF800
7E000000FFF800
7F0000007FF800
7F0000003FF800
7F0000001FF800
3F8000000FF800
3FC000000FFC00
3FE000001FFE00
1FF000003FFF00
0FF80000FFFFC0
0FFE0001FFBFE0
07FFF03FFF9FF0
03FFFFFFFF0FF8
01FFFFFFFC07F0
007FFFFFF803E0
003FFFFFE001C0
0007FFFF800080
00007FF8000000
ENDCHAR
STARTCHAR 0027
ENCODING 39
SWIDTH 213 0
DWIDTH 19 0
BBX 7 16 5 48
BITMAP
FE
FE
FE
FE
FE
FE
FE
FE
FE
FE
FE
FE
FE
FE
FE
FE
ENDCHAR
STARTCHAR 0028
ENCODING 40
SWIDTH 427 0
DWIDTH 38 0
BBX 22 90 12 -15
BITMAP
0000E0
0001F0
0001F8
0003FC
0007F8
000FF0
000FE0
001FE0
001FC0
003F80
007F80
007F00
00FE00
00FE00
01FC00
01FC00
03F800
03F800
03F000
07F000
07E000
0FE000
0FE000
0FC000
1FC000
1F8000
1F8000
1F8000
3F8000
3F0000
3F0000
3F0000
7F0000
7E0000
7E0000
7E0000
7E0000
7E0000
7E0000
7E0000
FE0000
FC0000
FC0000
FC0000
FC0000
FC0000
FC0000
FC0000
FE0000
7E0000
7E0000
7E0000
7E0000
7E0000
7E0000
7E0000
7F0000
3F0000
3F0000
3F0000
3F0000
3F8000
1F8000
1F8000
1FC000
0FC000
0FC000
0FE000
07E000
07F000
07F000
03F000
03F800
01FC00
01FC00
00FE00
00FE00
007F00
007F00
003F80
003FC0
001FC0
000FE0
000FF0
0007F8
0003F8
0003FC
0001F0
0000E0
000040
ENDCHAR
STARTCHAR 0029
ENCODING 41
SWIDTH 427 0
DWIDTH 38 0
BBX 21 90 4 -15
BITMAP
1C0000
3C0000
7E0000
FF0000
7F8000
3F8000
3FC000
1FE000
0FE000
07F000
07F000
03F800
03FC00
01FC00
00FC00
00FE00
007E00
007F00
003F00
003F80
003F80
001F80
001FC0
000FC0
000FC0
000FE0
0007E0
0007E0
0007E0
0007F0
0003F0
0003F0
0003F0
0003F8
0001F8
0001F8
0001F8
0001F8
0001F8
0001F8
0001F8
0001F8
0001F8
0001F8
0001F8
0001F8
0001F8
0001F8
0001F8
0001F8
0001F8
0001F8
0001F8
0001F8
0001F8
0003F8
0003F0
0003F0
0003F0
0003F0
0007F0
0007E0
0007E0
000FE0
000FE0
000FC0
001FC0
001FC0
001F80
003F80
003F00
007F00
007F00
00FE00
00FE00
01FC00
01FC00
03F800
07F800
07F000
0FF000
1FE000
1FC000
3FC000
7F8000
FF0000
FF0000
7E0000
1C0000
080000
ENDCHAR
STARTCHAR 002A
ENCODING 42
SWIDTH 438 0
DWIDTH 39 0
BBX 30 29 3 35
BITMAP
000FC000
000FC000
000FC000
000FC000
000FC000
000FC000
000FC000
000FC000
700FC038
7E0FC1F8
7F8FC7FC
FFFFFFFC
FFFFFFFC
FFFFFFFC
1FFFFFE0
03FFFF00
003FF000
003FF000
007FF800
007FFC00
00FFFC00
01FCFE00
03F87F00
07F87F80
07F03F80
0FE01FC0
07E00FC0
03C00F00
01800600
ENDCHAR
STARTCHAR 002B
ENCODING 43
SWIDTH 573 0
DWIDTH 51 0
BBX 41 41 5 12
BITMAP
00003E000000
00003E000000
00003E000000
00003E000000
00003E000000
00003E000000
00003E000000
00003E000000
00003E000000
00003E000000
00003E000000
00003E000000
00003E000000
00003E000000
00003E000000
00003E000000
00003E000000
00003E000000
FFFFFFFFFF80
FFFFFFFFFF80
FFFFFFFFFF80
FFFFFFFFFF80
FFFFFFFFFF80
FFFFFFFFFF80
00003E000000
00003E000000
00003E000000
00003E000000
00003E000000
00003E000000
00003E000000
00003E000000
00003E000000
00003E000000
00003E000000
00003E000000
00003E000000
00003E000000
00003E000000
00003E000000
00003E000000
ENDCHAR
STARTCHAR 002C
ENCODING 44
SWIDTH 270 0
DWIDTH 24 0
BBX 8 18 5 -10
BITMAP
FF
FF
FF
FF
FF
FF
FF
FF
FF
0F
0F
0F
0F
0F
1E
7E
7C
F8
ENDCHAR
STARTCHAR 002D
ENCODING 45
SWIDTH 416 0
DWIDTH 37 0
BBX 27 6 5 25
BITMAP
FFFFFFE0
FFFFFFE0
FFFFFFE0
FFFFFFE0
FFFFFFE0
FFFFFFE0
ENDCHAR
STARTCHAR 002E
ENCODING 46
SWIDTH 258 0
DWIDTH 23 0
BBX 8 8 7 0
BITMAP
FF
FF
FF
FF
FF
FF
FF
FF
ENDCHAR
STARTCHAR 002F
ENCODING 47
SWIDTH 382 0
DWIDTH 34 0
BBX 24 64 5 0
BITMAP
00007F
00007F
00007E
0000FE
0000FE
0000FE
0000FC
0001FC
0001FC
0001FC
0001F8
0003F8
0003F8
0003F8
0003F0
0007F0
0007F0
0007E0
000FE0
000FE0
000FE0
000FC0
001FC0
001FC0
001FC0
001F80
003F80
003F80
003F80
003F00
007F00
007F00
007E00
00FE00
00FE00
00FE00
00FC00
01FC00
01FC00
01FC00
01F800
03F800
03F800
03F800
03F000
07F000
07F000
07E000
0FE000
0FE000
0FE000
0FC000
1FC000
1FC000
1FC000
1F8000
3F8000
3F8000
3F8000
3F0000
7F0000
7F0000
7E0000
FE0000
ENDCHAR
STARTCHAR 0030
ENCODING 48
SWIDTH 607 0
DWIDTH 54 0
BBX 42 66 6 -1
BITMAP
0000FFC00000
0007FFF80000
001FFFFE0000
007FFFFF8000
00FFFFFFC000
01FFFFFFE000
03FFE1FFF000
07FE001FF800
0FF80007FC00
1FF00003FE00
1FE00001FE00
3FC00000FF00
3F8000007F00
7F8000003F80
7F0000003F80
7F0000003F80
7E0000001FC0
FE0000001FC0
FE0000001FC0
FE0000001FC0
FE0000001FC0
FE0000001FC0
FE0000001FC0
FE0000001FC0
FE0000001FC0
FE0000001FC0
FE0000001FC0
FE0000001FC0
FE0000001FC0
FE0000001FC0
FE0000001FC0
FE0000001FC0
FE0000001FC0
FE0000001FC0
FE0000001FC0
FE0000001FC0
FE0000001FC0
FE0000001FC0
FE0000001FC0
FE0000001FC0
FE0000001FC0
FE0000001FC0
FE0000001FC0
FE0000001FC0
FE0000001FC0
FE0000001FC0
FE0000001FC0
FE0000001FC0
FE0000001FC0
7E0000001FC0
7F0000003F80
7F0000003F80
7F8000003F80
3F8000007F00
3FC00000FF00
1FE00001FE00
1FF00003FE00
0FF80007FC00
07FE001FF800
03FFE1FFF800
01FFFFFFF000
00FFFFFFC000
007FFFFF8000
001FFFFE0000
0007FFF80000
0000FFC00000
ENDCHAR
STARTCHAR 0031
ENCODING 49
SWIDTH 393 0
DWIDTH 35 0
BBX 19 64 5 0
BITMAP
000FE0
003FE0
00FFE0
03FFE0
07FFE0
1FFFE0
7FFFE0
FFFFE0
FFCFE0
FF8FE0
FE0FE0
F80FE0
F00FE0
C00FE0
000FE0
000FE0
000FE0
000FE0
000FE0
000FE0
000FE0
000FE0
000FE0
000FE0
000FE0
000FE0
000FE0
000FE0
000FE0
000FE0
000FE0
000FE0
000FE0
000FE0
000FE0
000FE0
000FE0
000FE0
000FE0
000FE0
000FE0
000FE0
000FE0
000FE0
000FE0
000FE0
000FE0
000FE0
000FE0
000FE0
000FE0
000FE0
000FE0
000FE0
000FE0
000FE0
000FE0
000FE0
000FE0
000FE0
000FE0
000FE0
000FE0
000FE0
ENDCHAR
STARTCHAR 0032
ENCODING 50
SWIDTH 573 0
DWIDTH 51 0
BBX 42 65 4 0
BITMAP
00007FC00000
0003FFFC0000
001FFFFF0000
003FFFFF8000
00FFFFFFE000
01FFFFFFF000
03FFF0FFF800
07FF001FFC00
0FFC0007FC00
0FF80001FE00
1FE00000FF00
1FE000007F00
3FC000007F80
3F8000003F80
3F8000003F80
7F0000001FC0
7F0000001FC0
7F0000001FC0
7F0000001FC0
7F0000000FC0
000000000FC0
000000000FC0
000000001FC0
000000001FC0
000000001FC0
000000001FC0
000000003F80
000000003F80
000000007F80
000000007F00
00000000FF00
00000001FE00
00000003FE00
00000007FC00
0000000FF800
0000001FF000
0000003FE000
000000FFC000
000001FF8000
000003FF0000
000007FE0000
00000FFC0000
00001FF80000
00003FE00000
00007FC00000
0000FF800000
0003FF000000
0007FE000000
000FFC000000
001FF8000000
003FF0000000
007FC0000000
00FF80000000
01FF00000000
03FE00000000
0FFC00000000
1FF800000000
3FF000000000
7FE000000000
FFFFFFFFFFC0
FFFFFFFFFFC0
FFFFFFFFFFC0
FFFFFFFFFFC0
FFFFFFFFFFC0
FFFFFFFFFFC0
ENDCHAR
STARTCHAR 0033
ENCODING 51
SWIDTH 551 0
DWIDTH 49 0
BBX 40 65 4 -1
BITMAP
3FFFFFFFFE
3FFFFFFFFE
3FFFFFFFFE
3FFFFFFFFE
3FFFFFFFFE
3FFFFFFFFE
00000001FE
00000007FC
0000000FF8
0000001FF0
0000003FE0
0000007FC0
000000FF80
000001FF00
000003FE00
000007F800
00000FF000
00001FE000
00007FC000
0000FF8000
0001FF0000
0003FE0000
0007FC0000
000FF80000
001FFF0000
003FFFF000
007FFFFC00
007FFFFF00
003FFFFF80
001FFFFFC0
001F01FFE0
0008003FF0
0000000FF8
00000007F8
00000003FC
00000003FC
00000001FC
00000000FE
00000000FE
00000000FE
000000007F
000000007F
000000007F
000000007F
000000007F
000000007F
000000007F
000000007F
000000007E
04000000FE
3C000000FE
FE000000FE
FE000001FC
FF000003FC
7F800003F8
3FC0000FF8
3FE0001FF0
1FF8007FF0
0FFF87FFE0
07FFFFFFC0
03FFFFFF80
01FFFFFE00
007FFFFC00
001FFFF000
0001FF0000
ENDCHAR
STARTCHAR 0034
ENCODING 52
SWIDTH 585 0
DWIDTH 52 0
BBX 44 64 4 0
BITMAP
000003F80000
000007F00000
000007F00000
00000FF00000
00000FE00000
00001FE00000
00001FC00000
00003FC00000
00003F800000
00007F800000
00007F000000
0000FF000000
0000FE000000
0001FE000000
0001FC000000
0003FC000000
0003F8000000
0003F8000000
0007F0000000
0007F0000000
000FE0000000
000FE0000000
001FC0000000
001FC0000000
003FC0000000
003F80000000
007F8003F800
007F0003F800
00FF0003F800
00FE0003F800
01FE0003F800
01FC0003F800
03FC0003F800
03F80003F800
07F80003F800
07F00003F800
0FF00003F800
0FE00003F800
0FE00003F800
1FC00003F800
1FC00003F800
3F800003F800
3F800003F800
7F000003F800
7F000003F800
FFFFFFFFFFF0
FFFFFFFFFFF0
FFFFFFFFFFF0
FFFFFFFFFFF0
FFFFFFFFFFF0
FFFFFFFFFFF0
00000003F800
00000003F800
00000003F800
00000003F800
00000003F800
00000003F800
00000003F800
00000003F800
00000003F800
00000003F800
00000003F800
00000003F800
00000003F800
ENDCHAR
STARTCHAR 0035
ENCODING 53
SWIDTH 573 0
DWIDTH 51 0
BBX 42 65 5 -1
BITMAP
1FFFFFFFF800
1FFFFFFFF800
1FFFFFFFF800
1FFFFFFFF800
1FFFFFFFF800
1FFFFFFFF800
1F8000000000
1F8000000000
1F8000000000
1F8000000000
1F8000000000
1F8000000000
3F8000000000
3F8000000000
3F8000000000
3F8000000000
3F8000000000
3F0000000000
3F0000000000
3F0000000000
3F0000000000
3F0000000000
3F0000000000
3F00FFC00000
3F07FFF80000
3F1FFFFE0000
3F7FFFFF8000
3FFFFFFFC000
3FFFFFFFE000
7FFF00FFF000
7FF8001FF800
7FF00007FC00
7FC00003FE00
3F800001FE00
0F000000FF00
020000007F00
000000007F80
000000003F80
000000003F80
000000001F80
000000001FC0
000000001FC0
000000001FC0
000000001FC0
000000001FC0
000000001FC0
000000001FC0
000000001FC0
3C0000001F80
FC0000003F80
FE0000003F80
FE0000007F00
7F000000FF00
7F800000FE00
3FC00001FE00
3FE00007FC00
1FF0000FF800
0FFE003FF800
07FFE7FFF000
03FFFFFFE000
01FFFFFF8000
00FFFFFF0000
003FFFFC0000
000FFFF00000
0000FF800000
ENDCHAR
STARTCHAR 0036
ENCODING 54
SWIDTH 618 0
DWIDTH 55 0
BBX 44 66 6 -1
BITMAP
00007FE00000
0003FFFC0000
000FFFFF8000
003FFFFFC000
007FFFFFF000
01FFFFFFF800
03FFF0FFFC00
07FF000FFE00
07FC0003FF00
0FF80000FF00
1FF000007C00
1FE000003800
3FC000001000
3F8000000000
7F8000000000
7F0000000000
7F0000000000
7E0000000000
FE0000000000
FE0000000000
FE0000000000
FE0000000000
FE0000000000
FE0000000000
FE003FE00000
FE01FFFE0000
FE07FFFF8000
FE1FFFFFC000
FE3FFFFFF000
FE7FFFFFF800
FEFFC03FFC00
FFFE0007FE00
FFFC0003FF00
FFF00000FF00
FFE000007F80
FFC000003F80
FF8000003FC0
FF8000001FC0
FF0000001FE0
FF0000000FE0
FE0000000FE0
FE00000007E0
FE00000007E0
FE00000007E0
FE00000007F0
FE00000007F0
FE00000007E0
FE00000007E0
7E0000000FE0
7F0000000FE0
7F0000000FE0
7F0000001FC0
3F8000001FC0
3FC000003FC0
1FC000007F80
1FE00000FF80
0FF80001FF00
07FC0003FE00
07FF000FFC00
03FFF1FFF800
01FFFFFFF000
00FFFFFFE000
003FFFFFC000
000FFFFF0000
0003FFFC0000
00007FE00000
ENDCHAR
STARTCHAR 0037
ENCODING 55
SWIDTH 506 0
DWIDTH 45 0
BBX 36 64 4 0
BITMAP
FFFFFFFFF0
FFFFFFFFF0
FFFFFFFFF0
FFFFFFFFF0
FFFFFFFFF0
FFFFFFFFF0
00000007F0
00000007F0
0000000FE0
0000000FE0
0000000FC0
0000001FC0
0000001FC0
0000003F80
0000003F80
0000007F00
0000007F00
0000007F00
000000FE00
000000FE00
000001FC00
000001FC00
000001FC00
000003F800
000003F800
000007F000
000007F000
000007F000
00000FE000
00000FE000
00001FC000
00001FC000
00001FC000
00003F8000
00003F8000
00007F0000
00007F0000
0000FE0000
0000FE0000
0000FE0000
0001FC0000
0001FC0000
0003F80000
0003F80000
0003F80000
0007F00000
0007F00000
000FE00000
000FE00000
000FE00000
001FC00000
001FC00000
003F800000
003F800000
003F800000
007F000000
007F000000
00FE000000
00FE000000
01FE000000
01FC000000
01FC000000
03F8000000
03F8000000
ENDCHAR
STARTCHAR 0038
ENCODING 56
SWIDTH 585 0
DWIDTH 52 0
BBX 41 66 5 -1
BITMAP
0000FFC00000
000FFFF80000
003FFFFE0000
00FFFFFF8000
01FFFFFFC000
03FFFFFFE000
07FFF7FFF000
07FE001FF800
0FF80007FC00
1FF00003FC00
1FE00001FC00
1FC00001FE00
3FC00000FE00
3F800000FE00
3F800000FE00
3F8000007F00
3F8000007F00
3F8000007F00
3F8000007F00
3F8000007E00
3F800000FE00
3FC00000FE00
1FC00001FE00
1FE00001FC00
0FE00003FC00
0FF80007FC00
07FC001FF800
07FFC1FFF000
03FFFFFFE000
00FFFFFFC000
007FFFFF8000
00FFFFFF8000
01FFFFFFE000
03FFFFFFF000
07FF007FF800
0FFC000FFC00
1FF00003FC00
1FE00001FE00
3FC00000FE00
3F800000FF00
7F8000007F00
7F0000007F80
7F0000003F80
7F0000003F80
FE0000003F80
FE0000003F80
FE0000003F80
FE0000003F80
FE0000003F80
FE0000003F80
7F0000003F80
7F0000003F80
7F0000007F80
7F8000007F00
3F800000FF00
3FC00001FE00
1FE00003FE00
1FF00007FC00
0FFC001FFC00
07FFC0FFF800
03FFFFFFF000
01FFFFFFE000
00FFFFFF8000
003FFFFF0000
000FFFF80000
0001FFC00000
ENDCHAR
STARTCHAR 0039
ENCODING 57
SWIDTH 618 0
DWIDTH 55 0
BBX 43 66 6 -1
BITMAP
00007FC00000
0007FFF80000
001FFFFE0000
007FFFFF8000
00FFFFFFE000
01FFFFFFF000
03FFF1FFF800
07FE001FFC00
0FF80007FC00
1FF00003FE00
1FE00000FF00
3FC000007F00
7F8000007F80
7F0000003F80
7F0000001FC0
FE0000001FC0
FE0000000FC0
FE0000000FE0
FC0000000FE0
FC0000000FE0
FC0000000FE0
FC0000000FE0
FC0000000FE0
FC0000000FE0
FE0000000FE0
FE0000000FE0
FE0000001FE0
7F0000001FE0
7F0000003FE0
7F8000003FE0
3F8000007FE0
3FC00000FFE0
1FF00001FFE0
0FF80003FFE0
0FFE000FFFE0
07FF807FEFE0
03FFFFFFEFE0
01FFFFFF8FE0
007FFFFF0FE0
003FFFFC0FE0
000FFFF00FE0
0000FF800FE0
000000000FE0
000000000FE0
000000000FE0
000000000FE0
000000000FE0
000000000FE0
000000000FC0
000000001FC0
000000001FC0
000000001FC0
000000003F80
010000007F80
03800000FF00
07C00000FF00
1FE00003FE00
1FF80007FC00
0FFE001FFC00
07FFE0FFF800
03FFFFFFF000
01FFFFFFE000
007FFFFF8000
003FFFFE0000
0007FFF80000
0000FFC00000
ENDCHAR
STARTCHAR 003A
ENCODING 58
SWIDTH 303 0
DWIDTH 27 0
BBX 7 34 10 7
BITMAP
FE
FE
FE
FE
FE
FE
FE
FE
00
00
00
00
00
00
00
00
00
00
00
00
00
00
00
00
00
00
FE
FE
FE
FE
FE
FE
FE
FE
ENDCHAR
STARTCHAR 003B
ENCODING 59
SWIDTH 303 0
DWIDTH 27 0
BBX 7 57 10 -10
BITMAP
FE
FE
FE
FE
FE
FE
FE
FE
00
00
00
00
00
00
00
00
00
00
00
00
00
00
00
00
00
00
00
00
00
00
00
00
00
00
00
00
00
00
00
FE
FE
FE
FE
FE
FE
FE
FE
FE
0E
0E
0E
0E
1E
3E
FC
FC
F8
ENDCHAR
STARTCHAR 003C
ENCODING 60
SWIDTH 618 0
DWIDTH 55 0
BBX 24 41 13 7
BITMAP
000008
00001C
00003E
00007F
0000FF
0001FE
0003FC
0007F8
000FF0
001FE0
003FC0
007F80
00FF00
01FE00
03FC00
07F800
0FF000
1FE000
3FC000
7F8000
FF0000
FF0000
7F8000
3FC000
1FE000
0FF000
07F800
03FC00
01FE00
00FF00
007F80
003FC0
001FE0
000FF0
0007F8
0003FC
0001FE
0000FF
00007F
00003E
00001C
ENDCHAR
STARTCHAR 003D
ENCODING 61
SWIDTH 753 0
DWIDTH 67 0
BBX 45 22 11 21
BITMAP
FFFFFFFFFFF8
FFFFFFFFFFF8
FFFFFFFFFFF8
FFFFFFFFFFF8
FFFFFFFFFFF8
FFFFFFFFFFF8
000000000000
000000000000
000000000000
000000000000
000000000000
000000000000
000000000000
000000000000
000000000000
000000000000
FFFFFFFFFFF8
FFFFFFFFFFF8
FFFFFFFFFFF8
FFFFFFFFFFF8
FFFFFFFFFFF8
FFFFFFFFFFF8
ENDCHAR
STARTCHAR 003E
ENCODING 62
SWIDTH 618 0
DWIDTH 55 0
BBX 25 42 17 7
BITMAP
08000000
1C000000
3E000000
7F000000
7F800000
3FC00000
1FE00000
0FF00000
07F80000
03FC0000
01FE0000
00FF0000
007F8000
003FC000
001FE000
000FF000
0007F800
0003FC00
0001FE00
0000FF00
00007F80
0000FF80
0001FF00
0003FE00
0007FC00
000FF800
001FF000
003FE000
007FC000
00FF8000
01FF0000
03FE0000
07FC0000
0FF80000
1FF00000
3FE00000
7FC00000
FF800000
7F000000
3E000000
1C000000
08000000
ENDCHAR
STARTCHAR 003F
ENCODING 63
SWIDTH 528 0
DWIDTH 47 0
BBX 38 65 4 0
BITMAP
0003FF0000
001FFFF000
007FFFFC00
01FFFFFE00
03FFFFFF80
07FFFFFFC0
0FFF03FFE0
1FF8003FE0
1FE0001FF0
3FC0000FF0
3F800007F8
7F000003F8
7F000003FC
7F000001FC
7E000001FC
7E000001FC
FE000001FC
00000001FC
00000001FC
00000001FC
00000001FC
00000001F8
00000003F8
00000003F8
00000007F0
0000000FF0
0000001FE0
0000003FE0
0000007FC0
000001FF80
000003FF00
000007FE00
00000FFC00
00001FF000
00003FE000
00007FC000
00007F8000
0000FF0000
0000FE0000
0001FE0000
0001FC0000
0001FC0000
0001FC0000
0001FC0000
0001FC0000
0001FC0000
0001FC0000
0001FC0000
0000000000
0000000000
0000000000
0000000000
0000000000
0000000000
0000000000
0000000000
0001FC0000
0001FC0000
0001FC0000
0001FC0000
0001FC0000
0001FC0000
0001FC0000
0001FC0000
0001FC0000
ENDCHAR
STARTCHAR 0040
ENCODING 64
SWIDTH 900 0
DWIDTH 80 0
BBX 66 68 7 -10
BITMAP
00000001E000000000
000000FFFFE0000000
000007FFFFFC000000
00001FFFFFFF800000
00007FFFFFFFE00000
0001FFFFFFFFF80000
0007FFF001FFFC0000
000FFF00001FFE0000
001FFC000003FF8000
003FF0000000FFC000
007FC00000003FE000
00FF800000001FE000
01FE000000000FF000
03FC0000000007F800
03F80000000003FC00
07F00000000001FC00
0FF00000000000FE00
0FE000000000007E00
1FC000000000007F00
1FC000000000003F00
1F8000000000003F00
3F80000FF000003F80
3F00003FFE7C001F80
3F0000FFFFFC001F80
7F0001FFFFFC001FC0
7E0003FFFFFC000FC0
7E0007FFFFFC000FC0
7E000FF007FC000FC0
FE000FE003FC000FC0
FC000FC001FC000FC0
FC001F8000FC000FC0
FC001F8000FC000FC0
FC001F8000FC000FC0
FC001F8000FC000FC0
FC001F8000FC000FC0
FC001F8000FC000FC0
FC001F8000FC000FC0
FC001F8000FC000FC0
FC001F8000FC001F80
FE001FC001FC001F80
7E000FC001FE003F80
7E000FE003FE003F00
7E0007F80FFF007F00
7F0007FFFFFF81FF00
3F0003FFFFFFFFFE00
3F0001FFFF9FFFFC00
3F8000FFFF0FFFF800
1F80003FFC07FFF000
1FC00003E003FFC000
1FC0000000003E0000
0FE000000000000000
0FF000000000000000
07F800000000000000
03F800000000000000
03FC00000000000000
01FF00000000000000
00FF80000000000000
007FC0000000000000
003FF0000001000000
001FFC000007800000
000FFF00001F800000
0003FFF001FF800000
0001FFFFFFFFC00000
00007FFFFFFFC00000
00001FFFFFFF000000
000007FFFFF8000000
000000FFFFC0000000
00000001E800000000
ENDCHAR
STARTCHAR 0041
ENCODING 65
SWIDTH 630 0
DWIDTH 56 0
BBX 52 64 2 0
BITMAP
000003FE000000
000007FE000000
000007FE000000
000007FF000000
00000FFF000000
00000FFF000000
00000FFF800000
00001FFF800000
00001FFF800000
00001F9FC00000
00003F9FC00000
00003F8FC00000
00003F0FE00000
00007F0FE00000
00007F07E00000
0000FE07F00000
0000FE07F00000
0000FE03F80000
0001FC03F80000
0001FC03F80000
0001F801FC0000
0003F801FC0000
0003F801FC0000
0003F000FE0000
0007F000FE0000
0007F000FE0000
0007E0007F0000
000FE0007F0000
000FE0007F0000
000FC0003F8000
001FC0003F8000
001FC0001F8000
001F80001FC000
003F80001FC000
003F80000FC000
003F00000FE000
007F00000FE000
007F000007E000
007E000007F000
00FE000007F000
00FE000003F000
00FC000003F800
01FFFFFFFFF800
01FFFFFFFFF800
03FFFFFFFFFC00
03FFFFFFFFFC00
03FFFFFFFFFE00
07FFFFFFFFFE00
07F0000000FE00
07E00000007F00
0FE00000007F00
0FE00000007F00
0FC00000003F80
1FC00000003F80
1FC00000001F80
1F800000001FC0
3F800000001FC0
3F800000000FC0
3F000000000FE0
7F000000000FE0
7F0000000007E0
7E0000000007F0
FE0000000007F0
FE0000000003F0
ENDCHAR
STARTCHAR 0042
ENCODING 66
SWIDTH 607 0
DWIDTH 54 0
BBX 46 64 6 0
BITMAP
FFFFFFFC0000
FFFFFFFF8000
FFFFFFFFE000
FFFFFFFFF000
FFFFFFFFFC00
FFFFFFFFFE00
FE00000FFE00
FE000001FF00
FE000000FF80
FE0000007F80
FE0000003FC0
FE0000001FC0
FE0000001FC0
FE0000000FC0
FE0000000FE0
FE0000000FE0
FE0000000FE0
FE0000000FE0
FE0000000FE0
FE0000000FC0
FE0000001FC0
FE0000001FC0
FE0000003FC0
FE0000007F80
FE000000FF80
FE000001FF00
FE00000FFE00
FFFFFFFFFC00
FFFFFFFFF800
FFFFFFFFF000
FFFFFFFFF800
FFFFFFFFFC00
FFFFFFFFFF00
FE000007FF80
FE000000FFC0
FE0000003FE0
FE0000001FE0
FE0000000FF0
FE00000007F0
FE00000007F8
FE00000003F8
FE00000003F8
FE00000001FC
FE00000001FC
FE00000001FC
FE00000001FC
FE00000001FC
FE00000001FC
FE00000001FC
FE00000001FC
FE00000003F8
FE00000003F8
FE00000007F8
FE0000000FF0
FE0000001FF0
FE0000003FF0
FE000000FFE0
FE00000FFFC0
FFFFFFFFFF80
FFFFFFFFFF00
FFFFFFFFFE00
FFFFFFFFF800
FFFFFFFFE000
FFFFFFFF0000
ENDCHAR
STARTCHAR 0043
ENCODING 67
SWIDTH 720 0
DWIDTH 64 0
BBX 57 66 3 -1
BITMAP
000001FFE0000000
00001FFFFE000000
0000FFFFFFC00000
0003FFFFFFF00000
0007FFFFFFFC0000
001FFFFFFFFE0000
003FFFC0FFFF0000
007FF80007FF8000
00FFE00001FFC000
01FF8000007FE000
03FF0000001FF000
07FC0000000FF800
07F800000007F800
0FF000000003FC00
0FF000000001FE00
1FE000000001FE00
1FC000000000FF00
3FC000000000FF00
3F80000000007F00
3F80000000007F80
7F80000000003F80
7F00000000003E00
7F00000000002000
7F00000000000000
FE00000000000000
FE00000000000000
FE00000000000000
FE00000000000000
FE00000000000000
FE00000000000000
FE00000000000000
FE00000000000000
FE00000000000000
FE00000000000000
FE00000000000000
FE00000000000000
FE00000000000000
FE00000000000000
FE00000000000000
FE00000000000000
FE00000000000000
FE00000000000000
7F00000000000000
7F00000000002000
7F00000000003C00
7F00000000003F80
3F80000000007F80
3F80000000007F00
3FC000000000FF00
1FC000000000FF00
1FE000000001FE00
0FF000000001FE00
0FF000000003FC00
07F800000007F800
07FC0000000FF800
03FE0000001FF000
01FF8000007FE000
00FFE00000FFC000
007FF80007FF8000
003FFFE0FFFF0000
001FFFFFFFFE0000
000FFFFFFFFC0000
0003FFFFFFF00000
0000FFFFFFC00000
00001FFFFE000000
000001FFE0000000
ENDCHAR
STARTCHAR 0044
ENCODING 68
SWIDTH 675 0
DWIDTH 60 0
BBX 50 64 6 0
BITMAP
FFFFFFF0000000
FFFFFFFF000000
FFFFFFFFE00000
FFFFFFFFF80000
FFFFFFFFFC0000
FFFFFFFFFF0000
FE0000FFFF8000
FE000003FFC000
FE000000FFE000
FE0000003FE000
FE0000001FF000
FE0000000FF800
FE00000007F800
FE00000003FC00
FE00000001FC00
FE00000001FE00
FE00000000FE00
FE00000000FE00
FE000000007F00
FE000000007F00
FE000000007F00
FE000000003F80
FE000000003F80
FE000000003F80
FE000000003F80
FE000000003F80
FE000000001FC0
FE000000001FC0
FE000000001FC0
FE000000001FC0
FE000000001FC0
FE000000001FC0
FE000000001FC0
FE000000001FC0
FE000000001FC0
FE000000001FC0
FE000000001FC0
FE000000001F80
FE000000003F80
FE000000003F80
FE000000003F80
FE000000003F80
FE000000003F80
FE000000007F00
FE000000007F00
FE000000007F00
FE00000000FF00
FE00000000FE00
FE00000001FE00
FE00000001FC00
FE00000003FC00
FE00000007F800
FE0000000FF800
FE0000001FF000
FE0000003FE000
FE000000FFE000
FE000003FFC000
FE00007FFF8000
FFFFFFFFFF0000
FFFFFFFFFC0000
FFFFFFFFF80000
FFFFFFFFE00000
FFFFFFFF800000
FFFFFFF8000000
ENDCHAR
STARTCHAR 0045
ENCODING 69
SWIDTH 573 0
DWIDTH 51 0
BBX 40 64 6 0
BITMAP
FFFFFFFFFF
FFFFFFFFFF
FFFFFFFFFF
FFFFFFFFFF
FFFFFFFFFF
FFFFFFFFFF
FE00000000
FE00000000
FE00000000
FE00000000
FE00000000
FE00000000
FE00000000
FE00000000
FE00000000
FE00000000
FE00000000
FE00000000
FE00000000
FE00000000
FE00000000
FE00000000
FE00000000
FE00000000
FE00000000
FE00000000
FE00000000
FE00000000
FE00000000
FFFFFFFFE0
FFFFFFFFE0
FFFFFFFFE0
FFFFFFFFE0
FFFFFFFFE0
FFFFFFFFE0
FE00000000
FE00000000
FE00000000
FE00000000
FE00000000
FE00000000
FE00000000
FE00000000
FE00000000
FE00000000
FE00000000
FE00000000
FE00000000
FE00000000
FE00000000
FE00000000
FE00000000
FE00000000
FE00000000
FE00000000
FE00000000
FE00000000
FE00000000
FFFFFFFFFF
FFFFFFFFFF
FFFFFFFFFF
FFFFFFFFFF
FFFFFFFFFF
FFFFFFFFFF
ENDCHAR
STARTCHAR 0046
ENCODING 70
SWIDTH 506 0
DWIDTH 45 0
BBX 37 64 6 0
BITMAP
FFFFFFFFF8
FFFFFFFFF8
FFFFFFFFF8
FFFFFFFFF8
FFFFFFFFF8
FFFFFFFFF8
FFFFFFFFF8
FE00000000
FE00000000
FE00000000
FE00000000
FE00000000
FE00000000
FE00000000
FE00000000
FE00000000
FE00000000
FE00000000
FE00000000
FE00000000
FE00000000
FE00000000
FE00000000
FE00000000
FE00000000
FE00000000
FE00000000
FE00000000
FE00000000
FFFFFFFF00
FFFFFFFF00
FFFFFFFF00
FFFFFFFF00
FFFFFFFF00
FFFFFFFF00
FE00000000
FE00000000
FE00000000
FE00000000
FE00000000
FE00000000
FE00000000
FE00000000
FE00000000
FE00000000
FE00000000
FE00000000
FE00000000
FE00000000
FE00000000
FE00000000
FE00000000
FE00000000
FE00000000
FE00000000
FE00000000
FE00000000
FE00000000
FE00000000
FE00000000
FE00000000
FE00000000
FE00000000
FE00000000
ENDCHAR
STARTCHAR 0047
ENCODING 71
SWIDTH 708 0
DWIDTH 63 0
BBX 57 66 3 -1
BITMAP
000001FFE0000000
00001FFFFE000000
0000FFFFFF800000
0003FFFFFFE00000
0007FFFFFFF80000
001FFFFFFFFC0000
003FFFE0FFFF0000
007FF8000FFF8000
00FFE00001FFC000
01FF800000FFC000
03FF0000003FE000
07FC0000001FF000
07F80000000FF000
0FF000000007F800
0FF000000003F800
1FE000000003FC00
1FC000000001FC00
3FC000000001FC00
3F8000000000C000
3F80000000000000
7F80000000000000
7F00000000000000
7F00000000000000
7F00000000000000
FE00000000000000
FE00000000000000
FE00000000000000
FE00000000000000
FE00000000000000
FE00000000000000
FE00000000000000
FE00000000000000
FE0000001FFFFF80
FE0000001FFFFF80
FE0000001FFFFF80
FE0000001FFFFF80
FE0000001FFFFF80
FE0000001FFFFF80
FE00000000003F80
FE00000000003F80
FE00000000003F80
FE00000000003F80
7F00000000007F80
7F00000000007F00
7F00000000007F00
7F00000000007F00
3F80000000007F00
3F8000000000FE00
3FC000000000FE00
1FC000000001FE00
1FE000000001FC00
0FF000000003FC00
0FF000000003F800
07F800000007F800
07FC0000000FF000
03FE0000001FF000
01FF8000007FE000
00FFE00000FFC000
007FF80007FF8000
003FFFC07FFF0000
001FFFFFFFFE0000
0007FFFFFFF80000
0003FFFFFFF00000
0000FFFFFFC00000
00001FFFFE000000
000001FFE0000000
ENDCHAR
STARTCHAR 0048
ENCODING 72
SWIDTH 686 0
DWIDTH 61 0
BBX 49 64 6 0
BITMAP
FE000000003F80
FE000000003F80
FE000000003F80
FE000000003F80
FE000000003F80
FE000000003F80
FE000000003F80
FE000000003F80
FE000000003F80
FE000000003F80
FE000000003F80
FE000000003F80
FE000000003F80
FE000000003F80
FE000000003F80
FE000000003F80
FE000000003F80
FE000000003F80
FE000000003F80
FE000000003F80
FE000000003F80
FE000000003F80
FE000000003F80
FE000000003F80
FE000000003F80
FE000000003F80
FE000000003F80
FE000000003F80
FE000000003F80
FFFFFFFFFFFF80
FFFFFFFFFFFF80
FFFFFFFFFFFF80
FFFFFFFFFFFF80
FFFFFFFFFFFF80
FFFFFFFFFFFF80
FE000000003F80
FE000000003F80
FE000000003F80
FE000000003F80
FE000000003F80
FE000000003F80
FE000000003F80
FE000000003F80
FE000000003F80
FE000000003F80
FE000000003F80
FE000000003F80
FE000000003F80
FE000000003F80
FE000000003F80
FE000000003F80
FE000000003F80
FE000000003F80
FE000000003F80
FE000000003F80
FE000000003F80
FE000000003F80
FE000000003F80
FE000000003F80
FE000000003F80
FE000000003F80
FE000000003F80
FE000000003F80
FE000000003F80
ENDCHAR
STARTCHAR 0049
ENCODING 73
SWIDTH 236 0
DWIDTH 21 0
BBX 7 64 7 0
BITMAP
FE
FE
FE
FE
FE
FE
FE
FE
FE
FE
FE
FE
FE
FE
FE
FE
FE
FE
FE
FE
FE
FE
FE
FE
FE
FE
FE
FE
FE
FE
FE
FE
FE
FE
FE
FE
FE
FE
FE
FE
FE
FE
FE
FE
FE
FE
FE
FE
FE
FE
FE
FE
FE
FE
FE
FE
FE
FE
FE
FE
FE
FE
FE
FE
ENDCHAR
STARTCHAR 004A
ENCODING 74
SWIDTH 461 0
DWIDTH 41 0
BBX 34 65 0 -1
BITMAP
0000001FC0
0000001FC0
0000001FC0
0000001FC0
0000001FC0
0000001FC0
0000001FC0
0000001FC0
0000001FC0
0000001FC0
0000001FC0
0000001FC0
0000001FC0
0000001FC0
0000001FC0
0000001FC0
0000001FC0
0000001FC0
0000001FC0
0000001FC0
0000001FC0
0000001FC0
0000001FC0
0000001FC0
0000001FC0
0000001FC0
0000001FC0
0000001FC0
0000001FC0
0000001FC0
0000001FC0
0000001FC0
0000001FC0
0000001FC0
0000001FC0
0000001FC0
0000001FC0
0000001FC0
0000001FC0
0000001FC0
0000001FC0
0000001FC0
0000001FC0
0000001FC0
0000001FC0
0000001FC0
0000001FC0
0000001FC0
0000001FC0
0000001FC0
0200001FC0
3E00001FC0
FE00001FC0
FF00003F80
7F00003F80
7F80007F80
3FC000FF00
3FF003FF00
1FFE1FFE00
0FFFFFFC00
07FFFFF800
03FFFFF000
00FFFFE000
003FFF8000
0007FC0000
ENDCHAR
STARTCHAR 004B
ENCODING 75
SWIDTH 596 0
DWIDTH 53 0
BBX 46 64 6 0
BITMAP
FE0000001FF0
FE0000003FE0
FE0000003FC0
FE0000007F80
FE000000FF00
FE000001FE00
FE000003FC00
FE000007F800
FE00000FF000
FE00001FE000
FE00003FC000
FE00007F8000
FE0000FF0000
FE0001FE0000
FE0003FC0000
FE0007F80000
FE000FF00000
FE001FE00000
FE003FC00000
FE007F800000
FE00FF800000
FE01FF000000
FE03FE000000
FE07FC000000
FE0FF8000000
FE1FF0000000
FE3FE0000000
FE7FC0000000
FEFF80000000
FFFF00000000
FFFE00000000
FFFE00000000
FFFF00000000
FEFF80000000
FE7FC0000000
FE3FE0000000
FE1FF0000000
FE0FF8000000
FE07FC000000
FE03FE000000
FE01FF000000
FE00FF800000
FE007FC00000
FE003FE00000
FE001FF00000
FE000FF80000
FE0007FC0000
FE0003FE0000
FE0001FF0000
FE0000FF8000
FE00007FC000
FE00003FE000
FE00001FF000
FE00000FF800
FE000007FC00
FE000003FC00
FE000001FE00
FE000000FF00
FE0000007F80
FE0000003FC0
FE0000001FE0
FE0000000FF0
FE00000007F8
FE00000003FC
ENDCHAR
STARTCHAR 004C
ENCODING 76
SWIDTH 506 0
DWIDTH 45 0
BBX 37 64 7 0
BITMAP
FE00000000
FE00000000
FE00000000
FE00000000
FE00000000
FE00000000
FE00000000
FE00000000
FE00000000
FE00000000
FE00000000
FE00000000
FE00000000
FE00000000
FE00000000
FE00000000
FE00000000
FE00000000
FE00000000
FE00000000
FE00000000
FE00000000
FE00000000
FE00000000
FE00000000
FE00000000
FE00000000
FE00000000
FE00000000
FE00000000
FE00000000
FE00000000
FE00000000
FE00000000
FE00000000
FE00000000
FE00000000
FE00000000
FE00000000
FE00000000
FE00000000
FE00000000
FE00000000
FE00000000
FE00000000
FE00000000
FE00000000
FE00000000
FE00000000
FE00000000
FE00000000
FE00000000
FE00000000
FE00000000
FE00000000
FE00000000
FE00000000
FE00000000
FFFFFFFFF8
FFFFFFFFF8
FFFFFFFFF8
FFFFFFFFF8
FFFFFFFFF8
FFFFFFFFF8
ENDCHAR
STARTCHAR 004D
ENCODING 77
SWIDTH 843 0
DWIDTH 75 0
BBX 62 64 6 0
BITMAP
FC000000000000FC
FE000000000000FC
FE000000000001FC
FF000000000001FC
FF000000000003FC
FF800000000003FC
FF800000000007FC
FFC00000000007FC
FFC0000000000FFC
FFE0000000000FFC
FFE0000000000FFC
FFF0000000001FFC
FFF0000000001FFC
FFF8000000003FFC
FFF8000000003FFC
FDF8000000007FFC
FDFC000000007EFC
FCFC00000000FEFC
FCFE00000000FCFC
FC7E00000001FCFC
FC7F00000001FCFC
FC3F00000003F8FC
FC3F80000003F8FC
FC1F80000007F0FC
FC1FC0000007F0FC
FC1FC0000007E0FC
FC0FE000000FE0FC
FC0FE000000FC0FC
FC07F000001FC0FC
FC07F000001F80FC
FC03F000003F80FC
FC03F800003F00FC
FC01F800007F00FC
FC01FC00007F00FC
FC00FC0000FE00FC
FC00FE0000FE00FC
FC007E0001FC00FC
FC007F0001FC00FC
FC007F0001F800FC
FC003F8003F800FC
FC003F8003F000FC
FC001FC007F000FC
FC001FC007E000FC
FC000FE00FE000FC
FC000FE00FC000FC
FC0007E01FC000FC
FC0007F01FC000FC
FC0003F03F8000FC
FC0003F83F8000FC
FC0001F87F0000FC
FC0001FC7F0000FC
FC0001FCFE0000FC
FC0000FEFE0000FC
FC0000FEFC0000FC
FC00007FFC0000FC
FC00007FF80000FC
FC00003FF80000FC
FC00003FF00000FC
FC00001FF00000FC
FC00001FF00000FC
FC00000FE00000FC
FC00000FE00000FC
FC000007C00000FC
FC000007C00000FC
ENDCHAR
STARTCHAR 004E
ENCODING 78
SWIDTH 686 0
DWIDTH 61 0
BBX 49 64 6 0
BITMAP
FE000000003F80
FF000000003F80
FF000000003F80
FF800000003F80
FFC00000003F80
FFE00000003F80
FFE00000003F80
FFF00000003F80
FFF80000003F80
FFF80000003F80
FFFC0000003F80
FFFE0000003F80
FFFE0000003F80
FEFF0000003F80
FE7F8000003F80
FE7F8000003F80
FE3FC000003F80
FE1FE000003F80
FE1FE000003F80
FE0FF000003F80
FE07F800003F80
FE07F800003F80
FE03FC00003F80
FE01FE00003F80
FE01FE00003F80
FE00FF00003F80
FE007F80003F80
FE003F80003F80
FE003FC0003F80
FE001FE0003F80
FE000FE0003F80
FE000FF0003F80
FE0007F8003F80
FE0003F8003F80
FE0003FC003F80
FE0001FE003F80
FE0000FE003F80
FE0000FF003F80
FE00007F803F80
FE00003F803F80
FE00003FC03F80
FE00001FE03F80
FE00000FE03F80
FE00000FF03F80
FE000007F83F80
FE000003F83F80
FE000003FC3F80
FE000001FE3F80
FE000000FE3F80
FE000000FF3F80
FE0000007FBF80
FE0000003FBF80
FE0000003FFF80
FE0000001FFF80
FE0000000FFF80
FE0000000FFF80
FE00000007FF80
FE00000003FF80
FE00000003FF80
FE00000001FF80
FE00000000FF80
FE00000000FF80
FE000000007F80
FE000000003F80
ENDCHAR
STARTCHAR 004F
ENCODING 79
SWIDTH 720 0
DWIDTH 64 0
BBX 59 66 3 -1
BITMAP
000001FFE0000000
00001FFFFE000000
0000FFFFFFC00000
0003FFFFFFF00000
0007FFFFFFFC0000
001FFFFFFFFE0000
003FFFC0FFFF0000
007FF80007FF8000
00FFE00000FFC000
01FF8000007FE000
03FF0000001FF000
07FC0000000FF800
07F800000007F800
0FF000000003FC00
0FF000000001FE00
1FE000000001FE00
1FC000000000FF00
3FC000000000FF00
3F80000000007F00
3F80000000007F80
7F80000000003F80
7F00000000003F80
7F00000000003F80
7F00000000001FC0
FE00000000001FC0
FE00000000001FC0
FE00000000001FC0
FE00000000001FC0
FE00000000001FC0
FE00000000000FE0
FE00000000000FE0
FE00000000000FE0
FE00000000000FE0
FE00000000000FE0
FE00000000000FE0
FE00000000000FE0
FE00000000000FE0
FE00000000001FC0
FE00000000001FC0
FE00000000001FC0
FE00000000001FC0
FE00000000001FC0
7F00000000001FC0
7F00000000003F80
7F00000000003F80
7F00000000003F80
3F80000000007F80
3F80000000007F00
3FC000000000FF00
1FC000000000FF00
1FE000000001FE00
0FF000000001FE00
0FF000000003FC00
07F800000007F800
07FC0000000FF800
03FE0000001FF000
01FF8000007FE000
00FFE00000FFC000
007FF80007FF8000
003FFFC07FFF0000
001FFFFFFFFE0000
000FFFFFFFFC0000
0003FFFFFFF00000
0000FFFFFFC00000
00001FFFFE000000
000001FFE0000000
ENDCHAR
STARTCHAR 0050
ENCODING 80
SWIDTH 607 0
DWIDTH 54 0
BBX 45 64 6 0
BITMAP
FFFFFFFC0000
FFFFFFFFC000
FFFFFFFFF000
FFFFFFFFF800
FFFFFFFFFE00
FFFFFFFFFF00
FE00001FFF80
FE000001FF80
FE0000007FC0
FE0000003FE0
FE0000001FE0
FE0000000FF0
FE0000000FF0
FE00000007F0
FE00000007F0
FE00000003F8
FE00000003F8
FE00000003F8
FE00000003F8
FE00000003F8
FE00000003F8
FE00000003F8
FE00000003F8
FE00000003F8
FE00000003F8
FE00000007F0
FE00000007F0
FE00000007F0
FE0000000FE0
FE0000001FE0
FE0000003FE0
FE0000007FC0
FE000001FF80
FE00001FFF80
FFFFFFFFFF00
FFFFFFFFFE00
FFFFFFFFF800
FFFFFFFFF000
FFFFFFFFC000
FFFFFFFC0000
FE0000000000
FE0000000000
FE0000000000
FE0000000000
FE0000000000
FE0000000000
FE0000000000
FE0000000000
FE0000000000
FE0000000000
FE0000000000
FE0000000000
FE0000000000
FE0000000000
FE0000000000
FE0000000000
FE0000000000
FE0000000000
FE0000000000
FE0000000000
FE0000000000
FE0000000000
FE0000000000
FE0000000000
ENDCHAR
STARTCHAR 0051
ENCODING 81
SWIDTH 720 0
DWIDTH 64 0
BBX 59 66 3 -1
BITMAP
000001FFE0000000
00001FFFFE000000
0000FFFFFFC00000
0003FFFFFFF00000
0007FFFFFFFC0000
001FFFFFFFFE0000
003FFFC0FFFF0000
007FF80007FF8000
00FFE00000FFC000
01FF8000007FE000
03FF0000001FF000
07FC0000000FF800
07F800000007F800
0FF000000003FC00
0FF000000001FE00
1FE000000001FE00
1FC000000000FF00
3FC000000000FF00
3F80000000007F00
3F80000000007F80
7F80000000003F80
7F00000000003F80
7F00000000003F80
7F00000000001FC0
FE00000000001FC0
FE00000000001FC0
FE00000000001FC0
FE00000000001FC0
FE00000000001FC0
FE00000000000FE0
FE00000000000FE0
FE00000000000FE0
FE00000000000FE0
FE00000000000FE0
FE00000000000FE0
FE00000000000FE0
FE00000000000FE0
FE00000000001FC0
FE00000000001FC0
FE00000000001FC0
FE00000000001FC0
FE00000000001FC0
7F00000000001FC0
7F00000000003F80
7F00000000003F80
7F00000000C03F80
3F80000001E07F80
3F80000003F07F00
3FC0000007F8FF00
1FC0000007FCFF00
1FE0000003FFFE00
0FF0000001FFFE00
0FF0000000FFFC00
07F80000007FF800
07FC0000003FF800
03FE0000001FF000
01FF8000007FF800
00FFE00000FFFC00
007FF80007FFFE00
003FFFC0FFFFFF00
001FFFFFFFFEFF80
000FFFFFFFFC7FC0
0003FFFFFFF03F80
0000FFFFFFC01F00
00001FFFFE000E00
000001FFE0000400
ENDCHAR
STARTCHAR 0052
ENCODING 82
SWIDTH 630 0
DWIDTH 56 0
BBX 46 64 6 0
BITMAP
FFFFFFFC0000
FFFFFFFFC000
FFFFFFFFF000
FFFFFFFFF800
FFFFFFFFFE00
FFFFFFFFFF00
FE00001FFF80
FE000001FF80
FE0000007FC0
FE0000003FE0
FE0000001FE0
FE0000000FF0
FE0000000FF0
FE00000007F0
FE00000007F0
FE00000003F8
FE00000003F8
FE00000003F8
FE00000003F8
FE00000003F8
FE00000003F8
FE00000003F8
FE00000003F8
FE00000003F8
FE00000003F8
FE00000007F0
FE00000007F0
FE00000007F0
FE0000000FE0
FE0000001FE0
FE0000003FE0
FE0000007FC0
FE000001FF80
FE00001FFF80
FFFFFFFFFF00
FFFFFFFFFE00
FFFFFFFFF800
FFFFFFFFF000
FFFFFFFFC000
FFFFFFFFC000
FE00001FE000
FE00000FE000
FE00000FF000
FE000007F000
FE000007F800
FE000003F800
FE000003FC00
FE000001FC00
FE000001FE00
FE000000FE00
FE000000FF00
FE0000007F00
FE0000007F80
FE0000003F80
FE0000003FC0
FE0000001FC0
FE0000001FE0
FE0000000FE0
FE0000000FF0
FE00000007F0
FE00000007F8
FE00000003F8
FE00000003FC
FE00000001FC
ENDCHAR
STARTCHAR 0053
ENCODING 83
SWIDTH 618 0
DWIDTH 55 0
BBX 49 66 3 -1
BITMAP
00001FFC000000
0001FFFFC00000
000FFFFFF00000
003FFFFFFC0000
007FFFFFFF0000
00FFFFFFFF8000
01FFF81FFFC000
03FF8001FFE000
07FE00007FF000
0FF800001FF800
0FF000000FF800
1FE0000007FC00
1FE0000003FC00
1FC0000001FE00
1FC0000000FE00
1F80000000FF00
3F800000007F00
3F800000007F00
3F800000007F00
1FC00000002000
1FC00000000000
1FE00000000000
1FE00000000000
0FF00000000000
0FFC0000000000
07FF0000000000
03FFE000000000
03FFFC00000000
00FFFF80000000
007FFFF8000000
001FFFFF000000
0007FFFFF00000
0000FFFFFC0000
00001FFFFF0000
000001FFFFC000
0000003FFFE000
00000007FFF800
000000007FFC00
000000001FFC00
0000000007FE00
0000000001FE00
0000000000FF00
00000000007F00
00000000007F00
00000000003F80
00000000003F80
00000000003F80
7E000000003F80
FE000000003F80
FF000000003F80
7F000000003F80
7F800000007F00
7F800000007F00
3FC0000000FF00
3FE0000000FE00
1FF0000001FE00
0FFC000007FC00
07FE00000FFC00
03FFC0007FF800
01FFFC07FFF000
00FFFFFFFFE000
007FFFFFFFC000
001FFFFFFF0000
0007FFFFFC0000
0001FFFFF00000
00000FFE000000
ENDCHAR
STARTCHAR 0054
ENCODING 84
SWIDTH 596 0
DWIDTH 53 0
BBX 51 64 1 0
BITMAP
FFFFFFFFFFFFE0
FFFFFFFFFFFFE0
FFFFFFFFFFFFE0
FFFFFFFFFFFFE0
FFFFFFFFFFFFE0
FFFFFFFFFFFFE0
000003F8000000
000003F8000000
000003F8000000
000003F8000000
000003F8000000
000003F8000000
000003F8000000
000003F8000000
000003F8000000
000003F8000000
000003F8000000
000003F8000000
000003F8000000
000003F8000000
000003F8000000
000003F8000000
000003F8000000
000003F8000000
000003F8000000
000003F8000000
000003F8000000
000003F8000000
000003F8000000
000003F8000000
000003F8000000
000003F8000000
000003F8000000
000003F8000000
000003F8000000
000003F8000000
000003F8000000
000003F8000000
000003F8000000
000003F8000000
000003F8000000
000003F8000000
000003F8000000
000003F8000000
000003F8000000
000003F8000000
000003F8000000
000003F8000000
000003F8000000
000003F8000000
000003F8000000
000003F8000000
000003F8000000
000003F8000000
000003F8000000
000003F8000000
000003F8000000
000003F8000000
000003F8000000
000003F8000000
000003F8000000
000003F8000000
000003F8000000
000003F8000000
ENDCHAR
STARTCHAR 0055
ENCODING 85
SWIDTH 697 0
DWIDTH 62 0
BBX 50 65 6 -1
BITMAP
FE000000000FC0
FE000000000FC0
FE000000000FC0
FE000000000FC0
FE000000000FC0
FE000000000FC0
FE000000000FC0
FE000000000FC0
FE000000000FC0
FE000000000FC0
FE000000000FC0
FE000000000FC0
FE000000000FC0
FE000000000FC0
FE000000000FC0
FE000000000FC0
FE000000000FC0
FE000000000FC0
FE000000000FC0
FE000000000FC0
FE000000000FC0
FE000000000FC0
FE000000000FC0
FE000000000FC0
FE000000000FC0
FE000000000FC0
FE000000000FC0
FE000000000FC0
FE000000000FC0
FE000000000FC0
FE000000000FC0
FE000000000FC0
FE000000000FC0
FE000000000FC0
FE000000000FC0
FE000000000FC0
FE000000000FC0
FE000000000FC0
FE000000000FC0
FE000000000FC0
FE000000000FC0
FE000000000FC0
FE000000001FC0
FE000000001FC0
FE000000001FC0
7E000000001FC0
7F000000001FC0
7F000000003F80
7F800000003F80
3F800000007F80
3FC00000007F00
3FC0000000FF00
1FE0000001FE00
1FF0000003FE00
0FF8000007FC00
07FC00000FFC00
07FF00003FF800
03FFC000FFF000
01FFFC07FFE000
007FFFFFFFC000
003FFFFFFF8000
001FFFFFFE0000
0007FFFFF80000
0000FFFFE00000
00001FFE000000
ENDCHAR
STARTCHAR 0056
ENCODING 86
SWIDTH 607 0
DWIDTH 54 0
BBX 52 64 1 0
BITMAP
FC0000000007F0
FE0000000007F0
FE0000000007E0
7E000000000FE0
7F000000000FE0
7F000000001FC0
3F000000001FC0
3F800000001FC0
3F800000003F80
1FC00000003F80
1FC00000003F80
1FC00000007F00
0FE00000007F00
0FE00000007F00
0FE0000000FE00
07F0000000FE00
07F0000000FE00
07F0000001FC00
03F8000001FC00
03F8000001F800
03F8000003F800
01FC000003F800
01FC000003F000
00FC000007F000
00FE000007F000
00FE000007E000
007E00000FE000
007F00000FE000
007F00001FC000
003F00001FC000
003F80001FC000
003F80003F8000
001F80003F8000
001FC0003F8000
001FC0007F0000
000FC0007F0000
000FE0007F0000
000FE000FE0000
0007F000FE0000
0007F000FE0000
0007F001FC0000
0003F801FC0000
0003F801FC0000
0003F803F80000
0001FC03F80000
0001FC03F80000
0001FC07F00000
0000FE07F00000
0000FE07F00000
0000FE0FE00000
00007F0FE00000
00007F0FC00000
00003F1FC00000
00003F9FC00000
00003FBF800000
00001FBF800000
00001FFF800000
00001FFF000000
00000FFF000000
00000FFF000000
00000FFE000000
000007FE000000
000007FE000000
000007FC000000
ENDCHAR
STARTCHAR 0057
ENCODING 87
SWIDTH 933 0
DWIDTH 83 0
BBX 80 64 2 0
BITMAP
FC0000000FE00000007F
FE0000000FE0000000FE
FE0000001FF0000000FE
FE0000001FF0000000FE
7F0000001FF0000000FC
7F0000001FF8000001FC
7F0000003FF8000001FC
3F0000003FF8000001FC
3F8000003FF8000003F8
3F8000007FFC000003F8
3F8000007FFC000003F8
1FC000007FFC000003F0
1FC000007EFE000007F0
1FC00000FEFE000007F0
0FC00000FEFE000007F0
0FE00000FC7E00000FE0
0FE00001FC7F00000FE0
0FE00001FC7F00000FE0
07F00001FC3F00000FC0
07F00001F83F80001FC0
07F00003F83F80001FC0
03F00003F83F80001F80
03F80003F01F80003F80
03F80003F01FC0003F80
01F80007F01FC0003F80
01FC0007F00FC0003F00
01FC0007E00FE0007F00
01FC000FE00FE0007F00
00FC000FE00FE0007E00
00FE000FC007E0007E00
00FE000FC007F000FE00
007E001FC007F000FE00
007E001FC003F000FC00
007F001F8003F001FC00
007F003F8003F801FC00
003F003F8003F801F800
003F803F0001F801F800
003F803F0001FC03F800
001F807F0001FC03F800
001F807F0000FC03F000
001FC07E0000FC07F000
001FC0FE0000FE07F000
000FC0FE0000FE07E000
000FE0FC00007E07E000
000FE0FC00007F0FE000
0007E1FC00007F0FE000
0007E1FC00003F0FC000
0007F1F800003F1FC000
0007F3F800003F9FC000
0003F3F800003F9F8000
0003FBF000001F9F8000
0003FBF000001FFF8000
0001FFF000001FFF8000
0001FFF000000FFF0000
0001FFE000000FFF0000
0001FFE000000FFF0000
0000FFE000000FFE0000
0000FFC0000007FE0000
0000FFC0000007FE0000
00007FC0000007FE0000
00007FC0000003FC0000
00007F80000003FC0000
00003F80000003FC0000
00003F80000001F80000
ENDCHAR
STARTCHAR 0058
ENCODING 88
SWIDTH 607 0
DWIDTH 54 0
BBX 52 64 1 0
BITMAP
7F800000001FE0
7F800000003FC0
3FC00000003FC0
1FE00000007F80
0FE0000000FF00
0FF0000000FF00
07F8000001FE00
03F8000003FC00
03FC000003FC00
01FE000007F800
00FE00000FF000
00FF00000FF000
007F80001FE000
003F80003FC000
003FC0003FC000
001FE0007F8000
000FE000FF0000
000FF000FE0000
0007F801FE0000
0003F803FC0000
0003FC03F80000
0001FE07F80000
0000FE0FF00000
00007F0FE00000
00007F9FE00000
00003FBFC00000
00001FFF800000
00001FFF800000
00000FFF000000
000007FE000000
000007FE000000
000003FC000000
000007FC000000
000007FE000000
00000FFF000000
00001FFF800000
00001FFF800000
00003FFFC00000
00007F9FE00000
00007F0FE00000
0000FF0FF00000
0001FE07F80000
0001FC03F80000
0003FC03FC0000
0007F801FE0000
0007F000FE0000
000FF000FF0000
001FE0007F8000
003FC0003F8000
003FC0003FC000
007F80001FE000
00FF00000FE000
00FF00000FF000
01FE000007F800
03FC000003F800
03FC000003FC00
07F8000001FE00
0FF0000000FF00
0FF0000000FF00
1FE00000007F80
3FC00000003FC0
3FC00000003FC0
7F800000001FE0
FF000000000FF0
ENDCHAR
STARTCHAR 0059
ENCODING 89
SWIDTH 551 0
DWIDTH 49 0
BBX 49 64 0 0
BITMAP
FF000000003F80
7F000000007F80
7F80000000FF00
3FC0000000FE00
1FC0000001FE00
1FE0000001FC00
0FE0000003FC00
0FF0000003F800
07F0000007F800
07F800000FF000
03FC00000FE000
01FC00001FE000
01FE00001FC000
00FE00003FC000
00FF00003F8000
007F80007F8000
007F8000FF0000
003FC000FE0000
001FC001FE0000
001FE001FC0000
000FE003FC0000
000FF007F80000
0007F807F80000
0003F80FF00000
0003FC0FE00000
0001FC1FE00000
0001FE1FC00000
0000FE3FC00000
0000FF7F800000
00007FFF000000
00003FFF000000
00003FFE000000
00001FFE000000
00001FFC000000
00000FFC000000
00000FF8000000
000007F0000000
000007F0000000
000007F0000000
000007F0000000
000007F0000000
000007F0000000
000007F0000000
000007F0000000
000007F0000000
000007F0000000
000007F0000000
000007F0000000
000007F0000000
000007F0000000
000007F0000000
000007F0000000
000007F0000000
000007F0000000
000007F0000000
000007F0000000
000007F0000000
000007F0000000
000007F0000000
000007F0000000
000007F0000000
000007F0000000
000007F0000000
000007F0000000
ENDCHAR
STARTCHAR 005A
ENCODING 90
SWIDTH 618 0
DWIDTH 55 0
BBX 46 64 4 0
BITMAP
7FFFFFFFFFFC
7FFFFFFFFFFC
7FFFFFFFFFFC
7FFFFFFFFFF8
7FFFFFFFFFF0
7FFFFFFFFFF0
000000001FE0
000000001FC0
000000003FC0
000000007F80
000000007F80
00000000FF00
00000000FE00
00000001FE00
00000003FC00
00000003F800
00000007F800
0000000FF000
0000000FF000
0000001FE000
0000001FC000
0000003FC000
0000007F8000
0000007F8000
000000FF0000
000001FE0000
000001FE0000
000003FC0000
000003F80000
000007F80000
00000FF00000
00000FF00000
00001FE00000
00001FC00000
00003FC00000
00007F800000
00007F000000
0000FF000000
0001FE000000
0001FE000000
0003FC000000
0003F8000000
0007F8000000
000FF0000000
000FF0000000
001FE0000000
003FC0000000
003FC0000000
007F80000000
007F00000000
00FF00000000
01FE00000000
01FE00000000
03FC00000000
07F800000000
07F800000000
0FF000000000
0FF000000000
1FFFFFFFFFFC
3FFFFFFFFFFC
3FFFFFFFFFFC
7FFFFFFFFFFC
7FFFFFFFFFFC
FFFFFFFFFFFC
ENDCHAR
STARTCHAR 005B
ENCODING 91
SWIDTH 405 0
DWIDTH 36 0
BBX 17 98 12 -19
BITMAP
FFFF80
FFFF80
FFFF80
FFFF80
FFFF80
FFFF80
FC0000
FC0000
FC0000
FC0000
FC0000
FC0000
FC0000
FC0000
FC0000
FC0000
FC0000
FC0000
FC0000
FC0000
FC0000
FC0000
FC0000
FC0000
FC0000
FC0000
FC0000
FC0000
FC0000
FC0000
FC0000
FC0000
FC0000
FC0000
FC0000
FC0000
FC0000
FC0000
FC0000
FC0000
FC0000
FC0000
FC0000
FC0000
FC0000
FC0000
FC0000
FC0000
FC0000
FC0000
FC0000
FC0000
FC0000
FC0000
FC0000
FC0000
FC0000
FC0000
FC0000
FC0000
FC0000
FC0000
FC0000
FC0000
FC0000
FC0000
FC0000
FC0000
FC0000
FC0000
FC0000
FC0000
FC0000
FC0000
FC0000
FC0000
FC0000
FC0000
FC0000
FC0000
FC0000
FC0000
FC0000
FC0000
FC0000
FC0000
FC0000
FC0000
FC0000
FC0000
FC0000
FC0000
FFFF80
FFFF80
FFFF80
FFFF80
FFFF80
FFFF80
ENDCHAR
STARTCHAR 005C
ENCODING 92
SWIDTH 382 0
DWIDTH 34 0
BBX 24 64 5 0
BITMAP
FE0000
7E0000
7F0000
7F0000
3F0000
3F8000
3F8000
3F8000
1F8000
1FC000
1FC000
1FC000
0FC000
0FE000
0FE000
0FE000
07E000
07F000
07F000
03F000
03F800
03F800
03F800
01F800
01FC00
01FC00
01FC00
00FC00
00FE00
00FE00
00FE00
007E00
007F00
007F00
003F00
003F80
003F80
003F80
001F80
001FC0
001FC0
001FC0
000FC0
000FE0
000FE0
000FE0
0007E0
0007F0
0007F0
0003F0
0003F8
0003F8
0003F8
0001F8
0001FC
0001FC
0001FC
0000FC
0000FE
0000FE
0000FE
00007E
00007F
00007F
ENDCHAR
STARTCHAR 005D
ENCODING 93
SWIDTH 405 0
DWIDTH 36 0
BBX 17 98 7 -19
BITMAP
FFFF80
FFFF80
FFFF80
FFFF80
FFFF80
FFFF80
001F80
001F80
001F80
001F80
001F80
001F80
001F80
001F80
001F80
001F80
001F80
001F80
001F80
001F80
001F80
001F80
001F80
001F80
001F80
001F80
001F80
001F80
001F80
001F80
001F80
001F80
001F80
001F80
001F80
001F80
001F80
001F80
001F80
001F80
001F80
001F80
001F80
001F80
001F80
001F80
001F80
001F80
001F80
001F80
001F80
001F80
001F80
001F80
001F80
001F80
001F80
001F80
001F80
001F80
001F80
001F80
001F80
001F80
001F80
001F80
001F80
001F80
001F80
001F80
001F80
001F80
001F80
001F80
001F80
001F80
001F80
001F80
001F80
001F80
001F80
001F80
001F80
001F80
001F80
001F80
001F80
001F80
001F80
001F80
001F80
001F80
FFFF80
FFFF80
FFFF80
FFFF80
FFFF80
FFFF80
ENDCHAR
STARTCHAR 005E
ENCODING 94
SWIDTH 675 0
DWIDTH 60 0
BBX 41 25 10 40
BITMAP
000008000000
00001C000000
00003E000000
00007F000000
0000FF800000
0001FFC00000
0003FFE00000
0007FFF00000
000FF7F80000
001FE3FC0000
003FC1FE0000
007F80FF0000
00FF007F8000
01FE003FC000
03FC001FE000
07F8000FF000
0FF00007F800
1FE00003FC00
3FC00001FE00
7F800000FF00
FF0000007F80
FE0000003F00
7C0000003E00
380000001C00
100000000800
ENDCHAR
STARTCHAR 005F
ENCODING 95
SWIDTH 663 0
DWIDTH 59 0
BBX 59 6 0 -10
BITMAP
FFFFFFFFFFFFFFE0
FFFFFFFFFFFFFFE0
FFFFFFFFFFFFFFE0
FFFFFFFFFFFFFFE0
FFFFFFFFFFFFFFE0
FFFFFFFFFFFFFFE0
ENDCHAR
STARTCHAR 0060
ENCODING 96
SWIDTH 495 0
DWIDTH 44 0
BBX 11 14 15 71
BITMAP
FC00
7C00
7E00
3E00
3F00
3F00
1F00
1F80
0F80
0FC0
0FC0
07C0
07E0
07E0
ENDCHAR
STARTCHAR 0061
ENCODING 97
SWIDTH 551 0
DWIDTH 49 0
BBX 40 50 4 -1
BITMAP
0001FFC000
000FFFFC00
003FFFFF00
00FFFFFFC0
01FFFFFFE0
03FFFFFFF0
07FF807FF8
0FFC000FFC
1FF00003FC
1FE00001FE
3FC00000FE
3F800000FE
3F8000007F
3F0000007F
030000007F
000000007F
000000003F
000000003F
000000003F
0000001FFF
00000FFFFF
0003FFFFFF
003FFFFFFF
00FFFFFFFF
03FFFFFF3F
0FFFFF003F
1FFFC0007F
3FFC00007F
3FE000007F
7F8000007F
FF0000007F
FE0000007F
FE0000007F
FC0000007F
FC000000FF
FC000000FF
FC000001FF
FC000001FF
FC000003FF
FE000007FF
FF00000FFF
7F00001FFF
7FC0007FBF
3FE001FF3F
3FFFFFFE3F
1FFFFFFC3F
0FFFFFF83F
03FFFFE03F
00FFFF803F
001FF80000
ENDCHAR
STARTCHAR 0062
ENCODING 98
SWIDTH 596 0
DWIDTH 53 0
BBX 43 65 6 -1
BITMAP
FE0000000000
FE0000000000
FE0000000000
FE0000000000
FE0000000000
FE0000000000
FE0000000000
FE0000000000
FE0000000000
FE0000000000
FE0000000000
FE0000000000
FE0000000000
FE0000000000
FE0000000000
FE007FE00000
FE03FFFC0000
FE0FFFFF0000
FE3FFFFFC000
FE7FFFFFE000
FEFFFFFFF000
FFFF807FF800
FFFC000FFC00
FFF80007FC00
FFE00001FE00
FFC00000FF00
FFC00000FF00
FF8000007F80
FF0000003F80
FF0000003F80
FF0000001FC0
FE0000001FC0
FE0000001FC0
FE0000001FC0
FC0000000FE0
FC0000000FE0
FC0000000FE0
FC0000000FE0
FC0000000FE0
FC0000000FE0
FC0000000FE0
FC0000000FE0
FC0000000FE0
FC0000000FE0
FC0000000FE0
FC0000000FE0
FE0000001FC0
FE0000001FC0
FE0000001FC0
FF0000003FC0
FF0000003F80
FF0000003F80
FF8000007F80
FFC00000FF00
FFC00001FF00
FFE00003FE00
FFF80007FC00
FFFC000FFC00
FDFF807FF800
FCFFFFFFF000
FC7FFFFFE000
FC3FFFFFC000
FC0FFFFF0000
FC03FFFC0000
00007FE00000
ENDCHAR
STARTCHAR 0063
ENCODING 99
SWIDTH 551 0
DWIDTH 49 0
BBX 42 50 4 -1
BITMAP
00007FE00000
0007FFFE0000
001FFFFF8000
007FFFFFE000
00FFFFFFF000
01FFFFFFF800
03FFF07FFC00
07FF000FFE00
0FFC0003FF00
0FF00000FF80
1FE000007F80
3FC000003FC0
3FC000003FC0
3F8000001F80
7F8000000C00
7F0000000000
7F0000000000
FE0000000000
FE0000000000
FE0000000000
FE0000000000
FE0000000000
FE0000000000
FE0000000000
FC0000000000
FC0000000000
FE0000000000
FE0000000000
FE0000000000
FE0000000000
FE0000000000
FE0000000000
FE0000000000
7F0000000000
7F0000000000
7F8000001800
3F8000001F80
3FC000003FC0
3FC000003FC0
1FE000007F80
0FF00000FF00
0FFC0003FF00
07FF0007FE00
03FFF07FFC00
01FFFFFFF800
00FFFFFFF000
007FFFFFE000
001FFFFF8000
0007FFFE0000
00007FE00000
ENDCHAR
STARTCHAR 0064
ENCODING 100
SWIDTH 596 0
DWIDTH 53 0
BBX 42 65 4 -1
BITMAP
000000000FC0
000000000FC0
000000000FC0
000000000FC0
000000000FC0
000000000FC0
000000000FC0
000000000FC0
000000000FC0
000000000FC0
000000000FC0
000000000FC0
000000000FC0
000000000FC0
000000000FC0
0000FF800FC0
0007FFF80FC0
001FFFFE0FC0
007FFFFF0FC0
00FFFFFF8FC0
01FFFFFFEFC0
03FFC07FEFC0
07FE000FFFC0
0FF80003FFC0
1FF00001FFC0
1FE00000FFC0
3FC000007FC0
3FC000003FC0
3F8000003FC0
7F0000001FC0
7F0000001FC0
7F0000001FC0
FE0000000FC0
FE0000000FC0
FE0000000FC0
FE0000000FC0
FE0000000FC0
FE0000000FC0
FE00000007C0
FC00000007C0
FC00000007C0
FE00000007C0
FE0000000FC0
FE0000000FC0
FE0000000FC0
FE0000000FC0
FE0000000FC0
FE0000000FC0
7F0000001FC0
7F0000001FC0
7F8000001FC0
3F8000003FC0
3FC000003FC0
3FC000007FC0
1FE00000FFC0
1FF00001FFC0
0FF80003FFC0
07FE000FF7C0
03FFC07FE7C0
01FFFFFFE7C0
00FFFFFF87C0
007FFFFF07C0
001FFFFE07C0
0007FFF807C0
0000FF800000
ENDCHAR
STARTCHAR 0065
ENCODING 101
SWIDTH 585 0
DWIDTH 52 0
BBX 44 50 4 -1
BITMAP
00007FE00000
0003FFFE0000
001FFFFF8000
003FFFFFE000
00FFFFFFF000
01FFFFFFF800
03FFC01FFC00
07FE0003FE00
0FF80001FF00
0FF000007F00
1FE000007F80
1FC000003FC0
3F8000001FC0
3F8000001FC0
7F0000000FE0
7F0000000FE0
7F00000007E0
FE00000007F0
FE00000007F0
FE00000007F0
FE00000007F0
FE00000007F0
FFFFFFFFFFF0
FFFFFFFFFFF0
FFFFFFFFFFF0
FFFFFFFFFFF0
FFFFFFFFFFF0
FE0000000000
FE0000000000
FE0000000000
FE0000000000
FE0000000000
FE0000000000
7F0000000000
7F0000000000
7F0000000600
3F8000000FC0
3FC000000FE0
3FC000001FE0
1FE000003FC0
0FF000007F80
0FFC0001FF80
07FE0007FF00
03FFE07FFE00
01FFFFFFFC00
00FFFFFFF800
003FFFFFE000
001FFFFF8000
0003FFFE0000
00007FF00000
ENDCHAR
STARTCHAR 0066
ENCODING 102
SWIDTH 360 0
DWIDTH 32 0
BBX 28 65 3 0
BITMAP
0000FFF0
0003FFF0
000FFFF0
001FFFF0
003FFFF0
007FFFF0
007F8000
007F0000
00FE0000
00FE0000
00FE0000
00FE0000
00FE0000
00FE0000
00FE0000
00FE0000
00FE0000
FFFFFFF0
FFFFFFF0
FFFFFFF0
FFFFFFF0
FFFFFFF0
FFFFFFF0
00FE0000
00FE0000
00FE0000
00FE0000
00FE0000
00FE0000
00FE0000
00FE0000
00FE0000
00FE0000
00FE0000
00FE0000
00FE0000
00FE0000
00FE0000
00FE0000
00FE0000
00FE0000
00FE0000
00FE0000
00FE0000
00FE0000
00FE0000
00FE0000
00FE0000
00FE0000
00FE0000
00FE0000
00FE0000
00FE0000
00FE0000
00FE0000
00FE0000
00FE0000
00FE0000
00FE0000
00FE0000
00FE0000
00FE0000
00FE0000
00FE0000
00FE0000
ENDCHAR
STARTCHAR 0067
ENCODING 103
SWIDTH 596 0
DWIDTH 53 0
BBX 42 71 4 -22
BITMAP
0000FF800000
0007FFF807C0
001FFFFE07C0
007FFFFF07C0
00FFFFFFC7C0
01FFFFFFE7C0
03FFC07FF7C0
07FE000FFFC0
0FF80003FFC0
1FF00001FFC0
1FE00000FFC0
3FC000007FC0
3FC000003FC0
3F8000003FC0
7F0000001FC0
7F0000001FC0
7F0000001FC0
FE0000000FC0
FE0000000FC0
FE0000000FC0
FE0000000FC0
FE0000000FC0
FE0000000FC0
FE00000007C0
FC00000007C0
FC00000007C0
FE00000007C0
FE0000000FC0
FE0000000FC0
FE0000000FC0
FE0000000FC0
FE0000000FC0
FE0000000FC0
7F0000001FC0
7F0000001FC0
7F8000001FC0
3F8000003FC0
3FC000003FC0
3FC000007FC0
1FE00000FFC0
1FF00001FFC0
0FF80003FFC0
07FE000FFFC0
03FFC07FEFC0
01FFFFFFCFC0
00FFFFFF8FC0
007FFFFF0FC0
001FFFFE0FC0
0007FFF80FC0
0000FFC00FC0
000000000FC0
000000000FC0
000000000FC0
000000001FC0
000000001FC0
000000001FC0
000000001FC0
000000003F80
038000003F80
078000007F80
1FC000007F80
1FE00000FF00
1FF80001FF00
0FFC0007FE00
07FF803FFC00
03FFFFFFFC00
01FFFFFFF800
00FFFFFFE000
003FFFFFC000
000FFFFF0000
0001FFF80000
ENDCHAR
STARTCHAR 0068
ENCODING 104
SWIDTH 596 0
DWIDTH 53 0
BBX 41 64 6 0
BITMAP
FC0000000000
FC0000000000
FC0000000000
FC0000000000
FC0000000000
FC0000000000
FC0000000000
FC0000000000
FC0000000000
FC0000000000
FC0000000000
FC0000000000
FC0000000000
FC0000000000
FC0000000000
FC007FE00000
FC03FFFC0000
FC0FFFFF0000
FC3FFFFFC000
FC7FFFFFE000
FCFFFFFFF000
FDFFC0FFF800
FFFE001FF800
FFF80007FC00
FFF00003FE00
FFE00001FE00
FFC00000FE00
FF800000FF00
FF8000007F00
FF0000007F00
FF0000003F80
FF0000003F80
FE0000003F80
FE0000003F80
FE0000001F80
FE0000001F80
FE0000001F80
FE0000001F80
FE0000001F80
FE0000001F80
FE0000001F80
FE0000001F80
FE0000001F80
FE0000001F80
FE0000001F80
FE0000001F80
FE0000001F80
FE0000001F80
FE0000001F80
FE0000001F80
FE0000001F80
FE0000001F80
FE0000001F80
FE0000001F80
FE0000001F80
FE0000001F80
FE0000001F80
FE0000001F80
FE0000001F80
FE0000001F80
FE0000001F80
FE0000001F80
FE0000001F80
FE0000001F80
ENDCHAR
STARTCHAR 0069
ENCODING 105
SWIDTH 236 0
DWIDTH 21 0
BBX 7 64 7 0
BITMAP
FE
FE
FE
FE
FE
FE
FE
00
00
00
00
00
00
00
00
00
FE
FE
FE
FE
FE
FE
FE
FE
FE
FE
FE
FE
FE
FE
FE
FE
FE
FE
FE
FE
FE
FE
FE
FE
FE
FE
FE
FE
FE
FE
FE
FE
FE
FE
FE
FE
FE
FE
FE
FE
FE
FE
FE
FE
FE
FE
FE
FE
ENDCHAR
STARTCHAR 006A
ENCODING 106
SWIDTH 247 0
DWIDTH 22 0
BBX 16 85 -1 -21
BITMAP
003F
003F
003F
003F
003F
003F
003F
0000
0000
0000
0000
0000
0000
0000
0000
0000
003F
003F
003F
003F
003F
003F
003F
003F
003F
003F
003F
003F
003F
003F
003F
003F
003F
003F
003F
003F
003F
003F
003F
003F
003F
003F
003F
003F
003F
003F
003F
003F
003F
003F
003F
003F
003F
003F
003F
003F
003F
003F
003F
003F
003F
003F
003F
003F
003F
003F
003F
003F
003F
003F
003F
003F
003F
003F
003F
007F
007F
00FF
03FF
FFFE
FFFE
FFFC
FFF8
FFF0
FFC0
ENDCHAR
STARTCHAR 006B
ENCODING 107
SWIDTH 495 0
DWIDTH 44 0
BBX 39 64 6 0
BITMAP
FE00000000
FE00000000
FE00000000
FE00000000
FE00000000
FE00000000
FE00000000
FE00000000
FE00000000
FE00000000
FE00000000
FE00000000
FE00000000
FE00000000
FE00000000
FE00000000
FE00000FF0
FE00001FF0
FE00003FE0
FE00007FC0
FE0000FF80
FE0001FF00
FE0003FE00
FE0007FC00
FE000FF800
FE001FF000
FE003FE000
FE003FC000
FE007F8000
FE00FF0000
FE01FE0000
FE03FC0000
FE07F80000
FE0FF80000
FE1FF00000
FE3FE00000
FE7FC00000
FEFF800000
FFFF000000
FFFE000000
FFFE000000
FFFF000000
FEFF800000
FE7FC00000
FE3FE00000
FE1FF00000
FE07F80000
FE03FC0000
FE01FE0000
FE00FF8000
FE007FC000
FE003FE000
FE001FF000
FE000FF800
FE0007FC00
FE0003FE00
FE0001FF00
FE0000FF80
FE00007FC0
FE00003FE0
FE00001FF0
FE00000FF8
FE000007FC
FE000003FE
ENDCHAR
STARTCHAR 006C
ENCODING 108
SWIDTH 236 0
DWIDTH 21 0
BBX 7 64 7 0
BITMAP
FE
FE
FE
FE
FE
FE
FE
FE
FE
FE
FE
FE
FE
FE
FE
FE
FE
FE
FE
FE
FE
FE
FE
FE
FE
FE
FE
FE
FE
FE
FE
FE
FE
FE
FE
FE
FE
FE
FE
FE
FE
FE
FE
FE
FE
FE
FE
FE
FE
FE
FE
FE
FE
FE
FE
FE
FE
FE
FE
FE
FE
FE
FE
FE
ENDCHAR
STARTCHAR 006D
ENCODING 109
SWIDTH 843 0
DWIDTH 75 0
BBX 64 49 6 0
BITMAP
0001FF00000FF000
FC0FFFE0007FFE00
FC3FFFF801FFFF80
FC7FFFFC07FFFFE0
FCFFFFFE0FFFFFF0
FDFFFFFF1FFFFFF8
FFFC03FF9FE03FF8
FFF000FFBF800FFC
FFE0007FFE0003FC
FFC0003FFC0001FE
FF80001FF80000FE
FF00001FF80000FE
FF00000FF000007F
FE00000FF000007F
FE000007F000007F
FE000007F000007F
FE000007E000007F
FE000007E000007F
FE000007E000003F
FE000007E000003F
FE000007E000003F
FE000007E000003F
FE000007E000003F
FE000007E000003F
FE000007E000003F
FE000007E000003F
FE000007E000003F
FE000007E000003F
FE000007E000003F
FE000007E000007F
FE000007E000007F
FE000007E000007F
FE000007E000007F
FE000007E000007F
FE000007E000007F
FE000007E000007F
FE000007E000007F
FE000007E000007F
FE000007E000007F
FE000007E000007F
FE000007E000007F
FE000007E000007F
FE000007E000007F
FE000007E000007F
FE000007E000007F
FE000007E000007F
FE000007E000007F
FE000007E000007F
FE000007E000007F
ENDCHAR
STARTCHAR 006E
ENCODING 110
SWIDTH 596 0
DWIDTH 53 0
BBX 41 49 6 0
BITMAP
00007FE00000
FC03FFFC0000
FC0FFFFF0000
FC3FFFFFC000
FC7FFFFFE000
FCFFFFFFF000
FDFFC0FFF800
FFFE001FF800
FFF80007FC00
FFF00003FE00
FFE00001FE00
FFC00000FE00
FF800000FF00
FF8000007F00
FF0000007F00
FF0000003F80
FF0000003F80
FE0000003F80
FE0000003F80
FE0000001F80
FE0000001F80
FE0000001F80
FE0000001F80
FE0000001F80
FE0000001F80
FE0000001F80
FE0000001F80
FE0000001F80
FE0000001F80
FE0000001F80
FE0000001F80
FE0000001F80
FE0000001F80
FE0000001F80
FE0000001F80
FE0000001F80
FE0000001F80
FE0000001F80
FE0000001F80
FE0000001F80
FE0000001F80
FE0000001F80
FE0000001F80
FE0000001F80
FE0000001F80
FE0000001F80
FE0000001F80
FE0000001F80
FE0000001F80
ENDCHAR
STARTCHAR 006F
ENCODING 111
SWIDTH 596 0
DWIDTH 53 0
BBX 45 50 4 -1
BITMAP
00007FE00000
0003FFFE0000
001FFFFF8000
003FFFFFE000
00FFFFFFF000
01FFFFFFFC00
03FFF07FFE00
07FF0007FE00
0FFC0001FF00
0FF00000FF80
1FE000007FC0
3FC000003FC0
3FC000001FE0
3F8000000FE0
7F0000000FE0
7F0000000FF0
7F00000007F0
FE00000007F0
FE00000007F0
FE00000003F8
FE00000003F8
FE00000003F8
FE00000003F8
FC00000003F8
FC00000003F8
FC00000003F8
FE00000003F8
FE00000003F8
FE00000003F8
FE00000003F8
FE00000003F8
FE00000007F0
FE00000007F0
7F00000007F0
7F0000000FF0
7F8000000FE0
3F8000001FE0
3FC000001FE0
3FC000003FC0
1FE000007FC0
0FF00000FF80
0FFC0001FF00
07FF0007FE00
03FFF07FFE00
01FFFFFFFC00
00FFFFFFF000
003FFFFFE000
001FFFFF8000
0003FFFE0000
00007FF00000
ENDCHAR
STARTCHAR 0070
ENCODING 112
SWIDTH 596 0
DWIDTH 53 0
BBX 43 70 6 -21
BITMAP
00007FE00000
FC03FFFC0000
FC0FFFFF0000
FC3FFFFFC000
FC7FFFFFE000
FCFFFFFFF000
FDFF807FF800
FFFC000FFC00
FFF80007FC00
FFE00001FE00
FFC00000FF00
FFC00000FF00
FF8000007F80
FF0000003F80
FF0000003F80
FF0000001FC0
FE0000001FC0
FE0000001FC0
FE0000001FC0
FC0000000FE0
FC0000000FE0
FC0000000FE0
FC0000000FE0
FC0000000FE0
FC0000000FE0
FC0000000FE0
FC0000000FE0
FC0000000FE0
FC0000000FE0
FC0000000FE0
FC0000000FE0
FE0000001FC0
FE0000001FC0
FE0000001FC0
FF0000003FC0
FF0000003F80
FF0000003F80
FF8000007F80
FFC00000FF00
FFC00001FF00
FFE00003FE00
FFF80007FC00
FFFC000FFC00
FFFF807FF800
FEFFFFFFF000
FE7FFFFFE000
FE3FFFFFC000
FE0FFFFF0000
FE03FFFC0000
FE007FE00000
FE0000000000
FE0000000000
FE0000000000
FE0000000000
FE0000000000
FE0000000000
FE0000000000
FE0000000000
FE0000000000
FE0000000000
FE0000000000
FE0000000000
FE0000000000
FE0000000000
FE0000000000
FE0000000000
FE0000000000
FE0000000000
FE0000000000
FE0000000000
ENDCHAR
STARTCHAR 0071
ENCODING 113
SWIDTH 596 0
DWIDTH 53 0
BBX 42 70 4 -21
BITMAP
0000FF800000
0007FFF807C0
001FFFFE07C0
007FFFFF07C0
00FFFFFFC7C0
01FFFFFFE7C0
03FFC07FF7C0
07FE000FFFC0
0FF80003FFC0
1FF00001FFC0
1FE00000FFC0
3FC000007FC0
3FC000003FC0
3F8000003FC0
7F0000001FC0
7F0000001FC0
7F0000001FC0
FE0000000FC0
FE0000000FC0
FE0000000FC0
FE0000000FC0
FE0000000FC0
FE0000000FC0
FE00000007C0
FC00000007C0
FC00000007C0
FE00000007C0
FE0000000FC0
FE0000000FC0
FE0000000FC0
FE0000000FC0
FE0000000FC0
FE0000000FC0
7F0000001FC0
7F0000001FC0
7F8000001FC0
3F8000003FC0
3FC000003FC0
3FC000007FC0
1FE00000FFC0
1FF00001FFC0
0FF80003FFC0
07FE000FFFC0
03FFC07FEFC0
01FFFFFFEFC0
00FFFFFF8FC0
007FFFFF0FC0
001FFFFE0FC0
0007FFF80FC0
0000FFC00FC0
000000000FC0
000000000FC0
000000000FC0
000000000FC0
000000000FC0
000000000FC0
000000000FC0
000000000FC0
000000000FC0
000000000FC0
000000000FC0
000000000FC0
000000000FC0
000000000FC0
000000000FC0
000000000FC0
000000000FC0
000000000FC0
000000000FC0
000000000FC0
ENDCHAR
STARTCHAR 0072
ENCODING 114
SWIDTH 360 0
DWIDTH 32 0
BBX 24 48 6 1
BITMAP
FC00FF
FC07FF
FC1FFF
FC3FFF
FC7FFF
FCFFFF
FDFF81
FFFC00
FFF800
FFE000
FFC000
FFC000
FF8000
FF8000
FF0000
FF0000
FF0000
FE0000
FE0000
FE0000
FE0000
FE0000
FE0000
FE0000
FE0000
FE0000
FE0000
FE0000
FE0000
FE0000
FE0000
FE0000
FE0000
FE0000
FE0000
FE0000
FE0000
FE0000
FE0000
FE0000
FE0000
FE0000
FE0000
FE0000
FE0000
FE0000
FE0000
FE0000
ENDCHAR
STARTCHAR 0073
ENCODING 115
SWIDTH 528 0
DWIDTH 47 0
BBX 39 50 4 -1
BITMAP
0003FF8000
003FFFF000
00FFFFFE00
03FFFFFF00
07FFFFFFC0
0FFFFFFFE0
1FFC01FFF0
1FF0003FF0
3FC0000FF8
3F800007FC
7F000003FC
7F000001FC
7F000000FE
7F000000FE
7F000000F0
7F00000000
7F80000000
3FC0000000
3FF0000000
1FFC000000
0FFF800000
07FFF80000
03FFFF8000
00FFFFF000
001FFFFE00
0003FFFF80
00007FFFE0
000007FFF0
000000FFF8
0000001FFC
00000007FC
00000001FC
00000000FE
00000000FE
00000000FE
04000000FE
FE000000FE
FE000000FE
FF000000FE
FF000001FE
7F800003FC
7FE00007FC
3FF8000FF8
1FFF007FF8
0FFFFFFFF0
07FFFFFFE0
03FFFFFFC0
00FFFFFF00
001FFFFC00
0003FFC000
ENDCHAR
STARTCHAR 0074
ENCODING 116
SWIDTH 405 0
DWIDTH 36 0
BBX 31 62 1 -2
BITMAP
003F8000
003F8000
003F8000
003F8000
003F8000
003F8000
003F8000
003F8000
003F8000
003F8000
003F8000
003F8000
003F8000
FFFFFFFE
FFFFFFFE
FFFFFFFE
FFFFFFFE
FFFFFFFE
FFFFFFFE
003F8000
003F8000
003F8000
003F8000
003F8000
003F8000
003F8000
003F8000
003F8000
003F8000
003F8000
003F8000
003F8000
003F8000
003F8000
003F8000
003F8000
003F8000
003F8000
003F8000
003F8000
003F8000
003F8000
003F8000
003F8000
003F8000
003F8000
003F8000
003F8000
003F8000
003F8000
003F8000
003F8000
001FC000
001FC000
001FF000
000FFC00
000FFFFE
0007FFFE
0003FFFE
0001FFFE
00007FFE
00000FFC
ENDCHAR
STARTCHAR 0075
ENCODING 117
SWIDTH 596 0
DWIDTH 53 0
BBX 42 49 5 -1
BITMAP
FE0000001FC0
FE0000001FC0
FE0000001FC0
FE0000001FC0
FE0000001FC0
FE0000001FC0
FE0000001FC0
FE0000001FC0
FE0000001FC0
FE0000001FC0
FE0000001FC0
FE0000001FC0
FE0000001FC0
FE0000001FC0
FE0000001FC0
FE0000001FC0
FE0000001FC0
FE0000001FC0
FE0000001FC0
FE0000001FC0
FE0000001FC0
FE0000001FC0
FE0000001FC0
FE0000001FC0
FE0000001FC0
FE0000001FC0
FE0000001FC0
FE0000001FC0
FE0000001FC0
FE0000001FC0
7E0000001FC0
7F0000003FC0
7F0000003FC0
7F0000003FC0
7F8000007FC0
3F8000007FC0
3F8000007FC0
3FC00000FFC0
1FE00001FFC0
1FF00003FFC0
0FF80007FFC0
0FFE001FEFC0
07FFC0FFEFC0
03FFFFFFCFC0
01FFFFFF8FC0
00FFFFFF0FC0
003FFFFC0FC0
000FFFF00FC0
0001FF800000
ENDCHAR
STARTCHAR 0076
ENCODING 118
SWIDTH 506 0
DWIDTH 45 0
BBX 41 48 2 0
BITMAP
FE0000003F80
FE0000003F80
7E0000003F00
7F0000007F00
7F0000007F00
3F0000007E00
3F800000FE00
3F800000FE00
1F800000FC00
1FC00001FC00
0FC00001FC00
0FE00001F800
0FE00003F800
07E00003F000
07F00007F000
07F00007F000
03F00007E000
03F8000FE000
03F8000FE000
01F8000FC000
01FC001FC000
00FC001FC000
00FC001F8000
00FE003F8000
007E003F0000
007F003F0000
007F007F0000
003F007E0000
003F80FE0000
003F80FE0000
001F80FC0000
001FC1FC0000
000FC1FC0000
000FC1F80000
000FE3F80000
0007E3F00000
0007F3F00000
0007F7F00000
0003F7E00000
0003FFE00000
0003FFE00000
0001FFC00000
0001FFC00000
0000FFC00000
0000FF800000
0000FF800000
00007F800000
00007F000000
ENDCHAR
STARTCHAR 0077
ENCODING 119
SWIDTH 765 0
DWIDTH 68 0
BBX 64 48 2 0
BITMAP
FC000007E000003F
FE000007F000007F
7E00000FF000007F
7E00000FF000007E
7F00000FF000007E
7F00001FF80000FE
3F00001FF80000FC
3F80001FF80000FC
3F80003FFC0001FC
1F80003FFC0001FC
1FC0003FFC0001F8
1FC0003F7E0003F8
0FC0007E7E0003F8
0FC0007E7E0003F0
0FE0007E3F0007F0
0FE000FC3F0007F0
07E000FC3F0007E0
07F000FC3F0007E0
07F001F81F800FE0
03F001F81F800FC0
03F801F81F800FC0
03F801F00FC01FC0
01F803F00FC01FC0
01F803F00FC01F80
01FC03E007E03F80
00FC07E007E03F80
00FC07E007E03F00
00FE07E003E07F00
00FE0FC003F07F00
007E0FC003F07E00
007F0FC001F07E00
007F1F8001F8FE00
003F1F8001F8FE00
003F9F8000F8FC00
003F9F0000FDFC00
001FBF0000FDFC00
001FBF0000FDF800
001FFE00007FF800
000FFE00007FF800
000FFE00007FF000
000FFC00003FF000
000FFC00003FF000
0007FC00003FE000
0007FC00001FE000
0007F800001FE000
0003F800001FE000
0003F800000FC000
0003F000000FC000
ENDCHAR
STARTCHAR 0078
ENCODING 120
SWIDTH 528 0
DWIDTH 47 0
BBX 45 48 1 0
BITMAP
7F8000000FF0
7F8000000FE0
3FC000001FE0
1FE000003FC0
0FF000007F80
07F000007F00
07F80000FF00
03FC0001FE00
01FE0003FC00
00FE0007F800
00FF0007F000
007F800FF000
003FC01FE000
001FC03FC000
001FE03F8000
000FF07F8000
0007F8FF0000
0003FDFE0000
0001FDFC0000
0001FFF80000
0000FFF80000
00007FF00000
00003FE00000
00003FC00000
00003FE00000
00007FF00000
0000FFF00000
0000FFF80000
0001FFFC0000
0003FDFE0000
0007F8FE0000
0007F07F0000
000FF07F8000
001FE03FC000
003FC01FE000
003F800FE000
007F800FF000
00FF0007F800
01FE0003FC00
03FC0001FC00
03F80001FE00
07F80000FF00
0FF000007F80
1FE000003F80
1FC000003FC0
3FC000001FE0
7F8000000FF0
FF00000007F8
ENDCHAR
STARTCHAR 0079
ENCODING 121
SWIDTH 528 0
DWIDTH 47 0
BBX 43 69 2 -21
BITMAP
FE00000007E0
FE0000000FE0
FE0000000FC0
7F0000001FC0
7F0000001FC0
3F8000001F80
3F8000003F80
3F8000003F80
1FC000003F00
1FC000007F00
0FE000007E00
0FE00000FE00
07E00000FE00
07F00000FC00
07F00001FC00
03F80001FC00
03F80001F800
01F80003F800
01FC0003F800
01FC0003F000
00FE0007F000
00FE0007E000
007E000FE000
007F000FE000
007F000FC000
003F801FC000
003F801FC000
001F801F8000
001FC03F8000
001FC03F0000
000FE07F0000
000FE07F0000
0007E07E0000
0007F0FE0000
0003F0FE0000
0003F8FC0000
0003F9FC0000
0001F9F80000
0001FDF80000
0000FFF80000
0000FFF00000
0000FFF00000
00007FF00000
00007FE00000
00003FE00000
00003FC00000
00003FC00000
00001FC00000
00001F800000
00003F800000
00003F800000
00003F000000
00007F000000
00007E000000
00007E000000
0000FE000000
0000FC000000
0001FC000000
0001FC000000
0001F8000000
0003F8000000
0003F8000000
0003F0000000
0007F0000000
0007E0000000
000FE0000000
000FE0000000
000FC0000000
001FC0000000
ENDCHAR
STARTCHAR 007A
ENCODING 122
SWIDTH 528 0
DWIDTH 47 0
BBX 42 48 2 0
BITMAP
3FFFFFFFFFC0
3FFFFFFFFFC0
3FFFFFFFFF80
3FFFFFFFFF00
3FFFFFFFFE00
3FFFFFFFFC00
00000003FC00
00000003F800
00000007F000
0000000FE000
0000001FE000
0000001FC000
0000003F8000
0000007F0000
000000FF0000
000000FE0000
000001FC0000
000003F80000
000007F80000
00000FF00000
00000FE00000
00001FC00000
00003F800000
00007F800000
00007F000000
0000FE000000
0001FC000000
0003FC000000
0003F8000000
0007F0000000
000FE0000000
001FE0000000
001FC0000000
003F80000000
007F00000000
00FF00000000
01FE00000000
01FC00000000
03F800000000
07F000000000
0FF000000000
0FE000000000
1FFFFFFFFF00
3FFFFFFFFF00
7FFFFFFFFF00
7FFFFFFFFF00
FFFFFFFFFF00
FFFFFFFFFF00
ENDCHAR
STARTCHAR 007B
ENCODING 123
SWIDTH 416 0
DWIDTH 37 0
BBX 21 98 12 -19
BITMAP
0007F8
003FF8
007FF8
00FFF8
01FFF8
01FFF8
03FE00
03F800
03F000
03F000
03F000
03F000
03F000
03F000
03F000
03F000
03F000
03F000
03F000
03F000
03F000
03F000
03F000
03F000
03F000
03F000
03F000
03F000
03F000
03F000
03F000
03F000
03F000
03F000
03F000
03F000
03F000
03F000
03F000
03F000
07F000
07F000
0FE000
0FE000
1FE000
3FC000
3F8000
7F8000
FF0000
FF0000
7F0000
7F8000
3FC000
1FC000
0FE000
0FE000
07F000
07F000
03F000
03F000
03F000
03F000
03F000
03F000
03F000
03F000
03F000
03F000
03F000
03F000
03F000
03F000
03F000
03F000
03F000
03F000
03F000
03F000
03F000
03F000
03F000
03F000
03F000
03F000
03F000
03F000
03F000
03F000
03F000
03F000
03F800
03FC00
01FFF8
01FFF8
00FFF8
007FF8
003FF8
000FF8
ENDCHAR
STARTCHAR 007C
ENCODING 124
SWIDTH 258 0
DWIDTH 23 0
BBX 7 64 8 0
BITMAP
FE
FE
FE
FE
FE
FE
FE
FE
FE
FE
FE
FE
FE
FE
FE
FE
FE
FE
FE
FE
FE
FE
FE
FE
FE
FE
FE
FE
FE
FE
FE
FE
FE
FE
FE
FE
FE
FE
FE
FE
FE
FE
FE
FE
FE
FE
FE
FE
FE
FE
FE
FE
FE
FE
FE
FE
FE
FE
FE
FE
FE
FE
FE
FE
ENDCHAR
STARTCHAR 007D
ENCODING 125
SWIDTH 416 0
DWIDTH 37 0
BBX 21 98 4 -19
BITMAP
FF8000
FFE000
FFF000
FFF800
FFFC00
FFFE00
03FE00
00FE00
007F00
007F00
007F00
007F00
007F00
007F00
007F00
007F00
007F00
007F00
007F00
007F00
007F00
007F00
007F00
007F00
007F00
007F00
007F00
007F00
007F00
007F00
007F00
007F00
007F00
007F00
007F00
007F00
007F00
007F00
007F00
007F00
007F00
003F00
003F80
003FC0
001FC0
001FE0
000FF0
0007F0
0007F8
0003F8
0007F8
000FF0
000FE0
001FC0
003FC0
003F80
003F00
003F00
007F00
007F00
007F00
007F00
007F00
007F00
007F00
007F00
007F00
007F00
007F00
007F00
007F00
007F00
007F00
007F00
007F00
007F00
007F00
007F00
007F00
007F00
007F00
007F00
007F00
007F00
007F00
007F00
007F00
007F00
007F00
007F00
00FE00
01FE00
FFFE00
FFFC00
FFF800
FFF800
FFE000
FF8000
ENDCHAR
STARTCHAR 007E
ENCODING 126
SWIDTH 663 0
DWIDTH 59 0
BBX 39 14 10 21
BITMAP
03F8000000
0FFF0000FC
1FFFC000FC
3FFFF000FC
3FFFFC00FE
7FFFFF01FC
7FFFFFC3FC
FFDFFFFFFC
FF03FFFFFC
FE00FFFFF8
FE003FFFF8
FE000FFFF0
7E0003FFE0
000000FF80
ENDCHAR
STARTCHAR 00A0
ENCODING 160
SWIDTH 202 0
DWIDTH 18 0
BBX 0 0 0 0
BITMAP
ENDCHAR
STARTCHAR 00A1
ENCODING 161
SWIDTH 315 0
DWIDTH 28 0
BBX 6 64 11 -16
BITMAP
FC
FC
FC
FC
FC
FC
FC
00
00
00
00
00
00
00
00
00
FC
FC
FC
FC
FC
FC
FC
FC
FC
FC
FC
FC
FC
FC
FC
FC
FC
FC
FC
FC
FC
FC
FC
FC
FC
FC
FC
FC
FC
FC
FC
FC
FC
FC
FC
FC
FC
FC
FC
FC
FC
FC
FC
FC
FC
FC
FC
FC
ENDCHAR
STARTCHAR 00A2
ENCODING 162
SWIDTH 551 0
DWIDTH 49 0
BBX 42 67 4 -3
BITMAP
00000F800000
00000F800000
00000F800000
00000F800000
00000F800000
00000F800000
00000F800000
00000F800000
00007FE00000
0003FFFE0000
001FFFFF8000
003FFFFFE000
00FFFFFFF000
01FFFFFFF800
03FFF07FFC00
07FF000FFE00
0FFC0003FF00
0FF00000FF80
1FE000007F80
1FE000003FC0
3FC000003FC0
3F8000001FC0
7F8000001E00
7F0000000000
7F0000000000
FF0000000000
FE0000000000
FE0000000000
FE0000000000
FE0000000000
FE0000000000
FE0000000000
FE0000000000
FC0000000000
FE0000000000
FE0000000000
FE0000000000
FE0000000000
FE0000000000
FE0000000000
FE0000000000
FF0000000000
7F0000000000
7F0000000000
7F8000001C00
3F8000001F80
3FC000003FC0
1FC000003F80
1FE000007F80
0FF00000FF00
0FFC0003FF00
07FF0007FE00
03FFE07FFC00
01FFFFFFF800
00FFFFFFF000
007FFFFFE000
001FFFFF8000
0007FFFE0000
00007FE00000
00000F800000
00000F800000
00000F800000
00000F800000
00000F800000
00000F800000
00000F800000
00000F800000
ENDCHAR
STARTCHAR 00A3
ENCODING 163
SWIDTH 573 0
DWIDTH 51 0
BBX 45 65 3 0
BITMAP
000001FF0000
00000FFFC000
00003FFFF000
00007FFFF800
0000FFFFFC00
0001FFFFFE00
0003FF83FF00
0007FC00FF80
0007F8003FC0
000FF0001FC0
000FE0001FE0
000FE0000FE0
001FC00007F0
001FC00007F0
001FC00003F0
001FC00003F8
001F800003E0
001F80000100
001F80000000
001F80000000
001F80000000
001F80000000
001F80000000
001F80000000
001F80000000
001F80000000
001F80000000
001F80000000
001F80000000
001F80000000
FFFFFFFFC000
FFFFFFFFC000
FFFFFFFFC000
FFFFFFFFC000
FFFFFFFFC000
FFFFFFFFC000
001F80000000
001F80000000
001F80000000
001F80000000
001F80000000
001F80000000
001F80000000
001F80000000
001F80000000
001F80000000
001F80000000
001F80000000
001F80000000
001F80000000
001F80000000
001F80000000
001F80000000
001F80000000
003F80000000
003F80000000
007F80000000
00FF80000000
03FF80000000
FFFFFFFFFFC0
FFFFFFFFFFC0
FFFFFFFFFFC0
FFFFFFFFFFC0
FFFFFFFFFFC0
FFFFFFFFFFC0
ENDCHAR
STARTCHAR 00A4
ENCODING 164
SWIDTH 641 0
DWIDTH 57 0
BBX 51 50 3 6
BITMAP
18000000000300
3C000000000780
7E0007FC000FC0
FF007FFFC01FE0
FF81FFFFF03FE0
7FC7FFFFFC7FC0
3FEFFFFFFEFF80
1FFFFFFFFFFF00
0FFFF803FFFE00
07FFC0007FFC00
03FF00001FF800
01FE00000FF000
03FC000007F800
07F8000003FC00
07F0000001FC00
0FE0000000FE00
0FC00000007E00
1FC00000007F00
1F800000003F00
1F800000003F00
1F800000003F00
3F000000001F80
3F000000001F80
3F000000001F80
3F000000001F80
3F000000001F80
3F000000001F80
3F000000001F80
3F000000001F80
1F800000003F00
1F800000003F00
1F800000003F00
1FC00000007F00
0FC00000007E00
0FE0000000FE00
07F0000001FC00
07F8000003FC00
03FC000007F800
01FE00000FF000
03FF00001FF800
07FFC0007FFC00
0FFFF803FFFE00
1FFFFFFFFFFF00
3FEFFFFFFEFF80
7FC7FFFFFC7FC0
FF81FFFFF03FE0
FF007FFFC01FE0
7E0007FC000FC0
3C000000000780
18000000000300
ENDCHAR
STARTCHAR 00A5
ENCODING 165
SWIDTH 551 0
DWIDTH 49 0
BBX 49 64 0 0
BITMAP
FF000000003F80
7F000000007F80
7F80000000FF00
3FC0000000FE00
1FC0000001FE00
1FE0000001FC00
0FE0000003FC00
0FF0000003F800
07F0000007F800
07F800000FF000
03FC00000FE000
01FC00001FE000
01FE00001FC000
00FE00003FC000
00FF00003F8000
007F80007F8000
003F8000FF0000
003FC000FE0000
001FC001FE0000
001FE001FC0000
000FE003FC0000
000FF007F80000
0007F807F00000
0003F80FF00000
0003FC0FE00000
0001FC1FE00000
0001FE1FC00000
0000FE3FC00000
0000FF7F800000
00007FFF000000
00003FFF000000
00003FFE000000
00001FFE000000
00001FFC000000
00000FFC000000
00FFFFFFFFC000
00FFFFFFFFC000
00FFFFFFFFC000
00FFFFFFFFC000
00FFFFFFFFC000
00FFFFFFFFC000
000007F0000000
000007F0000000
000007F0000000
000007F0000000
000007F0000000
000007F0000000
000007F0000000
00FFFFFFFFC000
00FFFFFFFFC000
00FFFFFFFFC000
00FFFFFFFFC000
00FFFFFFFFC000
00FFFFFFFFC000
000007F0000000
000007F0000000
000007F0000000
000007F0000000
000007F0000000
000007F0000000
000007F0000000
000007F0000000
000007F0000000
000007F0000000
ENDCHAR
STARTCHAR 00A6
ENCODING 166
SWIDTH 258 0
DWIDTH 23 0
BBX 7 78 8 -14
BITMAP
FE
FE
FE
FE
FE
FE
FE
FE
FE
FE
FE
FE
FE
FE
FE
FE
FE
FE
FE
FE
FE
FE
FE
FE
FE
FE
FE
FE
FE
FE
FE
FE
FE
00
00
00
00
00
00
00
00
00
00
00
00
FE
FE
FE
FE
FE
FE
FE
FE
FE
FE
FE
FE
FE
FE
FE
FE
FE
FE
FE
FE
FE
FE
FE
FE
FE
FE
FE
FE
FE
FE
FE
FE
FE
ENDCHAR
STARTCHAR 00A7
ENCODING 167
SWIDTH 528 0
DWIDTH 47 0
BBX 40 73 4 -14
BITMAP
0003FE0000
001FFFE000
00FFFFF800
01FFFFFC00
03FFFFFF00
07FFFFFF80
0FFE03FFC0
1FF0007FC0
1FE0003FE0
3FC0001FF0
3F80000FF0
3F000007F0
3F000007F8
3F000003F8
3F000003E0
3F80000000
3F80000000
3FC0000000
1FF0000000
1FFC000000
0FFF800000
07FFF00000
03FFFF0000
00FFFFE000
003FFFFC00
01FFFFFF80
07FFFFFFC0
0FF81FFFF0
1FE001FFF8
3FC0003FFC
7F800007FC
7F000003FE
7E000001FE
FE000000FE
FE0000007F
FE0000007F
FE0000007F
FE0000007F
FF0000007E
7F800000FE
7FC00000FE
3FF80001FE
3FFF0003FC
0FFFE007FC
07FFFE0FF8
01FFFFFFF0
007FFFFFE0
000FFFFF80
0001FFFF80
00001FFFE0
000003FFE0
0000007FF0
0000000FF8
00000007F8
00000003FC
00000001FC
00000001FC
00000001FC
0F000001FC
7F000001FC
7F800001FC
3F800001FC
3FC00003FC
3FE00007F8
1FF0000FF8
0FFC001FF0
0FFF80FFF0
07FFFFFFE0
03FFFFFFC0
00FFFFFF80
007FFFFE00
000FFFF800
0001FFC000
ENDCHAR
STARTCHAR 00A8
ENCODING 168
SWIDTH 506 0
DWIDTH 45 0
BBX 24 7 11 73
BITMAP
FE007F
FE007F
FE007F
FE007F
FE007F
FE007F
FE007F
ENDCHAR
STARTCHAR 00A9
ENCODING 169
SWIDTH 798 0
DWIDTH 71 0
BBX 66 66 3 -2
BITMAP
0000001FFC00000000
000001FFFFC0000000
00000FFFFFF8000000
00003FFFFFFE000000
0000FFFFFFFF800000
0001FFFFFFFFE00000
0007FFFC1FFFF00000
000FFF8000FFF80000
001FFC00001FFE0000
003FF0000007FF0000
007FE0000001FF8000
00FF80000000FF8000
01FF000000007FC000
03FE000000001FE000
03FC000000000FF000
07F8000FFE000FF800
0FF0007FFF8007F800
0FE001FFFFE003FC00
1FC003FFFFF001FC00
1FC007FFFFF801FE00
3F800FFC0FFC00FE00
3F800FF001FE00FE00
7F001FC000FE007F00
7F003F80007F007F00
7E003F00003F003F00
7E007F00003C003F80
FE007E000000003F80
FE007E000000001F80
FC007E000000001F80
FC00FC000000001F80
FC00FC000000001FC0
FC00FC000000001FC0
FC00FC000000001FC0
FC00FC000000001FC0
FC00FC000000001FC0
FC00FC000000001FC0
FC00FC000000001FC0
FC00FE000000001F80
FC007E000000001F80
FE007E000000001F80
FE007E000000003F80
7E003F00003C003F80
7F003F80003F003F00
7F003F80007F007F00
3F001FC000FE007F00
3F800FF003FC00FE00
3F800FFC1FFC00FE00
1FC007FFFFF801FE00
1FE003FFFFF001FC00
0FE000FFFFC003FC00
0FF0003FFF8007F800
07F80007FC000FF000
03FC000000001FF000
03FE000000003FE000
01FF000000007FC000
00FFC0000001FF8000
007FE0000003FF0000
003FF800000FFE0000
001FFF00007FFC0000
0007FFF003FFF80000
0003FFFFFFFFF00000
0001FFFFFFFFC00000
00007FFFFFFF000000
00001FFFFFFC000000
000003FFFFF0000000
0000007FFF00000000
ENDCHAR
STARTCHAR 00AA
ENCODING 170
SWIDTH 315 0
DWIDTH 28 0
BBX 20 25 4 24
BITMAP
03FE00
0FFF80
1FFFC0
3FFFE0
7F07F0
7C01F0
F801F0
1800F0
0000F0
0007F0
01FFF0
0FFFF0
3FFFF0
7FF0F0
FE00F0
F800F0
F801F0
F001F0
F003F0
F803F0
F80FF0
FFFFF0
7FFEF0
3FFCF0
0FF000
ENDCHAR
STARTCHAR 00AB
ENCODING 171
SWIDTH 540 0
DWIDTH 48 0
BBX 35 39 7 5
BITMAP
0001000000
0001800300
0003C00780
0007E00FE0
000FE01FC0
001FC01F80
001F803F00
003F007E00
007E00FE00
00FE01FC00
01FC01F800
01F803F000
03F007E000
07E00FE000
0FE01FC000
1FC01F8000
1F803F0000
3F007E0000
7E00FE0000
FE01FC0000
7E00FC0000
3F007E0000
3F803F0000
1FC03F8000
0FC01FC000
07E00FC000
03F007E000
03F803F000
01FC03F800
00FC01FC00
007E00FC00
003F007E00
003F803F00
001FC03F80
000FC01FC0
0007E00FC0
0007E007C0
0003800380
0001000200
ENDCHAR
STARTCHAR 00AC
ENCODING 172
SWIDTH 596 0
DWIDTH 53 0
BBX 43 17 5 17
BITMAP
FFFFFFFFFFE0
FFFFFFFFFFE0
FFFFFFFFFFE0
FFFFFFFFFFE0
FFFFFFFFFFE0
FFFFFFFFFFE0
0000000007E0
0000000007E0
0000000007E0
0000000007E0
0000000007E0
0000000007E0
0000000007E0
0000000007E0
0000000007E0
0000000007E0
0000000007E0
ENDCHAR
STARTCHAR 00AD
ENCODING 173
SWIDTH 416 0
DWIDTH 37 0
BBX 27 6 5 25
BITMAP
FFFFFFE0
FFFFFFE0
FFFFFFE0
FFFFFFE0
FFFFFFE0
FFFFFFE0
ENDCHAR
STARTCHAR 00AE
ENCODING 174
SWIDTH 630 0
DWIDTH 56 0
BBX 43 43 6 26
BITMAP
00007FC00000
0003FFF80000
000FFFFF0000
003FFFFF8000
007FFFFFE000
00FFC07FF000
01FE000FF800
03F80003FC00
07F00000FE00
0FE000007E00
1FC000003F00
1F8000001F80
3F01FFE01F80
3F01FFF00FC0
3E01FFF80FC0
7E01C07C07C0
7C01C03C07E0
7C01C01C03E0
FC01C01C03E0
FC01C01C03E0
F801C03C03E0
F801C07C03E0
F801FFF803E0
F801FFF003E0
FC01FFE003E0
FC01C1E003E0
7C01C0F003E0
7C01C0F007E0
7E01C07807C0
3E01C0780FC0
3F01C03C0FC0
3F01C03C1F80
1F8000003F00
0FC000007F00
0FE00000FE00
07F80001FC00
03FE0007F800
01FFC03FF000
00FFFFFFE000
003FFFFFC000
001FFFFF0000
0003FFFC0000
00007FE00000
ENDCHAR
STARTCHAR 00AF
ENCODING 175
SWIDTH 495 0
DWIDTH 44 0
BBX 22 6 11 74
BITMAP
FFFFFC
FFFFFC
FFFFFC
FFFFFC
FFFFFC
FFFFFC
ENDCHAR
STARTCHAR 00B0
ENCODING 176
SWIDTH 450 0
DWIDTH 40 0
BBX 32 32 3 33
BITMAP
000FF000
007FFC00
01FFFF00
03FFFFC0
07FFFFE0
0FFFFFF0
1FF01FF8
3FC007F8
3F8003FC
7F0001FC
7E0000FE
FE00007E
FC00007E
FC00007E
FC00003F
FC00003F
FC00003F
FC00003F
FC00007E
FC00007E
FE00007E
7E0000FE
7F0001FC
3F8003FC
3FC007F8
1FF81FF0
0FFFFFF0
07FFFFE0
03FFFFC0
01FFFF00
007FFC00
000FE000
ENDCHAR
STARTCHAR 00B1
ENCODING 177
SWIDTH 596 0
DWIDTH 53 0
BBX 43 41 5 7
BITMAP
00001F000000
00001F000000
00001F000000
00001F000000
00001F000000
00001F000000
00001F000000
00001F000000
00001F000000
00001F000000
00001F000000
FFFFFFFFFFE0
FFFFFFFFFFE0
FFFFFFFFFFE0
FFFFFFFFFFE0
FFFFFFFFFFE0
FFFFFFFFFFE0
00001F000000
00001F000000
00001F000000
00001F000000
00001F000000
00001F000000
00001F000000
00001F000000
00001F000000
00001F000000
00001F000000
000000000000
000000000000
000000000000
000000000000
000000000000
000000000000
000000000000
FFFFFFFFFFE0
FFFFFFFFFFE0
FFFFFFFFFFE0
FFFFFFFFFFE0
FFFFFFFFFFE0
FFFFFFFFFFE0
ENDCHAR
STARTCHAR 00B2
ENCODING 178
SWIDTH 405 0
DWIDTH 36 0
BBX 27 41 4 24
BITMAP
003FC000
01FFF000
03FFFC00
07FFFE00
0FFFFF00
1FC03F80
3F801F80
3F000FC0
7E0007C0
7C0007E0
7C0003E0
7C0003E0
7C0003E0
000003E0
000003E0
000003E0
000007E0
000007C0
00000FC0
00001FC0
00003F80
00007F00
0000FE00
0001FC00
0003F800
0007F000
000FE000
001FC000
007F8000
00FF0000
01FC0000
03F80000
07F00000
0FE00000
1FC00000
3F800000
7FFFFFE0
FFFFFFE0
FFFFFFE0
FFFFFFE0
FFFFFFE0
ENDCHAR
STARTCHAR 00B3
ENCODING 179
SWIDTH 393 0
DWIDTH 35 0
BBX 25 41 4 23
BITMAP
7FFFFF80
7FFFFF80
7FFFFF80
7FFFFF80
7FFFFF80
00003F00
00007E00
0001FC00
0003F800
0007F000
000FE000
001FC000
003F8000
007F0000
00FC0000
01FF8000
03FFE000
03FFF800
01FFFC00
01C3FE00
00007E00
00003F00
00001F00
00001F80
00000F80
00000F80
00000F80
00000F80
00000F80
00000F80
00000F80
F8001F80
F8001F00
FC003F00
7E007F00
7F81FE00
3FFFFC00
1FFFF800
0FFFF000
03FFC000
007E0000
ENDCHAR
STARTCHAR 00B4
ENCODING 180
SWIDTH 495 0
DWIDTH 44 0
BBX 11 14 17 71
BITMAP
07E0
07E0
07C0
0FC0
0FC0
0F80
1F80
1F00
3F00
3F00
3E00
7E00
7C00
FC00
ENDCHAR
STARTCHAR 00B5
ENCODING 181
SWIDTH 607 0
DWIDTH 54 0
BBX 41 69 6 -21
BITMAP
FE0000001F80
FE0000001F80
FE0000001F80
FE0000001F80
FE0000001F80
FE0000001F80
FE0000001F80
FE0000001F80
FE0000001F80
FE0000001F80
FE0000001F80
FE0000001F80
FE0000001F80
FE0000001F80
FE0000001F80
FE0000001F80
FE0000001F80
FE0000001F80
FE0000001F80
FE0000001F80
FE0000001F80
FE0000001F80
FE0000001F80
FE0000001F80
FE0000001F80
FE0000001F80
FE0000001F80
FE0000001F80
FE0000001F80
FE0000001F80
FE0000003F80
FE0000003F80
FF0000003F80
FF0000003F80
FF0000007F80
FF8000007F80
FF800000FF80
FFC00000FF80
FFE00001FF80
FFF00003FF80
FFF80007FF80
FFFC001FEF80
FFFFC0FFCF80
FDFFFFFFCF80
FDFFFFFF8F80
FC7FFFFE0F80
FC3FFFFC0F80
FC0FFFF00F80
FC01FF000000
FC0000000000
FC0000000000
FC0000000000
FC0000000000
FC0000000000
FC0000000000
FC0000000000
FC0000000000
FC0000000000
FC0000000000
FC0000000000
FC0000000000
FC0000000000
FC0000000000
FC0000000000
FC0000000000
FC0000000000
FC0000000000
FC0000000000
FC0000000000
ENDCHAR
STARTCHAR 00B6
ENCODING 182
SWIDTH 630 0
DWIDTH 56 0
BBX 43 77 7 -13
BITMAP
0003FFFC0FE0
001FFFFC0FE0
007FFFFC0FE0
01FFFFFC0FE0
03FFFFFC0FE0
07FFFFFC0FE0
0FFFFFFC0FE0
1FFFFFFC0FE0
3FFFFFFC0FE0
3FFFFFFC0FE0
7FFFFFFC0FE0
7FFFFFFC0FE0
7FFFFFFC0FE0
FFFFFFFC0FE0
FFFFFFFC0FE0
FFFFFFFC0FE0
FFFFFFFC0FE0
FFFFFFFC0FE0
FFFFFFFC0FE0
FFFFFFFC0FE0
FFFFFFFC0FE0
FFFFFFFC0FE0
FFFFFFFC0FE0
FFFFFFFC0FE0
FFFFFFFC0FE0
FFFFFFFC0FE0
FFFFFFFC0FE0
7FFFFFFC0FE0
7FFFFFFC0FE0
3FFFFFFC0FE0
3FFFFFFC0FE0
1FFFFFFC0FE0
1FFFFFFC0FE0
0FFFFFFC0FE0
07FFFFFC0FE0
03FFFFFC0FE0
00FFFFFC0FE0
007FFFFC0FE0
000FFFFC0FE0
00007FFC0FE0
000000FC0FE0
000000FC0FE0
000000FC0FE0
000000FC0FE0
000000FC0FE0
000000FC0FE0
000000FC0FE0
000000FC0FE0
000000FC0FE0
000000FC0FE0
000000FC0FE0
000000FC0FE0
000000FC0FE0
000000FC0FE0
000000FC0FE0
000000FC0FE0
000000FC0FE0
000000FC0FE0
000000FC0FE0
000000FC0FE0
000000FC0FE0
000000FC0FE0
000000FC0FE0
000000FC0FE0
000000FC0FE0
000000FC0FE0
000000FC0FE0
000000FC0FE0
000000FC0FE0
000000FC0FE0
000000FC0FE0
000000FC0FE0
000000FC0FE0
000000FC0FE0
000000FC0FE0
000000FC0FE0
000000FC0FE0
ENDCHAR
STARTCHAR 00B7
ENCODING 183
SWIDTH 225 0
DWIDTH 20 0
BBX 10 9 5 23
BITMAP
1E00
3F80
7F80
FFC0
FFC0
FFC0
7F80
7F80
3F00
ENDCHAR
STARTCHAR 00B8
ENCODING 184
SWIDTH 393 0
DWIDTH 35 0
BBX 14 22 11 -21
BITMAP
03C0
07C0
07C0
0F80
0F80
0F80
1F80
1FE0
1FF0
0FF8
03F8
00F8
00FC
00FC
00FC
00FC
41F8
7FF8
FFF0
FFE0
FFC0
3F80
ENDCHAR
STARTCHAR 00B9
ENCODING 185
SWIDTH 326 0
DWIDTH 29 0
BBX 13 40 5 24
BITMAP
01F8
07F8
0FF8
3FF8
FFF8
FFF8
FCF8
F8F8
E0F8
80F8
00F8
00F8
00F8
00F8
00F8
00F8
00F8
00F8
00F8
00F8
00F8
00F8
00F8
00F8
00F8
00F8
00F8
00F8
00F8
00F8
00F8
00F8
00F8
00F8
00F8
00F8
00F8
00F8
00F8
00F8
ENDCHAR
STARTCHAR 00BA
ENCODING 186
SWIDTH 348 0
DWIDTH 31 0
BBX 23 25 4 24
BITMAP
00FE00
07FF80
0FFFE0
1FFFF0
3FC7F8
7E01F8
7C00FC
FC007C
F8007E
F8003E
F8003E
F8003E
F0003E
F8003E
F8003E
F8003E
F8007E
FC007C
7C00FC
7E01F8
3FCFF8
1FFFF0
0FFFE0
07FF80
00FE00
ENDCHAR
STARTCHAR 00BB
ENCODING 187
SWIDTH 540 0
DWIDTH 48 0
BBX 34 38 6 6
BITMAP
3800300000
7C00F80000
FC01FC0000
7E00FC0000
3F007E0000
3F803F0000
1FC03F8000
0FC01FC000
07E00FC000
03F007E000
03F803F000
01FC03F800
00FC01FC00
007E00FC00
007F007E00
003F803F00
001FC03F80
000FC01FC0
0007E00FC0
000FE01FC0
001FC01F80
001F803F00
003F007E00
007E00FE00
00FE01FC00
01FC01F800
01F803F000
03F007E000
07E00FE000
0FE01FC000
1FC01F8000
1F803F0000
3F007F0000
7E00FE0000
FE01FC0000
7C00F80000
3800700000
1000300000
ENDCHAR
STARTCHAR 00BC
ENCODING 188
SWIDTH 978 0
DWIDTH 87 0
BBX 71 64 5 0
BITMAP
01F800000000020000
07F800000000070000
0FF8000000000F8000
3FF8000000001FE000
FFF8000000001FC000
FFF8000000003F8000
FCF8000000007F0000
F8F800000000FE0000
E0F800000000FE0000
80F800000001FC0000
00F800000003F80000
00F800000007F00000
00F80000000FF00000
00F80000000FE00000
00F80000001FC00000
00F80000003F800000
00F80000007F800000
00F80000007F000000
00F8000000FE000000
00F8000001FC000000
00F8000003F8000000
00F8000003F8000000
00F8000007F0000000
00F800000FE0000000
00F800001FC000FC00
00F800003FC000FC00
00F800003F8001F800
00F800007F0001F800
00F80000FE0003F000
00F80001FE0003F000
00F80001FC0003E000
00F80003F80007E000
00F80007F00007C000
00F8000FE0000FC000
00F8000FE0000F8000
00F8001FC0001F8000
00F8003F80001F0000
00F8007F00003F0000
00F800FF00003E0000
00F800FE00007E0000
000001FC00007C0000
000003F80000FC03E0
000007F00000F803E0
000007F00001F803E0
00000FE00001F803E0
00001FC00003F003E0
00003F800003F003E0
00003F800007E003E0
00007F000007E003E0
0000FE00000FC003E0
0001FC00000FC003E0
0003FC00000F8003E0
0003F800001FFFFFFE
0007F000001FFFFFFE
000FE000001FFFFFFE
001FC000001FFFFFFE
001FC000001FFFFFFE
003F800000000003E0
007F000000000003E0
00FE000000000003E0
01FE000000000003E0
007C000000000003E0
0038000000000003E0
0010000000000003E0
ENDCHAR
STARTCHAR 00BD
ENCODING 189
SWIDTH 933 0
DWIDTH 83 0
BBX 74 64 5 0
BITMAP
01F80000000002000000
07F80000000007000000
0FF8000000000F800000
3FF8000000001FC00000
FFF8000000001FC00000
FFF8000000003F800000
FCF8000000007F000000
F0F800000000FE000000
E0F800000000FE000000
80F800000001FC000000
00F800000003F8000000
00F800000007F0000000
00F80000000FF0000000
00F80000000FE0000000
00F80000001FC0000000
00F80000003F80000000
00F80000007F00000000
00F80000007F00000000
00F8000000FE00000000
00F8000001FC00000000
00F8000003F800000000
00F8000003F800000000
00F8000007F000000000
00F800000FE000FF0000
00F800001FC003FFE000
00F800003FC00FFFF000
00F800003F801FFFFC00
00F800007F003FFFFC00
00F80000FE007F80FE00
00F80001FC007E003F00
00F80001FC00FC003F00
00F80003F800F8001F80
00F80007F001F8000F80
00F8000FE001F8000F80
00F8000FE001F0000F80
00F8001FC001F0000FC0
00F8003F800000000FC0
00F8007F000000000FC0
00F800FF000000000F80
00F800FE000000000F80
000001FC000000001F80
000003F8000000001F80
000007F0000000003F00
000007F0000000007E00
00000FE000000000FE00
00001FC000000003FC00
00003F8000000007F800
00007F800000000FF000
00007F000000001FC000
0000FE000000003F8000
0001FC000000007F0000
0003FC00000000FE0000
0003F800000001FC0000
0007F000000003F80000
000FE000000007F00000
001FC00000001FE00000
001FC00000003FC00000
003F800000007F800000
007F00000000FE000000
00FE00000001FFFFFFC0
01FE00000001FFFFFFC0
007C00000001FFFFFFC0
003800000001FFFFFFC0
001000000001FFFFFFC0
ENDCHAR
STARTCHAR 00BE
ENCODING 190
SWIDTH 978 0
DWIDTH 87 0
BBX 78 64 4 0
BITMAP
7FFFFF80000000040000
7FFFFF800000000E0000
7FFFFF800000001F0000
7FFFFF800000001FC000
7FFFFF800000003F8000
00003F000000007F0000
00007E00000000FE0000
0001FC00000001FC0000
0003F800000001FC0000
0007F000000003F80000
000FE000000007F00000
001FC00000000FE00000
003F800000000FE00000
007F000000001FC00000
00FC000000003F800000
01FF800000007F000000
03FFE00000007F000000
03FFF8000000FE000000
01FFFC000001FC000000
01C3FE000003F8000000
00007E000007F0000000
00003F000007F0000000
00001F00000FE0000000
00001F80001FC0000000
00000F80003F8001F800
00000F80003F8001F000
00000F80007F0003F000
00000F8000FE0003E000
00000F8001FC0007E000
00000F8003FC0007C000
00000F8003F8000FC000
F8001F8007F0000F8000
F8001F000FE0001F8000
FC003F001FC0001F8000
7E007F001FC0003F0000
7F81FE003F80003F0000
3FFFFC007F00007E0000
1FFFF800FE00007E0000
0FFFF000FE0000FC0000
03FFC001FC0000FC0000
007E0003F80000F80000
00000007F00001F807C0
0000000FF00001F007C0
0000000FE00003F007C0
0000001FC00003E007C0
0000003F800007E007C0
0000007F000007C007C0
0000007F00000FC007C0
000000FE00000F8007C0
000001FC00001F8007C0
000003F800001F8007C0
000003F800003F0007C0
000007F000003FFFFFFC
00000FE000003FFFFFFC
00001FC000003FFFFFFC
00003FC000003FFFFFFC
00003F8000003FFFFFFC
00007F000000000007C0
0000FE000000000007C0
0001FC000000000007C0
0001FC000000000007C0
0000F8000000000007C0
000070000000000007C0
000020000000000007C0
ENDCHAR
STARTCHAR 00BF
ENCODING 191
SWIDTH 528 0
DWIDTH 47 0
BBX 38 65 4 -17
BITMAP
00007F0000
00007F0000
00007F0000
00007F0000
00007F0000
00007F0000
00007F0000
00007F0000
00007F0000
0000000000
0000000000
0000000000
0000000000
0000000000
0000000000
0000000000
0000000000
00007F0000
00007F0000
00007F0000
00007F0000
00007F0000
00007F0000
00007E0000
0000FE0000
0000FE0000
0001FE0000
0001FC0000
0003FC0000
0007F80000
000FF80000
003FF00000
007FE00000
00FFC00000
01FF800000
03FE000000
07FC000000
0FF8000000
1FF0000000
1FE0000000
3FC0000000
3F80000000
7F00000000
7F00000000
7F00000000
7F00000000
7E00000000
FE00000000
FE000001FC
FE000001FC
7F000001FC
7F000001FC
7F000001F8
7F000003F8
7F800003F8
3FC00007F0
3FE0000FF0
1FF0003FE0
0FFE01FFE0
0FFFFFFFC0
07FFFFFF80
01FFFFFF00
00FFFFFC00
003FFFF000
0007FFC000
ENDCHAR
STARTCHAR 00C0
ENCODING 192
SWIDTH 630 0
DWIDTH 56 0
BBX 52 85 2 0
BITMAP
00003E00000000
00003F00000000
00003F00000000
00001F00000000
00001F80000000
00000F80000000
00000FC0000000
00000FC0000000
000007C0000000
000007E0000000
000007E0000000
000003E0000000
000003F0000000
000001F0000000
00000000000000
00000000000000
00000000000000
00000000000000
00000000000000
00000000000000
00000000000000
000003FE000000
000007FE000000
000007FE000000
000007FF000000
00000FFF000000
00000FFF000000
00000FFF800000
00001FFF800000
00001FDF800000
00001F9FC00000
00003F9FC00000
00003F8FC00000
00003F0FE00000
00007F0FE00000
00007F07E00000
0000FE07F00000
0000FE07F00000
0000FE03F80000
0001FC03F80000
0001FC03F80000
0001FC01FC0000
0003F801FC0000
0003F801FC0000
0003F800FE0000
0007F000FE0000
0007F0007E0000
0007F0007F0000
000FE0007F0000
000FE0003F0000
000FC0003F8000
001FC0003F8000
001FC0001F8000
001F80001FC000
003F80001FC000
003F80000FC000
003F00000FE000
007F00000FE000
007F000007E000
007E000007F000
00FE000007F000
00FE000003F000
00FC000003F800
01FFFFFFFFF800
01FFFFFFFFF800
03FFFFFFFFFC00
03FFFFFFFFFC00
03FFFFFFFFFE00
07FFFFFFFFFE00
07F00000007E00
07E00000007F00
0FE00000007F00
0FE00000003F00
0FC00000003F80
1FC00000003F80
1FC00000001F80
1F800000001FC0
3F800000001FC0
3F800000000FC0
3F000000000FE0
7F000000000FE0
7F0000000007E0
7E0000000007F0
FE0000000007F0
FE0000000003F0
ENDCHAR
STARTCHAR 00C1
ENCODING 193
SWIDTH 630 0
DWIDTH 56 0
BBX 52 85 2 0
BITMAP
00000007E00000
00000007C00000
0000000FC00000
0000000F800000
0000001F800000
0000001F800000
0000001F000000
0000003F000000
0000003E000000
0000007E000000
0000007E000000
0000007C000000
000000FC000000
00000000000000
00000000000000
00000000000000
00000000000000
00000000000000
00000000000000
00000000000000
00000000000000
000003FE000000
000007FE000000
000007FE000000
000007FF000000
00000FFF000000
00000FFF000000
00000FFF800000
00001FFF800000
00001FFF800000
00001F9FC00000
00003F9FC00000
00003F8FC00000
00003F0FE00000
00007F0FE00000
00007F07E00000
0000FE07F00000
0000FE07F00000
0000FE03F80000
0001FC03F80000
0001FC03F80000
0001F801FC0000
0003F801FC0000
0003F801FC0000
0003F000FE0000
0007F000FE0000
0007F000FE0000
0007E0007F0000
000FE0007F0000
000FE0007F0000
000FC0003F8000
001FC0003F8000
001FC0001F8000
001F80001FC000
003F80001FC000
003F80000FC000
003F00000FE000
007F00000FE000
007F000007E000
007E000007F000
00FE000007F000
00FE000003F000
00FC000003F800
01FFFFFFFFF800
01FFFFFFFFF800
03FFFFFFFFFC00
03FFFFFFFFFC00
03FFFFFFFFFE00
07FFFFFFFFFE00
07F0000000FE00
07E00000007F00
0FE00000007F00
0FE00000007F00
0FC00000003F80
1FC00000003F80
1FC00000001F80
1F800000001FC0
3F800000001FC0
3F800000000FC0
3F000000000FE0
7F000000000FE0
7F0000000007E0
7E0000000007F0
FE0000000007F0
FE0000000003F0
ENDCHAR
STARTCHAR 00C2
ENCODING 194
SWIDTH 630 0
DWIDTH 56 0
BBX 52 84 2 0
BITMAP
000001FC000000
000003FC000000
000007FE000000
00000FFF000000
00001FFF800000
00003F9FC00000
00003F0FE00000
00007E07F00000
0000FE03F00000
0001FC01F80000
0003F801FC0000
0007F000FE0000
00000000000000
00000000000000
00000000000000
00000000000000
00000000000000
00000000000000
00000000000000
00000000000000
000003FE000000
000007FE000000
000007FE000000
000007FF000000
00000FFF000000
00000FFF000000
00000FFF800000
00001FFF800000
00001FFF800000
00001F9FC00000
00003F9FC00000
00003F8FC00000
00003F0FE00000
00007F0FE00000
00007F07E00000
0000FE07F00000
0000FE07F00000
0000FE03F80000
0001FC03F80000
0001FC03F80000
0001F801FC0000
0003F801FC0000
0003F801FC0000
0003F000FE0000
0007F000FE0000
0007F000FE0000
0007E0007F0000
000FE0007F0000
000FE0007F0000
000FC0003F8000
001FC0003F8000
001FC0001F8000
001F80001FC000
003F80001FC000
003F80000FC000
003F00000FE000
007F00000FE000
007F000007E000
007E000007F000
00FE000007F000
00FE000003F000
00FC000003F800
01FFFFFFFFF800
01FFFFFFFFF800
03FFFFFFFFFC00
03FFFFFFFFFC00
03FFFFFFFFFE00
07FFFFFFFFFE00
07F0000000FE00
07E00000007F00
0FE00000007F00
0FE00000007F00
0FC00000003F80
1FC00000003F80
1FC00000001F80
1F800000001FC0
3F800000001FC0
3F800000000FC0
3F000000000FE0
7F000000000FE0
7F0000000007E0
7E0000000007F0
FE0000000007F0
FE0000000003F0
ENDCHAR
STARTCHAR 00C3
ENCODING 195
SWIDTH 630 0
DWIDTH 56 0
BBX 52 84 2 0
BITMAP
0000FE00000000
0001FF801F0000
0003FFE01F0000
0007FFF81F0000
0007FFFE3F0000
0007C3FFFE0000
0007C0FFFE0000
0007807FFE0000
0007801FFC0000
00000007F00000
00000000000000
00000000000000
00000000000000
00000000000000
00000000000000
00000000000000
00000000000000
00000000000000
00000000000000
00000000000000
000003FE000000
000007FE000000
000007FE000000
000007FF000000
00000FFF000000
00000FFF000000
00000FFF800000
00001FFF800000
00001FFF800000
00001F9FC00000
00003F9FC00000
00003F8FC00000
00003F0FE00000
00007F0FE00000
00007F07E00000
0000FE07F00000
0000FE07F00000
0000FE03F80000
0001FC03F80000
0001FC03F80000
0001F801FC0000
0003F801FC0000
0003F801FC0000
0003F000FE0000
0007F000FE0000
0007F000FE0000
0007E0007F0000
000FE0007F0000
000FE0007F0000
000FC0003F8000
001FC0003F8000
001FC0001F8000
001F80001FC000
003F80001FC000
003F80000FC000
003F00000FE000
007F00000FE000
007F000007E000
007E000007F000
00FE000007F000
00FE000003F000
00FC000003F800
01FFFFFFFFF800
01FFFFFFFFF800
03FFFFFFFFFC00
03FFFFFFFFFC00
03FFFFFFFFFE00
07FFFFFFFFFE00
07F0000000FE00
07E00000007F00
0FE00000007F00
0FE00000007F00
0FC00000003F80
1FC00000003F80
1FC00000001F80
1F800000001FC0
3F800000001FC0
3F800000000FC0
3F000000000FE0
7F000000000FE0
7F0000000007E0
7E0000000007F0
FE0000000007F0
FE0000000003F0
ENDCHAR
STARTCHAR 00C4
ENCODING 196
SWIDTH 630 0
DWIDTH 56 0
BBX 52 80 2 0
BITMAP
0003F801FC0000
0003F801FC0000
0003F801FC0000
0003F801FC0000
0003F801FC0000
0003F801FC0000
0003F801FC0000
00000000000000
00000000000000
00000000000000
00000000000000
00000000000000
00000000000000
00000000000000
00000000000000
00000000000000
000003FE000000
000007FE000000
000007FE000000
000007FF000000
00000FFF000000
00000FFF000000
00000FFF800000
00001FFF800000
00001FFF800000
00001F9FC00000
00003F9FC00000
00003F8FC00000
00003F0FE00000
00007F0FE00000
00007F07E00000
0000FE07F00000
0000FE07F00000
0000FE03F80000
0001FC03F80000
0001FC03F80000
0001F801FC0000
0003F801FC0000
0003F801FC0000
0003F000FE0000
0007F000FE0000
0007F000FE0000
0007E0007F0000
000FE0007F0000
000FE0007F0000
000FC0003F8000
001FC0003F8000
001FC0001F8000
001F80001FC000
003F80001FC000
003F80000FC000
003F00000FE000
007F00000FE000
007F000007E000
007E000007F000
00FE000007F000
00FE000003F000
00FC000003F800
01FFFFFFFFF800
01FFFFFFFFF800
03FFFFFFFFFC00
03FFFFFFFFFC00
03FFFFFFFFFE00
07FFFFFFFFFE00
07F0000000FE00
07E00000007F00
0FE00000007F00
0FE00000007F00
0FC00000003F80
1FC00000003F80
1FC00000001F80
1F800000001FC0
3F800000001FC0
3F800000000FC0
3F000000000FE0
7F000000000FE0
7F0000000007E0
7E0000000007F0
FE0000000007F0
FE0000000003F0
ENDCHAR
STARTCHAR 00C5
ENCODING 197
SWIDTH 630 0
DWIDTH 56 0
BBX 52 89 2 0
BITMAP
000000F8000000
000007FE000000
00000FFF800000
00001FFFC00000
00003FFFC00000
00003F0FE00000
00007E03E00000
00007C03F00000
00007C01F00000
0000F801F00000
0000F801F00000
00007C01F00000
00007C03F00000
00007E03E00000
00003F0FE00000
00003FFFC00000
00001FFFC00000
00000FFF800000
000007FE000000
000000F8000000
00000000000000
00000000000000
00000000000000
00000000000000
00000000000000
000003FE000000
000007FE000000
000007FE000000
000007FF000000
00000FFF000000
00000FFF000000
00000FFF800000
00001FFF800000
00001FFF800000
00001F9FC00000
00003F9FC00000
00003F8FC00000
00003F0FE00000
00007F0FE00000
00007F07E00000
0000FE07F00000
0000FE07F00000
0000FE03F80000
0001FC03F80000
0001FC03F80000
0001F801FC0000
0003F801FC0000
0003F801FC0000
0003F000FE0000
0007F000FE0000
0007F000FE0000
0007E0007F0000
000FE0007F0000
000FE0007F0000
000FC0003F8000
001FC0003F8000
001FC0001F8000
001F80001FC000
003F80001FC000
003F80000FC000
003F00000FE000
007F00000FE000
007F000007E000
007E000007F000
00FE000007F000
00FE000003F000
00FC000003F800
01FFFFFFFFF800
01FFFFFFFFF800
03FFFFFFFFFC00
03FFFFFFFFFC00
03FFFFFFFFFE00
07FFFFFFFFFE00
07F0000000FE00
07E00000007F00
0FE00000007F00
0FE00000007F00
0FC00000003F80
1FC00000003F80
1FC00000001F80
1F800000001FC0
3F800000001FC0
3F800000000FC0
3F000000000FE0
7F000000000FE0
7F0000000007E0
7E0000000007F0
FE0000000007F0
FE0000000003F0
ENDCHAR
STARTCHAR 00C6
ENCODING 198
SWIDTH 922 0
DWIDTH 82 0
BBX 75 64 2 0
BITMAP
000003FFFFFFFFFFFFE0
000007FFFFFFFFFFFFE0
000007FFFFFFFFFFFFE0
000007FFFFFFFFFFFFE0
00000FFFFFFFFFFFFFE0
00000FFFFFFFFFFFFFE0
00000FC01FC000000000
00001FC01FC000000000
00001FC01FC000000000
00001F801FC000000000
00003F801FC000000000
00003F801FC000000000
00003F001FC000000000
00007F001FC000000000
00007F001FC000000000
0000FE001FC000000000
0000FE001FC000000000
0000FC001FC000000000
0001FC001FC000000000
0001FC001FC000000000
0001F8001FC000000000
0003F8001FC000000000
0003F8001FC000000000
0003F0001FC000000000
0007F0001FC000000000
0007F0001FC000000000
0007E0001FC000000000
000FE0001FC000000000
000FE0001FC000000000
000FC0001FFFFFFFFC00
001FC0001FFFFFFFFC00
001FC0001FFFFFFFFC00
001F80001FFFFFFFFC00
003F80001FFFFFFFFC00
003F80001FFFFFFFFC00
003F00001FC000000000
007F00001FC000000000
007F00001FC000000000
007E00001FC000000000
00FE00001FC000000000
00FE00001FC000000000
00FC00001FC000000000
01FFFFFFFFC000000000
01FFFFFFFFC000000000
03FFFFFFFFC000000000
03FFFFFFFFC000000000
03FFFFFFFFC000000000
07FFFFFFFFC000000000
07F000001FC000000000
07E000001FC000000000
0FE000001FC000000000
0FE000001FC000000000
0FC000001FC000000000
1FC000001FC000000000
1FC000001FC000000000
1F8000001FC000000000
3F8000001FC000000000
3F8000001FC000000000
3F0000001FFFFFFFFFE0
7F0000001FFFFFFFFFE0
7F0000001FFFFFFFFFE0
7E0000001FFFFFFFFFE0
FE0000001FFFFFFFFFE0
FE0000001FFFFFFFFFE0
ENDCHAR
STARTCHAR 00C7
ENCODING 199
SWIDTH 720 0
DWIDTH 64 0
BBX 57 86 3 -21
BITMAP
000001FFE0000000
00001FFFFE000000
0000FFFFFFC00000
0003FFFFFFF00000
0007FFFFFFFC0000
001FFFFFFFFE0000
003FFFC0FFFF0000
007FF80007FF8000
00FFE00001FFC000
01FF8000007FE000
03FF0000001FF000
07FC0000000FF800
07F800000007F800
0FF000000003FC00
0FF000000001FE00
1FE000000001FE00
1FC000000000FF00
3FC000000000FF00
3F80000000007F00
3F80000000007F80
7F80000000003F80
7F00000000003E00
7F00000000002000
7F00000000000000
FE00000000000000
FE00000000000000
FE00000000000000
FE00000000000000
FE00000000000000
FE00000000000000
FE00000000000000
FE00000000000000
FE00000000000000
FE00000000000000
FE00000000000000
FE00000000000000
FE00000000000000
FE00000000000000
FE00000000000000
FE00000000000000
FE00000000000000
FE00000000000000
7F00000000000000
7F00000000002000
7F00000000003C00
7F00000000003F80
3F80000000007F80
3F80000000007F00
3FC000000000FF00
1FC000000000FF00
1FE000000001FE00
0FF000000001FE00
0FF000000003FC00
07F800000007F800
07FC0000000FF800
03FE0000001FF000
01FF8000007FE000
00FFE00000FFC000
007FF80007FF8000
003FFFE0FFFF0000
001FFFFFFFFE0000
000FFFFFFFFC0000
0003FFFFFFF00000
0000FFFFFFC00000
00001FFFFE000000
000001FFE0000000
0000000F80000000
0000000F00000000
0000001F00000000
0000001F00000000
0000001F80000000
0000003FC0000000
0000003FE0000000
0000001FF0000000
00000003F0000000
00000001F8000000
00000001F8000000
00000000F8000000
00000001F8000000
00000001F8000000
000000C3F0000000
000000FFF0000000
000000FFE0000000
000001FFE0000000
000001FF80000000
0000007E00000000
ENDCHAR
STARTCHAR 00C8
ENCODING 200
SWIDTH 573 0
DWIDTH 51 0
BBX 40 85 6 0
BITMAP
0003E00000
0003F00000
0003F00000
0001F00000
0001F80000
0000F80000
0000FC0000
0000FC0000
00007C0000
00007E0000
00003E0000
00003F0000
00003F0000
00001F0000
0000000000
0000000000
0000000000
0000000000
0000000000
0000000000
0000000000
FFFFFFFFFF
FFFFFFFFFF
FFFFFFFFFF
FFFFFFFFFF
FFFFFFFFFF
FFFFFFFFFF
FE00000000
FE00000000
FE00000000
FE00000000
FE00000000
FE00000000
FE00000000
FE00000000
FE00000000
FE00000000
FE00000000
FE00000000
FE00000000
FE00000000
FE00000000
FE00000000
FE00000000
FE00000000
FE00000000
FE00000000
FE00000000
FE00000000
FE00000000
FFFFFFFFE0
FFFFFFFFE0
FFFFFFFFE0
FFFFFFFFE0
FFFFFFFFE0
FFFFFFFFE0
FE00000000
FE00000000
FE00000000
FE00000000
FE00000000
FE00000000
FE00000000
FE00000000
FE00000000
FE00000000
FE00000000
FE00000000
FE00000000
FE00000000
FE00000000
FE00000000
FE00000000
FE00000000
FE00000000
FE00000000
FE00000000
FE00000000
FE00000000
FFFFFFFFFF
FFFFFFFFFF
FFFFFFFFFF
FFFFFFFFFF
FFFFFFFFFF
FFFFFFFFFF
ENDCHAR
STARTCHAR 00C9
ENCODING 201
SWIDTH 573 0
DWIDTH 51 0
BBX 40 85 6 0
BITMAP
000001F800
000001F800
000001F000
000003F000
000003F000
000003E000
000007E000
000007C000
00000FC000
00000FC000
00000F8000
00001F8000
00001F0000
0000000000
0000000000
0000000000
0000000000
0000000000
0000000000
0000000000
0000000000
FFFFFFFFFF
FFFFFFFFFF
FFFFFFFFFF
FFFFFFFFFF
FFFFFFFFFF
FFFFFFFFFF
FE00000000
FE00000000
FE00000000
FE00000000
FE00000000
FE00000000
FE00000000
FE00000000
FE00000000
FE00000000
FE00000000
FE00000000
FE00000000
FE00000000
FE00000000
FE00000000
FE00000000
FE00000000
FE00000000
FE00000000
FE00000000
FE00000000
FE00000000
FFFFFFFFE0
FFFFFFFFE0
FFFFFFFFE0
FFFFFFFFE0
FFFFFFFFE0
FFFFFFFFE0
FE00000000
FE00000000
FE00000000
FE00000000
FE00000000
FE00000000
FE00000000
FE00000000
FE00000000
FE00000000
FE00000000
FE00000000
FE00000000
FE00000000
FE00000000
FE00000000
FE00000000
FE00000000
FE00000000
FE00000000
FE00000000
FE00000000
FE00000000
FFFFFFFFFF
FFFFFFFFFF
FFFFFFFFFF
FFFFFFFFFF
FFFFFFFFFF
FFFFFFFFFF
ENDCHAR
STARTCHAR 00CA
ENCODING 202
SWIDTH 573 0
DWIDTH 51 0
BBX 40 84 6 0
BITMAP
0000FE0000
0001FF0000
0001FF8000
0003FFC000
0007FFE000
000FE7E000
001FC3F000
003F83F800
007F01FC00
007E00FE00
00FC007F00
01FC003F00
0000000000
0000000000
0000000000
0000000000
0000000000
0000000000
0000000000
0000000000
FFFFFFFFFF
FFFFFFFFFF
FFFFFFFFFF
FFFFFFFFFF
FFFFFFFFFF
FFFFFFFFFF
FE00000000
FE00000000
FE00000000
FE00000000
FE00000000
FE00000000
FE00000000
FE00000000
FE00000000
FE00000000
FE00000000
FE00000000
FE00000000
FE00000000
FE00000000
FE00000000
FE00000000
FE00000000
FE00000000
FE00000000
FE00000000
FE00000000
FE00000000
FFFFFFFFE0
FFFFFFFFE0
FFFFFFFFE0
FFFFFFFFE0
FFFFFFFFE0
FFFFFFFFE0
FE00000000
FE00000000
FE00000000
FE00000000
FE00000000
FE00000000
FE00000000
FE00000000
FE00000000
FE00000000
FE00000000
FE00000000
FE00000000
FE00000000
FE00000000
FE00000000
FE00000000
FE00000000
FE00000000
FE00000000
FE00000000
FE00000000
FE00000000
FFFFFFFFFF
FFFFFFFFFF
FFFFFFFFFF
FFFFFFFFFF
FFFFFFFFFF
FFFFFFFFFF
ENDCHAR
STARTCHAR 00CB
ENCODING 203
SWIDTH 573 0
DWIDTH 51 0
BBX 40 80 6 0
BITMAP
01FC00FE00
01FC00FE00
01FC00FE00
01FC00FE00
01FC00FE00
01FC00FE00
01FC00FE00
0000000000
0000000000
0000000000
0000000000
0000000000
0000000000
0000000000
0000000000
0000000000
FFFFFFFFFF
FFFFFFFFFF
FFFFFFFFFF
FFFFFFFFFF
FFFFFFFFFF
FFFFFFFFFF
FE00000000
FE00000000
FE00000000
FE00000000
FE00000000
FE00000000
FE00000000
FE00000000
FE00000000
FE00000000
FE00000000
FE00000000
FE00000000
FE00000000
FE00000000
FE00000000
FE00000000
FE00000000
FE00000000
FE00000000
FE00000000
FE00000000
FE00000000
FFFFFFFFE0
FFFFFFFFE0
FFFFFFFFE0
FFFFFFFFE0
FFFFFFFFE0
FFFFFFFFE0
FE00000000
FE00000000
FE00000000
FE00000000
FE00000000
FE00000000
FE00000000
FE00000000
FE00000000
FE00000000
FE00000000
FE00000000
FE00000000
FE00000000
FE00000000
FE00000000
FE00000000
FE00000000
FE00000000
FE00000000
FE00000000
FE00000000
FE00000000
FFFFFFFFFF
FFFFFFFFFF
FFFFFFFFFF
FFFFFFFFFF
FFFFFFFFFF
FFFFFFFFFF
ENDCHAR
STARTCHAR 00CC
ENCODING 204
SWIDTH 236 0
DWIDTH 21 0
BBX 12 85 2 0
BITMAP
FC00
7C00
7E00
7E00
3E00
3F00
1F00
1F80
1F80
0F80
0FC0
07C0
07E0
07E0
0000
0000
0000
0000
0000
0000
0000
07F0
07F0
07F0
07F0
07F0
07F0
07F0
07F0
07F0
07F0
07F0
07F0
07F0
07F0
07F0
07F0
07F0
07F0
07F0
07F0
07F0
07F0
07F0
07F0
07F0
07F0
07F0
07F0
07F0
07F0
07F0
07F0
07F0
07F0
07F0
07F0
07F0
07F0
07F0
07F0
07F0
07F0
07F0
07F0
07F0
07F0
07F0
07F0
07F0
07F0
07F0
07F0
07F0
07F0
07F0
07F0
07F0
07F0
07F0
07F0
07F0
07F0
07F0
07F0
ENDCHAR
STARTCHAR 00CD
ENCODING 205
SWIDTH 236 0
DWIDTH 21 0
BBX 11 85 7 0
BITMAP
03E0
07E0
07E0
07C0
0FC0
0F80
1F80
1F80
1F00
3F00
3F00
3E00
7E00
7C00
0000
0000
0000
0000
0000
0000
0000
FE00
FE00
FE00
FE00
FE00
FE00
FE00
FE00
FE00
FE00
FE00
FE00
FE00
FE00
FE00
FE00
FE00
FE00
FE00
FE00
FE00
FE00
FE00
FE00
FE00
FE00
FE00
FE00
FE00
FE00
FE00
FE00
FE00
FE00
FE00
FE00
FE00
FE00
FE00
FE00
FE00
FE00
FE00
FE00
FE00
FE00
FE00
FE00
FE00
FE00
FE00
FE00
FE00
FE00
FE00
FE00
FE00
FE00
FE00
FE00
FE00
FE00
FE00
FE00
ENDCHAR
STARTCHAR 00CE
ENCODING 206
SWIDTH 236 0
DWIDTH 21 0
BBX 26 84 -3 0
BITMAP
003F8000
007FC000
00FFC000
01FFE000
03FFF000
03F3F800
07E1FC00
0FE0FE00
1FC07F00
3F803F00
7F001F80
FE001FC0
00000000
00000000
00000000
00000000
00000000
00000000
00000000
00000000
003F8000
003F8000
003F8000
003F8000
003F8000
003F8000
003F8000
003F8000
003F8000
003F8000
003F8000
003F8000
003F8000
003F8000
003F8000
003F8000
003F8000
003F8000
003F8000
003F8000
003F8000
003F8000
003F8000
003F8000
003F8000
003F8000
003F8000
003F8000
003F8000
003F8000
003F8000
003F8000
003F8000
003F8000
003F8000
003F8000
003F8000
003F8000
003F8000
003F8000
003F8000
003F8000
003F8000
003F8000
003F8000
003F8000
003F8000
003F8000
003F8000
003F8000
003F8000
003F8000
003F8000
003F8000
003F8000
003F8000
003F8000
003F8000
003F8000
003F8000
003F8000
003F8000
003F8000
003F8000
ENDCHAR
STARTCHAR 00CF
ENCODING 207
SWIDTH 236 0
DWIDTH 21 0
BBX 24 80 -2 0
BITMAP
FE007F
FE007F
FE007F
FE007F
FE007F
FE007F
FE007F
000000
000000
000000
000000
000000
000000
000000
000000
000000
007F00
007F00
007F00
007F00
007F00
007F00
007F00
007F00
007F00
007F00
007F00
007F00
007F00
007F00
007F00
007F00
007F00
007F00
007F00
007F00
007F00
007F00
007F00
007F00
007F00
007F00
007F00
007F00
007F00
007F00
007F00
007F00
007F00
007F00
007F00
007F00
007F00
007F00
007F00
007F00
007F00
007F00
007F00
007F00
007F00
007F00
007F00
007F00
007F00
007F00
007F00
007F00
007F00
007F00
007F00
007F00
007F00
007F00
007F00
007F00
007F00
007F00
007F00
007F00
ENDCHAR
STARTCHAR 00D0
ENCODING 208
SWIDTH 663 0
DWIDTH 59 0
BBX 54 64 1 0
BITMAP
07FFFFFF800000
07FFFFFFF80000
07FFFFFFFE0000
07FFFFFFFF8000
07FFFFFFFFE000
07FFFFFFFFF000
07E00007FFF800
07E000003FFC00
07E0000007FE00
07E0000003FF00
07E0000000FF80
07E00000007F80
07E00000003FC0
07E00000001FC0
07E00000001FE0
07E00000000FE0
07E00000000FF0
07E000000007F0
07E000000007F0
07E000000003F8
07E000000003F8
07E000000003F8
07E000000003F8
07E000000001FC
07E000000001FC
07E000000001FC
07E000000001FC
07E000000001FC
07E000000001FC
FFFFFFF00001FC
FFFFFFF00001FC
FFFFFFF00001FC
FFFFFFF00001FC
FFFFFFF00001FC
FFFFFFF00001FC
07E000000001FC
07E000000001FC
07E000000001FC
07E000000001FC
07E000000001FC
07E000000001FC
07E000000003F8
07E000000003F8
07E000000003F8
07E000000007F8
07E000000007F0
07E000000007F0
07E00000000FF0
07E00000000FE0
07E00000001FE0
07E00000003FC0
07E00000003FC0
07E00000007F80
07E0000000FF80
07E0000003FF00
07E0000007FE00
07E000003FFC00
07E00007FFF800
07FFFFFFFFF000
07FFFFFFFFE000
07FFFFFFFF8000
07FFFFFFFE0000
07FFFFFFF80000
07FFFFFF800000
ENDCHAR
STARTCHAR 00D1
ENCODING 209
SWIDTH 686 0
DWIDTH 61 0
BBX 49 82 6 0
BITMAP
0000FC00000000
0003FF003E0000
0007FFC03E0000
0007FFF03E0000
000FFFFC7E0000
000FC7FFFE0000
000F81FFFC0000
000F807FFC0000
000F803FF80000
000F8007F00000
00000000000000
00000000000000
00000000000000
00000000000000
00000000000000
00000000000000
00000000000000
00000000000000
FE000000003F80
FF000000003F80
FF000000003F80
FF800000003F80
FFC00000003F80
FFE00000003F80
FFE00000003F80
FFF00000003F80
FFF80000003F80
FFF80000003F80
FFFC0000003F80
FFFE0000003F80
FFFE0000003F80
FEFF0000003F80
FE7F8000003F80
FE7F8000003F80
FE3FC000003F80
FE1FE000003F80
FE1FE000003F80
FE0FF000003F80
FE07F800003F80
FE07F800003F80
FE03FC00003F80
FE01FE00003F80
FE01FE00003F80
FE00FF00003F80
FE007F80003F80
FE003F80003F80
FE003FC0003F80
FE001FE0003F80
FE000FE0003F80
FE000FF0003F80
FE0007F8003F80
FE0003F8003F80
FE0003FC003F80
FE0001FE003F80
FE0000FE003F80
FE0000FF003F80
FE00007F803F80
FE00003F803F80
FE00003FC03F80
FE00001FE03F80
FE00000FE03F80
FE00000FF03F80
FE000007F83F80
FE000003F83F80
FE000003FC3F80
FE000001FE3F80
FE000000FE3F80
FE000000FF3F80
FE0000007FBF80
FE0000003FBF80
FE0000003FFF80
FE0000001FFF80
FE0000000FFF80
FE0000000FFF80
FE00000007FF80
FE00000003FF80
FE00000003FF80
FE00000001FF80
FE00000000FF80
FE00000000FF80
FE000000007F80
FE000000003F80
ENDCHAR
STARTCHAR 00D2
ENCODING 210
SWIDTH 720 0
DWIDTH 64 0
BBX 59 86 3 -1
BITMAP
000007E000000000
000007E000000000
000003E000000000
000003F000000000
000001F000000000
000001F800000000
000001F800000000
000000F800000000
000000FC00000000
0000007C00000000
0000007E00000000
0000007E00000000
0000003E00000000
0000003F00000000
0000000000000000
0000000000000000
0000000000000000
0000000000000000
0000000000000000
0000000000000000
000001FFE0000000
00001FFFFE000000
0000FFFFFFC00000
0003FFFFFFF00000
0007FFFFFFFC0000
001FFFFFFFFE0000
003FFFC0FFFF0000
007FF80007FF8000
00FFE00000FFC000
01FF8000007FE000
03FF0000001FF000
07FC0000000FF800
07F800000007F800
0FF000000003FC00
0FF000000001FE00
1FE000000001FE00
1FC000000000FF00
3FC000000000FF00
3F80000000007F00
3F80000000007F80
7F80000000003F80
7F00000000003F80
7F00000000003F80
7F00000000001FC0
FE00000000001FC0
FE00000000001FC0
FE00000000001FC0
FE00000000001FC0
FE00000000001FC0
FE00000000000FE0
FE00000000000FE0
FE00000000000FE0
FE00000000000FE0
FE00000000000FE0
FE00000000000FE0
FE00000000000FE0
FE00000000000FE0
FE00000000001FC0
FE00000000001FC0
FE00000000001FC0
FE00000000001FC0
FE00000000001FC0
7F00000000001FC0
7F00000000003F80
7F00000000003F80
7F00000000003F80
3F80000000007F80
3F80000000007F00
3FC000000000FF00
1FC000000000FF00
1FE000000001FE00
0FF000000001FE00
0FF000000003FC00
07F800000007F800
07FC0000000FF800
03FE0000001FF000
01FF8000007FE000
00FFE00000FFC000
007FF80007FF8000
003FFFC07FFF0000
001FFFFFFFFE0000
000FFFFFFFFC0000
0003FFFFFFF00000
0000FFFFFFC00000
00001FFFFE000000
000001FFE0000000
ENDCHAR
STARTCHAR 00D3
ENCODING 211
SWIDTH 720 0
DWIDTH 64 0
BBX 59 86 3 -1
BITMAP
00000000FC000000
00000000F8000000
00000001F8000000
00000001F8000000
00000001F0000000
00000003F0000000
00000003F0000000
00000003E0000000
00000007E0000000
00000007C0000000
0000000FC0000000
0000000FC0000000
0000000F80000000
0000001F80000000
0000000000000000
0000000000000000
0000000000000000
0000000000000000
0000000000000000
0000000000000000
000001FFE0000000
00001FFFFE000000
0000FFFFFFC00000
0003FFFFFFF00000
0007FFFFFFFC0000
001FFFFFFFFE0000
003FFFC0FFFF0000
007FF80007FF8000
00FFE00000FFC000
01FF8000007FE000
03FF0000001FF000
07FC0000000FF800
07F800000007F800
0FF000000003FC00
0FF000000001FE00
1FE000000001FE00
1FC000000000FF00
3FC000000000FF00
3F80000000007F00
3F80000000007F80
7F80000000003F80
7F00000000003F80
7F00000000003F80
7F00000000001FC0
FE00000000001FC0
FE00000000001FC0
FE00000000001FC0
FE00000000001FC0
FE00000000001FC0
FE00000000000FE0
FE00000000000FE0
FE00000000000FE0
FE00000000000FE0
FE00000000000FE0
FE00000000000FE0
FE00000000000FE0
FE00000000000FE0
FE00000000001FC0
FE00000000001FC0
FE00000000001FC0
FE00000000001FC0
FE00000000001FC0
7F00000000001FC0
7F00000000003F80
7F00000000003F80
7F00000000003F80
3F80000000007F80
3F80000000007F00
3FC000000000FF00
1FC000000000FF00
1FE000000001FE00
0FF000000001FE00
0FF000000003FC00
07F800000007F800
07FC0000000FF800
03FE0000001FF000
01FF8000007FE000
00FFE00000FFC000
007FF80007FF8000
003FFFC07FFF0000
001FFFFFFFFE0000
000FFFFFFFFC0000
0003FFFFFFF00000
0000FFFFFFC00000
00001FFFFE000000
000001FFE0000000
ENDCHAR
STARTCHAR 00D4
ENCODING 212
SWIDTH 720 0
DWIDTH 64 0
BBX 59 84 3 -1
BITMAP
0000003F80000000
0000007F80000000
000000FFC0000000
000001FFE0000000
000003FFF0000000
000007F3F8000000
000007E1FC000000
00000FC0FC000000
00001FC07E000000
00003F807F000000
00007F003F800000
0000FE001FC00000
0000000000000000
0000000000000000
0000000000000000
0000000000000000
0000000000000000
0000000000000000
000001FFE0000000
00001FFFFE000000
0000FFFFFFC00000
0003FFFFFFF00000
0007FFFFFFFC0000
001FFFFFFFFE0000
003FFFC0FFFF0000
007FF80007FF8000
00FFE00000FFC000
01FF8000007FE000
03FF0000001FF000
07FC0000000FF800
07F800000007F800
0FF000000003FC00
0FF000000001FE00
1FE000000001FE00
1FC000000000FF00
3FC000000000FF00
3F80000000007F00
3F80000000007F80
7F80000000003F80
7F00000000003F80
7F00000000003F80
7F00000000001FC0
FE00000000001FC0
FE00000000001FC0
FE00000000001FC0
FE00000000001FC0
FE00000000001FC0
FE00000000000FE0
FE00000000000FE0
FE00000000000FE0
FE00000000000FE0
FE00000000000FE0
FE00000000000FE0
FE00000000000FE0
FE00000000000FE0
FE00000000001FC0
FE00000000001FC0
FE00000000001FC0
FE00000000001FC0
FE00000000001FC0
7F00000000001FC0
7F00000000003F80
7F00000000003F80
7F00000000003F80
3F80000000007F80
3F80000000007F00
3FC000000000FF00
1FC000000000FF00
1FE000000001FE00
0FF000000001FE00
0FF000000003FC00
07F800000007F800
07FC0000000FF800
03FE0000001FF000
01FF8000007FE000
00FFE00000FFC000
007FF80007FF8000
003FFFC07FFF0000
001FFFFFFFFE0000
000FFFFFFFFC0000
0003FFFFFFF00000
0000FFFFFFC00000
00001FFFFE000000
000001FFE0000000
ENDCHAR
STARTCHAR 00D5
ENCODING 213
SWIDTH 720 0
DWIDTH 64 0
BBX 59 82 3 -1
BITMAP
00000FE003E00000
00003FF801E00000
00007FFE01E00000
00007FFF03E00000
0000FFFFE7E00000
0000FC3FFFE00000
0000F80FFFE00000
0000F807FFC00000
0000F801FF800000
000000003E000000
0000000000000000
0000000000000000
0000000000000000
0000000000000000
0000000000000000
0000000000000000
000001FFE0000000
00001FFFFE000000
0000FFFFFFC00000
0003FFFFFFF00000
0007FFFFFFFC0000
001FFFFFFFFE0000
003FFFC0FFFF0000
007FF80007FF8000
00FFE00000FFC000
01FF8000007FE000
03FF0000001FF000
07FC0000000FF800
07F800000007F800
0FF000000003FC00
0FF000000001FE00
1FE000000001FE00
1FC000000000FF00
3FC000000000FF00
3F80000000007F00
3F80000000007F80
7F80000000003F80
7F00000000003F80
7F00000000003F80
7F00000000001FC0
FE00000000001FC0
FE00000000001FC0
FE00000000001FC0
FE00000000001FC0
FE00000000001FC0
FE00000000000FE0
FE00000000000FE0
FE00000000000FE0
FE00000000000FE0
FE00000000000FE0
FE00000000000FE0
FE00000000000FE0
FE00000000000FE0
FE00000000001FC0
FE00000000001FC0
FE00000000001FC0
FE00000000001FC0
FE00000000001FC0
7F00000000001FC0
7F00000000003F80
7F00000000003F80
7F00000000003F80
3F80000000007F80
3F80000000007F00
3FC000000000FF00
1FC000000000FF00
1FE000000001FE00
0FF000000001FE00
0FF000000003FC00
07F800000007F800
07FC0000000FF800
03FE0000001FF000
01FF8000007FE000
00FFE00000FFC000
007FF80007FF8000
003FFFC07FFF0000
001FFFFFFFFE0000
000FFFFFFFFC0000
0003FFFFFFF00000
0000FFFFFFC00000
00001FFFFE000000
000001FFE0000000
ENDCHAR
STARTCHAR 00D6
ENCODING 214
SWIDTH 720 0
DWIDTH 64 0
BBX 59 81 3 -1
BITMAP
00007F003F800000
00007F003F800000
00007F003F800000
00007F003F800000
00007F003F800000
00007F003F800000
00007F003F800000
0000000000000000
0000000000000000
0000000000000000
0000000000000000
0000000000000000
0000000000000000
0000000000000000
0000000000000000
000001FFE0000000
00001FFFFE000000
0000FFFFFFC00000
0003FFFFFFF00000
0007FFFFFFFC0000
001FFFFFFFFE0000
003FFFC0FFFF0000
007FF80007FF8000
00FFE00000FFC000
01FF8000007FE000
03FF0000001FF000
07FC0000000FF800
07F800000007F800
0FF000000003FC00
0FF000000001FE00
1FE000000001FE00
1FC000000000FF00
3FC000000000FF00
3F80000000007F00
3F80000000007F80
7F80000000003F80
7F00000000003F80
7F00000000003F80
7F00000000001FC0
FE00000000001FC0
FE00000000001FC0
FE00000000001FC0
FE00000000001FC0
FE00000000001FC0
FE00000000000FE0
FE00000000000FE0
FE00000000000FE0
FE00000000000FE0
FE00000000000FE0
FE00000000000FE0
FE00000000000FE0
FE00000000000FE0
FE00000000001FC0
FE00000000001FC0
FE00000000001FC0
FE00000000001FC0
FE00000000001FC0
7F00000000001FC0
7F00000000003F80
7F00000000003F80
7F00000000003F80
3F80000000007F80
3F80000000007F00
3FC000000000FF00
1FC000000000FF00
1FE000000001FE00
0FF000000001FE00
0FF000000003FC00
07F800000007F800
07FC0000000FF800
03FE0000001FF000
01FF8000007FE000
00FFE00000FFC000
007FF80007FF8000
003FFFC07FFF0000
001FFFFFFFFE0000
000FFFFFFFFC0000
0003FFFFFFF00000
0000FFFFFFC00000
00001FFFFE000000
000001FFE0000000
ENDCHAR
STARTCHAR 00D7
ENCODING 215
SWIDTH 483 0
DWIDTH 43 0
BBX 32 32 6 15
BITMAP
10000008
3800001C
7C00003E
FE00007F
FF0000FE
7F8001FC
3FC003F8
1FE007F0
0FF00FE0
07F81FC0
03FC3F80
01FE7F00
00FFFE00
007FFC00
003FF800
001FF000
000FF000
001FF800
003FFC00
007FFE00
00FEFF00
01FC7F80
03F83FC0
07F01FE0
0FE00FF0
1FC007F8
3F8003FC
7F0001FE
FE0000FF
FC00007E
7800003C
30000018
ENDCHAR
STARTCHAR 00D8
ENCODING 216
SWIDTH 720 0
DWIDTH 64 0
BBX 61 66 2 -1
BITMAP
000000FFF0000080
00000FFFFF0001C0
00007FFFFFE003E0
0001FFFFFFF807F8
0003FFFFFFFE0FF8
000FFFFFFFFF1FF0
001FFFE07FFFDFE0
003FFC0003FFFFC0
007FF00000FFFF80
00FFC000003FFF00
01FF8000000FFE00
03FE00000007FE00
03FC00000003FE00
07F800000007FE00
07F80000000FFF00
0FF00000001FFF00
0FE00000003FFF80
1FE00000007FFF80
1FC0000000FF3F80
1FC0000001FE3FC0
3FC0000003FC1FC0
3F80000007F81FC0
3F8000000FF01FE0
3F8000001FF00FE0
7F0000003FE00FE0
7F0000007FC00FE0
7F0000007F800FE0
7F000000FF000FE0
7F000001FE000FE0
7F000003FC0007F0
7F000007F80007F0
7F00000FF00007F0
7F00001FE00007F0
7F00003FC00007F0
7F00007F800007F0
7F0000FF000007F0
7F0001FE000007E0
7F0003FE00000FE0
7F0007FC00000FE0
7F000FF800000FE0
7F000FF000000FE0
7F001FE000000FE0
3F803FC000000FE0
3F807F8000001FC0
3F80FF0000001FC0
3F81FE0000001FC0
1FC3FC0000003FC0
1FC7F80000003F80
1FEFF00000007F80
0FFFE00000007F00
0FFFC0000000FF00
07FFC0000000FF00
07FF80000001FE00
03FF00000003FC00
03FE00000007FC00
03FF0000000FF800
07FFC000003FF000
0FFFF000007FE000
1FFFFC0003FFC000
3FDFFFE03FFF8000
7FCFFFFFFFFF0000
FF87FFFFFFFE0000
FF01FFFFFFF80000
3E007FFFFFE00000
1C000FFFFF000000
080000FFF0000000
ENDCHAR
STARTCHAR 00D9
ENCODING 217
SWIDTH 697 0
DWIDTH 62 0
BBX 50 86 6 -1
BITMAP
00003F00000000
00001F00000000
00001F80000000
00001F80000000
00000F80000000
00000FC0000000
00000FC0000000
000007E0000000
000007E0000000
000003E0000000
000003F0000000
000003F0000000
000001F0000000
000001F8000000
00000000000000
00000000000000
00000000000000
00000000000000
00000000000000
00000000000000
00000000000000
FE000000000FC0
FE000000000FC0
FE000000000FC0
FE000000000FC0
FE000000000FC0
FE000000000FC0
FE000000000FC0
FE000000000FC0
FE000000000FC0
FE000000000FC0
FE000000000FC0
FE000000000FC0
FE000000000FC0
FE000000000FC0
FE000000000FC0
FE000000000FC0
FE000000000FC0
FE000000000FC0
FE000000000FC0
FE000000000FC0
FE000000000FC0
FE000000000FC0
FE000000000FC0
FE000000000FC0
FE000000000FC0
FE000000000FC0
FE000000000FC0
FE000000000FC0
FE000000000FC0
FE000000000FC0
FE000000000FC0
FE000000000FC0
FE000000000FC0
FE000000000FC0
FE000000000FC0
FE000000000FC0
FE000000000FC0
FE000000000FC0
FE000000000FC0
FE000000000FC0
FE000000000FC0
FE000000000FC0
FE000000001FC0
FE000000001FC0
FE000000001FC0
7E000000001FC0
7F000000001FC0
7F000000003F80
7F800000003F80
3F800000007F80
3FC00000007F00
3FC0000000FF00
1FE0000001FE00
1FF0000003FE00
0FF8000007FC00
07FC00000FFC00
07FF00003FF800
03FFC000FFF000
01FFFC07FFE000
007FFFFFFFC000
003FFFFFFF8000
001FFFFFFE0000
0007FFFFF80000
0000FFFFE00000
00001FFE000000
ENDCHAR
STARTCHAR 00DA
ENCODING 218
SWIDTH 697 0
DWIDTH 62 0
BBX 50 86 6 -1
BITMAP
0000001F000000
0000003F000000
0000003F000000
0000003E000000
0000007E000000
0000007C000000
000000FC000000
000000FC000000
000000F8000000
000001F8000000
000001F0000000
000003F0000000
000003F0000000
00000000000000
00000000000000
00000000000000
00000000000000
00000000000000
00000000000000
00000000000000
00000000000000
FE000000000FC0
FE000000000FC0
FE000000000FC0
FE000000000FC0
FE000000000FC0
FE000000000FC0
FE000000000FC0
FE000000000FC0
FE000000000FC0
FE000000000FC0
FE000000000FC0
FE000000000FC0
FE000000000FC0
FE000000000FC0
FE000000000FC0
FE000000000FC0
FE000000000FC0
FE000000000FC0
FE000000000FC0
FE000000000FC0
FE000000000FC0
FE000000000FC0
FE000000000FC0
FE000000000FC0
FE000000000FC0
FE000000000FC0
FE000000000FC0
FE000000000FC0
FE000000000FC0
FE000000000FC0
FE000000000FC0
FE000000000FC0
FE000000000FC0
FE000000000FC0
FE000000000FC0
FE000000000FC0
FE000000000FC0
FE000000000FC0
FE000000000FC0
FE000000000FC0
FE000000000FC0
FE000000000FC0
FE000000001FC0
FE000000001FC0
FE000000001FC0
7E000000001FC0
7F000000001FC0
7F000000003F80
7F800000003F80
3F800000007F80
3FC00000007F00
3FC0000000FF00
1FE0000001FE00
1FF0000003FE00
0FF8000007FC00
07FC00000FFC00
07FF00003FF800
03FFC000FFF000
01FFFC07FFE000
007FFFFFFFC000
003FFFFFFF8000
001FFFFFFE0000
0007FFFFF80000
0000FFFFE00000
00001FFE000000
ENDCHAR
STARTCHAR 00DB
ENCODING 219
SWIDTH 697 0
DWIDTH 62 0
BBX 50 85 6 -1
BITMAP
000003F8000000
000007F8000000
00000FFC000000
00001FFE000000
00003FFF000000
00007F3F800000
00007E1FC00000
0000FC0FE00000
0001FC07E00000
0003F803F00000
0007F003F80000
000FE001FC0000
00000000000000
00000000000000
00000000000000
00000000000000
00000000000000
00000000000000
00000000000000
00000000000000
FE000000000FC0
FE000000000FC0
FE000000000FC0
FE000000000FC0
FE000000000FC0
FE000000000FC0
FE000000000FC0
FE000000000FC0
FE000000000FC0
FE000000000FC0
FE000000000FC0
FE000000000FC0
FE000000000FC0
FE000000000FC0
FE000000000FC0
FE000000000FC0
FE000000000FC0
FE000000000FC0
FE000000000FC0
FE000000000FC0
FE000000000FC0
FE000000000FC0
FE000000000FC0
FE000000000FC0
FE000000000FC0
FE000000000FC0
FE000000000FC0
FE000000000FC0
FE000000000FC0
FE000000000FC0
FE000000000FC0
FE000000000FC0
FE000000000FC0
FE000000000FC0
FE000000000FC0
FE000000000FC0
FE000000000FC0
FE000000000FC0
FE000000000FC0
FE000000000FC0
FE000000000FC0
FE000000000FC0
FE000000001FC0
FE000000001FC0
FE000000001FC0
7E000000001FC0
7F000000001FC0
7F000000003F80
7F800000003F80
3F800000007F80
3FC00000007F00
3FC0000000FF00
1FE0000001FE00
1FF0000003FE00
0FF8000007FC00
07FC00000FFC00
07FF00003FF800
03FFC000FFF000
01FFFC07FFE000
007FFFFFFFC000
003FFFFFFF8000
001FFFFFFE0000
0007FFFFF80000
0000FFFFE00000
00001FFE000000
ENDCHAR
STARTCHAR 00DC
ENCODING 220
SWIDTH 697 0
DWIDTH 62 0
BBX 50 81 6 -1
BITMAP
0007F003F80000
0007F003F80000
0007F003F80000
0007F003F80000
0007F003F80000
0007F003F80000
0007F003F80000
00000000000000
00000000000000
00000000000000
00000000000000
00000000000000
00000000000000
00000000000000
00000000000000
00000000000000
FE000000000FC0
FE000000000FC0
FE000000000FC0
FE000000000FC0
FE000000000FC0
FE000000000FC0
FE000000000FC0
FE000000000FC0
FE000000000FC0
FE000000000FC0
FE000000000FC0
FE000000000FC0
FE000000000FC0
FE000000000FC0
FE000000000FC0
FE000000000FC0
FE000000000FC0
FE000000000FC0
FE000000000FC0
FE000000000FC0
FE000000000FC0
FE000000000FC0
FE000000000FC0
FE000000000FC0
FE000000000FC0
FE000000000FC0
FE000000000FC0
FE000000000FC0
FE000000000FC0
FE000000000FC0
FE000000000FC0
FE000000000FC0
FE000000000FC0
FE000000000FC0
FE000000000FC0
FE000000000FC0
FE000000000FC0
FE000000000FC0
FE000000000FC0
FE000000000FC0
FE000000000FC0
FE000000000FC0
FE000000001FC0
FE000000001FC0
FE000000001FC0
7E000000001FC0
7F000000001FC0
7F000000003F80
7F800000003F80
3F800000007F80
3FC00000007F00
3FC0000000FF00
1FE0000001FE00
1FF0000003FE00
0FF8000007FC00
07FC00000FFC00
07FF00003FF800
03FFC000FFF000
01FFFC07FFE000
007FFFFFFFC000
003FFFFFFF8000
001FFFFFFE0000
0007FFFFF80000
0000FFFFE00000
00001FFE000000
ENDCHAR
STARTCHAR 00DD
ENCODING 221
SWIDTH 551 0
DWIDTH 49 0
BBX 49 85 0 0
BITMAP
0000003F000000
0000003E000000
0000007E000000
0000007E000000
0000007C000000
000000FC000000
000000F8000000
000001F8000000
000001F8000000
000001F0000000
000003F0000000
000003E0000000
000007E0000000
00000000000000
00000000000000
00000000000000
00000000000000
00000000000000
00000000000000
00000000000000
00000000000000
FF000000003F80
7F000000007F80
7F80000000FF00
3FC0000000FE00
1FC0000001FE00
1FE0000001FC00
0FE0000003FC00
0FF0000003F800
07F0000007F800
07F800000FF000
03FC00000FE000
01FC00001FE000
01FE00001FC000
00FE00003FC000
00FF00003F8000
007F80007F8000
007F8000FF0000
003FC000FE0000
001FC001FE0000
001FE001FC0000
000FE003FC0000
000FF007F80000
0007F807F80000
0003F80FF00000
0003FC0FE00000
0001FC1FE00000
0001FE1FC00000
0000FE3FC00000
0000FF7F800000
00007FFF000000
00003FFF000000
00003FFE000000
00001FFE000000
00001FFC000000
00000FFC000000
00000FF8000000
000007F0000000
000007F0000000
000007F0000000
000007F0000000
000007F0000000
000007F0000000
000007F0000000
000007F0000000
000007F0000000
000007F0000000
000007F0000000
000007F0000000
000007F0000000
000007F0000000
000007F0000000
000007F0000000
000007F0000000
000007F0000000
000007F0000000
000007F0000000
000007F0000000
000007F0000000
000007F0000000
000007F0000000
000007F0000000
000007F0000000
000007F0000000
000007F0000000
ENDCHAR
STARTCHAR 00DE
ENCODING 222
SWIDTH 596 0
DWIDTH 53 0
BBX 44 64 6 0
BITMAP
FE0000000000
FE0000000000
FE0000000000
FE0000000000
FE0000000000
FE0000000000
FE0000000000
FE0000000000
FE0000000000
FE0000000000
FE0000000000
FE0000000000
FFFFFFF00000
FFFFFFFF0000
FFFFFFFFC000
FFFFFFFFE000
FFFFFFFFF800
FFFFFFFFFC00
FE00003FFE00
FE000007FF00
FE000001FF00
FE0000007F80
FE0000003FC0
FE0000003FC0
FE0000001FE0
FE0000000FE0
FE0000000FE0
FE00000007F0
FE00000007F0
FE00000007F0
FE00000007F0
FE00000007F0
FE00000007F0
FE00000007F0
FE00000007F0
FE00000007F0
FE00000007F0
FE0000000FE0
FE0000000FE0
FE0000001FE0
FE0000001FC0
FE0000003FC0
FE0000007F80
FE000001FF00
FE000007FF00
FE00003FFE00
FFFFFFFFFC00
FFFFFFFFF800
FFFFFFFFF000
FFFFFFFFC000
FFFFFFFF0000
FFFFFFF80000
FE0000000000
FE0000000000
FE0000000000
FE0000000000
FE0000000000
FE0000000000
FE0000000000
FE0000000000
FE0000000000
FE0000000000
FE0000000000
FE0000000000
ENDCHAR
STARTCHAR 00DF
ENCODING 223
SWIDTH 596 0
DWIDTH 53 0
BBX 42 66 6 -1
BITMAP
0007FE000000
003FFFC00000
00FFFFF00000
03FFFFFC0000
07FFFFFE0000
0FFFFFFF0000
1FFF07FF8000
1FF800FFC000
3FE0003FC000
3FC0001FE000
7F80000FE000
7F00000FE000
7F000007F000
FF000007F000
FE000007F000
FE000007F000
FE000003F000
FE000003F000
FE000007F000
FE000007F000
FE000007F000
FE000007F000
FE00000FE000
FE00000FE000
FE00001FE000
FE00003FC000
FE0000FF8000
FE0007FF0000
FE003FFE0000
FE003FFC0000
FE003FFC0000
FE003FFF8000
FE003FFFC000
FE003FFFF000
FE0001FFF800
FE00001FFC00
FE000007FE00
FE000001FE00
FE000000FF00
FE0000007F00
FE0000003F80
FE0000003F80
FE0000003F80
FE0000001FC0
FE0000001FC0
FE0000001FC0
FE0000001FC0
FE0000001FC0
FE0000001FC0
FE0000001FC0
FE0000001FC0
FE0000003F80
FE0000003F80
FE0000007F80
FE0000007F80
FE000000FF00
FE000001FF00
FE000007FE00
FE00001FFE00
FE03FFFFFC00
FE03FFFFF800
FE03FFFFF000
FE03FFFFE000
FE03FFFF8000
FE03FFFE0000
0000FFE00000
ENDCHAR
STARTCHAR 00E0
ENCODING 224
SWIDTH 551 0
DWIDTH 49 0
BBX 40 70 4 -1
BITMAP
0007E00000
0003E00000
0003F00000
0001F00000
0001F80000
0001F80000
0000F80000
0000FC0000
00007C0000
00007E0000
00007E0000
00003E0000
00003F0000
00003F0000
0000000000
0000000000
0000000000
0000000000
0000000000
0000000000
0001FFC000
000FFFFC00
003FFFFF00
00FFFFFFC0
01FFFFFFE0
03FFFFFFF0
07FF807FF8
0FFC000FFC
1FF00003FC
1FE00001FE
3FC00000FE
3F800000FE
3F8000007F
3F0000007F
030000007F
000000007F
000000003F
000000003F
000000003F
0000001FFF
00000FFFFF
0003FFFFFF
003FFFFFFF
00FFFFFFFF
03FFFFFF3F
0FFFFF003F
1FFFC0007F
3FFC00007F
3FE000007F
7F8000007F
FF0000007F
FE0000007F
FE0000007F
FC0000007F
FC000000FF
FC000000FF
FC000001FF
FC000001FF
FC000003FF
FE000007FF
FF00000FFF
7F00001FFF
7FC0007FBF
3FE001FF3F
3FFFFFFE3F
1FFFFFFC3F
0FFFFFF83F
03FFFFE03F
00FFFF803F
001FF80000
ENDCHAR
STARTCHAR 00E1
ENCODING 225
SWIDTH 551 0
DWIDTH 49 0
BBX 40 70 4 -1
BITMAP
000000F800
000001F800
000001F000
000003F000
000003F000
000003E000
000007E000
000007C000
00000FC000
00000FC000
00000F8000
00001F8000
00001F0000
00003F0000
0000000000
0000000000
0000000000
0000000000
0000000000
0000000000
0001FFC000
000FFFFC00
003FFFFF00
00FFFFFFC0
01FFFFFFE0
03FFFFFFF0
07FF807FF8
0FFC000FFC
1FF00003FC
1FE00001FE
3FC00000FE
3F800000FE
3F8000007F
3F0000007F
030000007F
000000007F
000000003F
000000003F
000000003F
0000001FFF
00000FFFFF
0003FFFFFF
003FFFFFFF
00FFFFFFFF
03FFFFFF3F
0FFFFF003F
1FFFC0007F
3FFC00007F
3FE000007F
7F8000007F
FF0000007F
FE0000007F
FE0000007F
FC0000007F
FC000000FF
FC000000FF
FC000001FF
FC000001FF
FC000003FF
FE000007FF
FF00000FFF
7F00001FFF
7FC0007FBF
3FE001FF3F
3FFFFFFE3F
1FFFFFFC3F
0FFFFFF83F
03FFFFE03F
00FFFF803F
001FF80000
ENDCHAR
STARTCHAR 00E2
ENCODING 226
SWIDTH 551 0
DWIDTH 49 0
BBX 40 68 4 -1
BITMAP
00003F8000
00007FC000
0000FFE000
0001FFE000
0003FBF000
0003F3F800
0007F1FC00
000FE0FE00
001FC07F00
003F803F00
007F001F80
007E001FC0
0000000000
0000000000
0000000000
0000000000
0000000000
0000000000
0001FFC000
000FFFFC00
003FFFFF00
00FFFFFFC0
01FFFFFFE0
03FFFFFFF0
07FF807FF8
0FFC000FFC
1FF00003FC
1FE00001FE
3FC00000FE
3F800000FE
3F8000007F
3F0000007F
030000007F
000000007F
000000003F
000000003F
000000003F
0000001FFF
00000FFFFF
0003FFFFFF
003FFFFFFF
00FFFFFFFF
03FFFFFF3F
0FFFFF003F
1FFFC0007F
3FFC00007F
3FE000007F
7F8000007F
FF0000007F
FE0000007F
FE0000007F
FC0000007F
FC000000FF
FC000000FF
FC000001FF
FC000001FF
FC000003FF
FE000007FF
FF00000FFF
7F00001FFF
7FC0007FBF
3FE001FF3F
3FFFFFFE3F
1FFFFFFC3F
0FFFFFF83F
03FFFFE03F
00FFFF803F
001FF80000
ENDCHAR
STARTCHAR 00E3
ENCODING 227
SWIDTH 551 0
DWIDTH 49 0
BBX 40 66 4 -1
BITMAP
000FE003E0
003FF801E0
007FFE01E0
007FFF03E0
00FFFFE7E0
00FC3FFFE0
00F80FFFE0
00F807FFC0
00F801FF80
0000003E00
0000000000
0000000000
0000000000
0000000000
0000000000
0000000000
0001FFC000
000FFFFC00
003FFFFF00
00FFFFFFC0
01FFFFFFE0
03FFFFFFF0
07FF807FF8
0FFC000FFC
1FF00003FC
1FE00001FE
3FC00000FE
3F800000FE
3F8000007F
3F0000007F
030000007F
000000007F
000000003F
000000003F
000000003F
0000001FFF
00000FFFFF
0003FFFFFF
003FFFFFFF
00FFFFFFFF
03FFFFFF3F
0FFFFF003F
1FFFC0007F
3FFC00007F
3FE000007F
7F8000007F
FF0000007F
FE0000007F
FE0000007F
FC0000007F
FC000000FF
FC000000FF
FC000001FF
FC000001FF
FC000003FF
FE000007FF
FF00000FFF
7F00001FFF
7FC0007FBF
3FE001FF3F
3FFFFFFE3F
1FFFFFFC3F
0FFFFFF83F
03FFFFE03F
00FFFF803F
001FF80000
ENDCHAR
STARTCHAR 00E4
ENCODING 228
SWIDTH 551 0
DWIDTH 49 0
BBX 40 65 4 -1
BITMAP
003F801FC0
003F801FC0
003F801FC0
003F801FC0
003F801FC0
003F801FC0
003F801FC0
0000000000
0000000000
0000000000
0000000000
0000000000
0000000000
0000000000
0000000000
0001FFC000
000FFFFC00
003FFFFF00
00FFFFFFC0
01FFFFFFE0
03FFFFFFF0
07FF807FF8
0FFC000FFC
1FF00003FC
1FE00001FE
3FC00000FE
3F800000FE
3F8000007F
3F0000007F
030000007F
000000007F
000000003F
000000003F
000000003F
0000001FFF
00000FFFFF
0003FFFFFF
003FFFFFFF
00FFFFFFFF
03FFFFFF3F
0FFFFF003F
1FFFC0007F
3FFC00007F
3FE000007F
7F8000007F
7F0000007F
FE0000007F
FE0000007F
FC0000007F
FC000000FF
FC000000FF
FC000001FF
FC000001FF
FC000003FF
FE000007FF
FF00000FFF
7F00001FFF
7FC0007FBF
3FE001FF3F
3FFFFFFE3F
1FFFFFFC3F
0FFFFFF83F
03FFFFE03F
00FFFF803F
001FF80000
ENDCHAR
STARTCHAR 00E5
ENCODING 229
SWIDTH 551 0
DWIDTH 49 0
BBX 40 73 4 -1
BITMAP
00003F0000
0000FFC000
0001FFF000
0003FFF800
0007FFFC00
0007E0FC00
000FC07E00
000F803E00
000F803E00
000F003E00
000F803E00
000F803E00
000FC07E00
000FE0FC00
0007FFFC00
0003FFF800
0001FFF000
0000FFE000
00003F8000
0000000000
0000000000
0000000000
0000000000
0001FFC000
000FFFFC00
003FFFFF00
00FFFFFFC0
01FFFFFFE0
03FFFFFFF0
07FF807FF8
0FFC000FFC
1FF00003FC
1FE00001FE
3FC00000FE
3F800000FE
3F8000007F
3F0000007F
030000007F
000000007F
000000003F
000000003F
000000003F
0000001FFF
00000FFFFF
0003FFFFFF
003FFFFFFF
00FFFFFFFF
03FFFFFF3F
0FFFFF003F
1FFFC0007F
3FFC00007F
3FE000007F
7F8000007F
FF0000007F
FE0000007F
FE0000007F
FC0000007F
FC000000FF
FC000000FF
FC000001FF
FC000001FF
FC000003FF
FE000007FF
FF00000FFF
7F00001FFF
7FC0007FBF
3FE001FF3F
3FFFFFFE3F
1FFFFFFC3F
0FFFFFF83F
03FFFFE03F
00FFFF803F
001FF80000
ENDCHAR
STARTCHAR 00E6
ENCODING 230
SWIDTH 945 0
DWIDTH 84 0
BBX 76 50 4 -1
BITMAP
0000FFC000001FF00000
000FFFFC0001FFFF0000
003FFFFF0007FFFFC000
00FFFFFF801FFFFFE000
01FFFFFFE03FFFFFF000
03FFFFFFF07FFFFFF800
07FFC0FFF0FFE01FFC00
0FFC000FF9FF0003FE00
1FF00007FFFE0000FF00
1FE00003FFFC00007F00
3FC00001FFF800003F80
3F800000FFF000001F80
3F800000FFE000001FC0
1F0000007FE000000FC0
030000007FC000000FE0
000000007FC000000FE0
000000007F80000007E0
000000007F80000007E0
000000003F80000007F0
000000003F80000007F0
000000003F80000007F0
00007FFFFFFFFFFFFFF0
001FFFFFFFFFFFFFFFF0
00FFFFFFFFFFFFFFFFF0
03FFFFFFFFFFFFFFFFF0
0FFFFFFFFFFFFFFFFFF0
1FFFC0003FFFFFFFFFF0
3FF800003F0000000000
7FC000007F0000000000
7F8000007F8000000000
FF0000007F8000000000
FE0000007F8000000000
FE0000007F8000000000
FC0000007F8000000000
FC000000FFC000000000
FC000000FFC000000600
FC000001FFE000000FC0
FC000001FFE000000FE0
FC000003F7F000001FE0
FE000007F7F800003FC0
FE00000FE3FC00007F80
7F00001FE3FE0000FF80
7F80007FC1FF8003FF00
3FE003FF80FFF83FFE00
3FFFFFFF007FFFFFFC00
1FFFFFFE003FFFFFF800
0FFFFFFC001FFFFFE000
03FFFFF00007FFFFC000
00FFFFC00001FFFF0000
001FFC0000001FF00000
ENDCHAR
STARTCHAR 00E7
ENCODING 231
SWIDTH 551 0
DWIDTH 49 0
BBX 42 70 4 -21
BITMAP
00007FE00000
0007FFFE0000
001FFFFF8000
007FFFFFE000
00FFFFFFF000
01FFFFFFF800
03FFF07FFC00
07FF000FFE00
0FFC0003FF00
0FF00000FF80
1FE000007F80
3FC000003FC0
3FC000003FC0
3F8000001F80
7F8000000C00
7F0000000000
7F0000000000
FE0000000000
FE0000000000
FE0000000000
FE0000000000
FE0000000000
FE0000000000
FE0000000000
FC0000000000
FC0000000000
FE0000000000
FE0000000000
FE0000000000
FE0000000000
FE0000000000
FE0000000000
FE0000000000
7F0000000000
7F0000000000
7F8000000800
3F8000001F00
3FC000003FC0
3FC000003FC0
1FE000007F80
0FF00000FF80
0FF80001FF00
07FE0007FE00
03FFE07FFC00
01FFFFFFF800
00FFFFFFF000
007FFFFFE000
001FFFFF8000
0007FFFE0000
00007FF00000
00001F000000
00001F000000
00001F000000
00003E000000
00003F000000
00003F800000
00007FC00000
00001FE00000
000007F00000
000003F00000
000001F00000
000001F00000
000001F00000
000003F00000
000087F00000
0000FFE00000
0001FFE00000
0001FFC00000
0003FF800000
0000FE000000
ENDCHAR
STARTCHAR 00E8
ENCODING 232
SWIDTH 585 0
DWIDTH 52 0
BBX 44 70 4 -1
BITMAP
0001F8000000
0001F8000000
0000F8000000
0000FC000000
00007C000000
00007E000000
00007E000000
00003E000000
00003F000000
00003F000000
00001F000000
00001F800000
00000F800000
00000FC00000
000000000000
000000000000
000000000000
000000000000
000000000000
000000000000
00007FE00000
0003FFFE0000
001FFFFF8000
003FFFFFE000
00FFFFFFF000
01FFFFFFF800
03FFC01FFC00
07FE0003FE00
0FF80001FF00
0FF000007F00
1FE000007F80
1FC000003FC0
3F8000001FC0
3F8000001FC0
7F0000000FE0
7F0000000FE0
7F00000007E0
FE00000007F0
FE00000007F0
FE00000007F0
FE00000007F0
FE00000007F0
FFFFFFFFFFF0
FFFFFFFFFFF0
FFFFFFFFFFF0
FFFFFFFFFFF0
FFFFFFFFFFF0
FE0000000000
FE0000000000
FE0000000000
FE0000000000
FE0000000000
FE0000000000
7F0000000000
7F0000000000
7F0000000600
3F8000000FC0
3FC000000FE0
3FC000001FE0
1FE000003FC0
0FF000007F80
0FFC0001FF80
07FE0007FF00
03FFE07FFE00
01FFFFFFFC00
00FFFFFFF800
003FFFFFE000
001FFFFF8000
0003FFFE0000
00007FF00000
ENDCHAR
STARTCHAR 00E9
ENCODING 233
SWIDTH 585 0
DWIDTH 52 0
BBX 44 70 4 -1
BITMAP
0000003E0000
0000007E0000
0000007C0000
000000FC0000
000000FC0000
000000F80000
000001F80000
000001F00000
000003F00000
000003F00000
000003E00000
000007E00000
000007C00000
00000FC00000
000000000000
000000000000
000000000000
000000000000
000000000000
000000000000
00007FE00000
0003FFFE0000
001FFFFF8000
003FFFFFE000
00FFFFFFF000
01FFFFFFF800
03FFC01FFC00
07FE0003FE00
0FF80001FF00
0FF000007F00
1FE000007F80
1FC000003FC0
3F8000001FC0
3F8000001FC0
7F0000000FE0
7F0000000FE0
7F00000007E0
FE00000007F0
FE00000007F0
FE00000007F0
FE00000007F0
FE00000007F0
FFFFFFFFFFF0
FFFFFFFFFFF0
FFFFFFFFFFF0
FFFFFFFFFFF0
FFFFFFFFFFF0
FE0000000000
FE0000000000
FE0000000000
FE0000000000
FE0000000000
FE0000000000
7F0000000000
7F0000000000
7F0000000600
3F8000000FC0
3FC000000FE0
3FC000001FE0
1FE000003FC0
0FF000007F80
0FFC0001FF80
07FE0007FF00
03FFE07FFE00
01FFFFFFFC00
00FFFFFFF800
003FFFFFE000
001FFFFF8000
0003FFFE0000
00007FF00000
ENDCHAR
STARTCHAR 00EA
ENCODING 234
SWIDTH 585 0
DWIDTH 52 0
BBX 44 68 4 -1
BITMAP
00001FC00000
00003FE00000
00007FE00000
0000FFF00000
0001FFF80000
0003F9FC0000
0003F0FE0000
0007F07F0000
000FE03F0000
001FC01F8000
003F801FC000
007F000FE000
000000000000
000000000000
000000000000
000000000000
000000000000
000000000000
00007FE00000
0003FFFE0000
001FFFFF8000
003FFFFFE000
00FFFFFFF000
01FFFFFFF800
03FFC01FFC00
07FE0003FE00
0FF80001FF00
0FF000007F00
1FE000007F80
1FC000003FC0
3F8000001FC0
3F8000001FC0
7F0000000FE0
7F0000000FE0
7F00000007E0
FE00000007F0
FE00000007F0
FE00000007F0
FE00000007F0
FE00000007F0
FFFFFFFFFFF0
FFFFFFFFFFF0
FFFFFFFFFFF0
FFFFFFFFFFF0
FFFFFFFFFFF0
FE0000000000
FE0000000000
FE0000000000
FE0000000000
FE0000000000
FE0000000000
7F0000000000
7F0000000000
7F0000000600
3F8000000FC0
3FC000000FE0
3FC000001FE0
1FE000003FC0
0FF000007F80
0FFC0001FF80
07FE0007FF00
03FFE07FFE00
01FFFFFFFC00
00FFFFFFF800
003FFFFFE000
001FFFFF8000
0003FFFE0000
00007FF00000
ENDCHAR
STARTCHAR 00EB
ENCODING 235
SWIDTH 585 0
DWIDTH 52 0
BBX 44 65 4 -1
BITMAP
003F801FC000
003F801FC000
003F801FC000
003F801FC000
003F801FC000
003F801FC000
003F801FC000
000000000000
000000000000
000000000000
000000000000
000000000000
000000000000
000000000000
000000000000
00007FE00000
0003FFFE0000
001FFFFF8000
003FFFFFE000
00FFFFFFF000
01FFFFFFF800
03FFC01FFC00
07FE0003FE00
0FF80001FF00
0FF000007F00
1FE000007F80
1FC000003FC0
3F8000001FC0
3F8000001FC0
7F0000000FE0
7F0000000FE0
7F00000007E0
FE00000007F0
FE00000007F0
FE00000007F0
FE00000007F0
FE00000007F0
FFFFFFFFFFF0
FFFFFFFFFFF0
FFFFFFFFFFF0
FFFFFFFFFFF0
FFFFFFFFFFF0
FE0000000000
FE0000000000
FE0000000000
FE0000000000
FE0000000000
FE0000000000
7F0000000000
7F0000000000
7F0000000600
3F8000000FC0
3FC000000FE0
3FC000001FE0
1FE000003FC0
0FF000007F80
0FFC0001FF80
07FE0007FF00
03FFE07FFE00
01FFFFFFFC00
00FFFFFFF800
003FFFFFE000
001FFFFF8000
0003FFFE0000
00007FF00000
ENDCHAR
STARTCHAR 00EC
ENCODING 236
SWIDTH 236 0
DWIDTH 21 0
BBX 12 69 2 0
BITMAP
FC00
7C00
7E00
7E00
3E00
3F00
1F00
1F80
1F80
0F80
0FC0
07C0
07E0
07E0
0000
0000
0000
0000
0000
0000
0000
07F0
07F0
07F0
07F0
07F0
07F0
07F0
07F0
07F0
07F0
07F0
07F0
07F0
07F0
07F0
07F0
07F0
07F0
07F0
07F0
07F0
07F0
07F0
07F0
07F0
07F0
07F0
07F0
07F0
07F0
07F0
07F0
07F0
07F0
07F0
07F0
07F0
07F0
07F0
07F0
07F0
07F0
07F0
07F0
07F0
07F0
07F0
07F0
ENDCHAR
STARTCHAR 00ED
ENCODING 237
SWIDTH 236 0
DWIDTH 21 0
BBX 11 69 7 0
BITMAP
03E0
07E0
07E0
07C0
0FC0
0F80
1F80
1F80
1F00
3F00
3E00
7E00
7E00
0000
0000
0000
0000
0000
0000
0000
0000
FE00
FE00
FE00
FE00
FE00
FE00
FE00
FE00
FE00
FE00
FE00
FE00
FE00
FE00
FE00
FE00
FE00
FE00
FE00
FE00
FE00
FE00
FE00
FE00
FE00
FE00
FE00
FE00
FE00
FE00
FE00
FE00
FE00
FE00
FE00
FE00
FE00
FE00
FE00
FE00
FE00
FE00
FE00
FE00
FE00
FE00
FE00
FE00
ENDCHAR
STARTCHAR 00EE
ENCODING 238
SWIDTH 236 0
DWIDTH 21 0
BBX 25 68 -2 0
BITMAP
007F0000
00FF8000
01FFC000
01FFE000
03F7E000
07F3F000
0FE3F800
1FC1FC00
3F80FE00
3F007F00
7E003F80
FC001F80
00000000
00000000
00000000
00000000
00000000
00000000
00000000
00000000
007F0000
007F0000
007F0000
007F0000
007F0000
007F0000
007F0000
007F0000
007F0000
007F0000
007F0000
007F0000
007F0000
007F0000
007F0000
007F0000
007F0000
007F0000
007F0000
007F0000
007F0000
007F0000
007F0000
007F0000
007F0000
007F0000
007F0000
007F0000
007F0000
007F0000
007F0000
007F0000
007F0000
007F0000
007F0000
007F0000
007F0000
007F0000
007F0000
007F0000
007F0000
007F0000
007F0000
007F0000
007F0000
007F0000
007F0000
007F0000
ENDCHAR
STARTCHAR 00EF
ENCODING 239
SWIDTH 236 0
DWIDTH 21 0
BBX 24 64 -2 0
BITMAP
FE007F
FE007F
FE007F
FE007F
FE007F
FE007F
FE007F
000000
000000
000000
000000
000000
000000
000000
000000
000000
007F00
007F00
007F00
007F00
007F00
007F00
007F00
007F00
007F00
007F00
007F00
007F00
007F00
007F00
007F00
007F00
007F00
007F00
007F00
007F00
007F00
007F00
007F00
007F00
007F00
007F00
007F00
007F00
007F00
007F00
007F00
007F00
007F00
007F00
007F00
007F00
007F00
007F00
007F00
007F00
007F00
007F00
007F00
007F00
007F00
007F00
007F00
007F00
ENDCHAR
STARTCHAR 00F0
ENCODING 240
SWIDTH 585 0
DWIDTH 52 0
BBX 44 71 4 -1
BITMAP
000000008000
00000001C000
00000003E000
00000007F800
0000FE07F000
0000FFCFE000
0000FFFFC000
0000FFFF8000
0000FFFF0000
00001FFF8000
000001FFC000
000001FFE000
000003FFF000
000007FFF800
000007F7F800
00000FE1FC00
00000FC1FC00
00000780FE00
000003807F00
000001003F00
000000003F80
000000001F80
000000001F80
000000000FC0
0000FFE00FC0
0007FFFC0FC0
001FFFFF07E0
007FFFFFC7E0
00FFFFFFE7E0
03FFFFFFFFE0
07FF803FFFE0
07FC0007FFE0
0FF80001FFF0
1FE00000FFF0
1FC000007FF0
3FC000003FF0
3F8000001FF0
7F0000001FF0
7F0000000FF0
7E0000000FF0
FE00000007F0
FE00000007F0
FE00000007F0
FE00000007F0
FC00000007F0
FC00000007F0
FC00000007F0
FC00000007F0
FC00000007F0
FC00000007F0
FC00000007F0
FE00000007F0
FE00000007F0
FE00000007F0
FE00000007E0
7F0000000FE0
7F0000000FE0
7F0000001FE0
3F8000001FC0
3FC000003FC0
1FC000007F80
1FE00000FF80
0FF80001FF00
07FE0007FE00
03FFC03FFC00
03FFFFFFF800
00FFFFFFF000
007FFFFFE000
001FFFFF8000
0007FFFE0000
0000FFE00000
ENDCHAR
STARTCHAR 00F1
ENCODING 241
SWIDTH 596 0
DWIDTH 53 0
BBX 41 66 6 0
BITMAP
001F80000000
007FE007C000
00FFF807C000
00FFFE07C000
01FFFF8FC000
01F9FFFFC000
01F03FFF8000
01F00FFF8000
01F007FF0000
01F000FE0000
000000000000
000000000000
000000000000
000000000000
000000000000
000000000000
000000000000
00007FE00000
FC03FFFC0000
FC0FFFFF0000
FC3FFFFFC000
FC7FFFFFE000
FCFFFFFFF000
FDFFC0FFF800
FFFE001FF800
FFF80007FC00
FFF00003FE00
FFE00001FE00
FFC00000FE00
FF800000FF00
FF8000007F00
FF0000007F00
FF0000003F80
FF0000003F80
FE0000003F80
FE0000003F80
FE0000001F80
FE0000001F80
FE0000001F80
FE0000001F80
FE0000001F80
FE0000001F80
FE0000001F80
FE0000001F80
FE0000001F80
FE0000001F80
FE0000001F80
FE0000001F80
FE0000001F80
FE0000001F80
FE0000001F80
FE0000001F80
FE0000001F80
FE0000001F80
FE0000001F80
FE0000001F80
FE0000001F80
FE0000001F80
FE0000001F80
FE0000001F80
FE0000001F80
FE0000001F80
FE0000001F80
FE0000001F80
FE0000001F80
FE0000001F80
ENDCHAR
STARTCHAR 00F2
ENCODING 242
SWIDTH 596 0
DWIDTH 53 0
BBX 45 70 4 -1
BITMAP
0003F0000000
0003F0000000
0001F0000000
0001F8000000
0001F8000000
0000FC000000
0000FC000000
00007C000000
00007E000000
00007E000000
00003E000000
00003F000000
00001F000000
00001F800000
000000000000
000000000000
000000000000
000000000000
000000000000
000000000000
00007FE00000
0003FFFE0000
001FFFFF8000
003FFFFFE000
00FFFFFFF000
01FFFFFFFC00
03FFF07FFE00
07FF0007FE00
0FFC0001FF00
0FF00000FF80
1FE000007FC0
3FC000003FC0
3FC000001FE0
3F8000000FE0
7F0000000FE0
7F0000000FF0
7F00000007F0
FE00000007F0
FE00000007F0
FE00000003F8
FE00000003F8
FE00000003F8
FE00000003F8
FC00000003F8
FC00000003F8
FC00000003F8
FE00000003F8
FE00000003F8
FE00000003F8
FE00000003F8
FE00000003F8
FE00000007F0
FE00000007F0
7F00000007F0
7F0000000FF0
7F8000000FE0
3F8000001FE0
3FC000001FE0
3FC000003FC0
1FE000007FC0
0FF00000FF80
0FFC0001FF00
07FF0007FE00
03FFF07FFE00
01FFFFFFFC00
00FFFFFFF000
003FFFFFE000
001FFFFF8000
0003FFFE0000
00007FF00000
ENDCHAR
STARTCHAR 00F3
ENCODING 243
SWIDTH 596 0
DWIDTH 53 0
BBX 45 70 4 -1
BITMAP
0000007C0000
000000FC0000
000000F80000
000001F80000
000001F80000
000001F00000
000003F00000
000003E00000
000007E00000
000007E00000
000007C00000
00000FC00000
00000FC00000
00000F800000
000000000000
000000000000
000000000000
000000000000
000000000000
000000000000
00007FE00000
0003FFFE0000
001FFFFF8000
003FFFFFE000
00FFFFFFF000
01FFFFFFFC00
03FFF07FFE00
07FF0007FE00
0FFC0001FF00
0FF00000FF80
1FE000007FC0
3FC000003FC0
3FC000001FE0
3F8000000FE0
7F0000000FE0
7F0000000FF0
7F00000007F0
FE00000007F0
FE00000007F0
FE00000003F8
FE00000003F8
FE00000003F8
FE00000003F8
FC00000003F8
FC00000003F8
FC00000003F8
FE00000003F8
FE00000003F8
FE00000003F8
FE00000003F8
FE00000003F8
FE00000007F0
FE00000007F0
7F00000007F0
7F0000000FF0
7F8000000FE0
3F8000001FE0
3FC000001FE0
3FC000003FC0
1FE000007FC0
0FF00000FF80
0FFC0001FF00
07FF0007FE00
03FFF07FFE00
01FFFFFFFC00
00FFFFFFF000
003FFFFFE000
001FFFFF8000
0003FFFE0000
00007FF00000
ENDCHAR
STARTCHAR 00F4
ENCODING 244
SWIDTH 596 0
DWIDTH 53 0
BBX 45 68 4 -1
BITMAP
00001FC00000
00003FE00000
00007FE00000
0000FFF00000
0001FFF80000
0001F9FC0000
0003F0FE0000
0007F07F0000
000FE03F8000
001FC01F8000
003F800FC000
007F000FE000
000000000000
000000000000
000000000000
000000000000
000000000000
000000000000
00007FE00000
0003FFFE0000
001FFFFF8000
003FFFFFE000
00FFFFFFF000
01FFFFFFFC00
03FFF07FFE00
07FF0007FE00
0FFC0001FF00
0FF00000FF80
1FE000007FC0
3FC000003FC0
3FC000001FE0
3F8000000FE0
7F0000000FE0
7F0000000FF0
7F00000007F0
FE00000007F0
FE00000007F0
FE00000003F8
FE00000003F8
FE00000003F8
FE00000003F8
FC00000003F8
FC00000003F8
FC00000003F8
FE00000003F8
FE00000003F8
FE00000003F8
FE00000003F8
FE00000003F8
FE00000007F0
FE00000007F0
7F00000007F0
7F0000000FF0
7F8000000FE0
3F8000001FE0
3FC000001FE0
3FC000003FC0
1FE000007FC0
0FF00000FF80
0FFC0001FF00
07FF0007FE00
03FFF07FFE00
01FFFFFFFC00
00FFFFFFF000
003FFFFFE000
001FFFFF8000
0003FFFE0000
00007FF00000
ENDCHAR
STARTCHAR 00F5
ENCODING 245
SWIDTH 596 0
DWIDTH 53 0
BBX 45 66 4 -1
BITMAP
000FE001F000
001FF801F000
003FFE01F000
007FFF81F000
007FFFE3F000
007C3FFFF000
007C0FFFE000
007803FFE000
007C00FFC000
0000003F0000
000000000000
000000000000
000000000000
000000000000
000000000000
000000000000
00007FE00000
0003FFFE0000
001FFFFF8000
003FFFFFE000
00FFFFFFF000
01FFFFFFFC00
03FFF07FFE00
07FF0007FE00
0FFC0001FF00
0FF00000FF80
1FE000007FC0
3FC000003FC0
3FC000001FE0
3F8000000FE0
7F0000000FE0
7F0000000FF0
7F00000007F0
FE00000007F0
FE00000007F0
FE00000003F8
FE00000003F8
FE00000003F8
FE00000003F8
FC00000003F8
FC00000003F8
FC00000003F8
FE00000003F8
FE00000003F8
FE00000003F8
FE00000003F8
FE00000003F8
FE00000007F0
FE00000007F0
7F00000007F0
7F0000000FF0
7F8000000FE0
3F8000001FE0
3FC000001FE0
3FC000003FC0
1FE000007FC0
0FF00000FF80
0FFC0001FF00
07FF0007FE00
03FFF07FFE00
01FFFFFFFC00
00FFFFFFF000
003FFFFFE000
001FFFFF8000
0003FFFE0000
00007FF00000
ENDCHAR
STARTCHAR 00F6
ENCODING 246
SWIDTH 596 0
DWIDTH 53 0
BBX 45 65 4 -1
BITMAP
003F801FC000
003F801FC000
003F801FC000
003F801FC000
003F801FC000
003F801FC000
003F801FC000
000000000000
000000000000
000000000000
000000000000
000000000000
000000000000
000000000000
000000000000
00007FE00000
0003FFFE0000
001FFFFF8000
003FFFFFE000
00FFFFFFF000
01FFFFFFFC00
03FFF07FFE00
07FF0007FE00
0FFC0001FF00
0FF00000FF80
1FE000007FC0
3FC000003FC0
3FC000001FE0
3F8000000FE0
7F0000000FE0
7F0000000FF0
7F00000007F0
FE00000007F0
FE00000007F0
FE00000003F8
FE00000003F8
FE00000003F8
FE00000003F8
FC00000003F8
FC00000003F8
FC00000003F8
FE00000003F8
FE00000003F8
FE00000003F8
FE00000003F8
FE00000003F8
FE00000007F0
FE00000007F0
7F00000007F0
7F0000000FF0
7F8000000FE0
3F8000001FE0
3FC000001FE0
3FC000003FC0
1FE000007FC0
0FF00000FF80
0FFC0001FF00
07FF0007FE00
03FFF07FFE00
01FFFFFFFC00
00FFFFFFF000
003FFFFFE000
001FFFFF8000
0003FFFE0000
00007FF00000
ENDCHAR
STARTCHAR 00F7
ENCODING 247
SWIDTH 540 0
DWIDTH 48 0
BBX 38 31 5 17
BITMAP
0001FE0000
0001FE0000
0001FE0000
0001FE0000
0001FE0000
0001FE0000
0001FE0000
0000000000
0000000000
0000000000
0000000000
0000000000
0000000000
FFFFFFFFFC
FFFFFFFFFC
FFFFFFFFFC
FFFFFFFFFC
FFFFFFFFFC
FFFFFFFFFC
0000000000
0000000000
0000000000
0000000000
0000000000
0001FE0000
0001FE0000
0001FE0000
0001FE0000
0001FE0000
0001FE0000
0001FE0000
ENDCHAR
STARTCHAR 00F8
ENCODING 248
SWIDTH 596 0
DWIDTH 53 0
BBX 49 50 2 -1
BITMAP
00001FF8000000
0000FFFF800800
0007FFFFE01C00
000FFFFFF83E00
003FFFFFFC7F00
007FFFFFFEFF80
00FFFC1FFFFF00
01FFC001FFFE00
03FF00007FFC00
03FC00003FF800
07F800001FF000
0FF000003FF000
0FF000007FF800
0FE00000FFF800
1FC00001FFF800
1FC00003FDFC00
1FC00007F9FC00
3F80000FF1FC00
3F80001FE1FC00
3F80003FC0FE00
3F80007F80FE00
3F8000FF00FE00
3F8001FE00FE00
3F0003FC00FE00
3F0007F800FE00
3F000FF000FE00
3F801FE000FE00
3F803FC000FE00
3F807F8000FE00
3F80FF0000FE00
3F81FE0000FE00
3F83F80001FC00
3F87F00001FC00
1FCFE00001FC00
1FDFC00003FC00
1FFF800003F800
0FFF000007F800
0FFE000007F800
07FC00000FF000
07F800001FF000
0FFC00003FE000
1FFF00007FC000
3FFFC001FF8000
7FFFF81FFF8000
FFFFFFFFFF0000
7F3FFFFFFC0000
3E0FFFFFF80000
1C07FFFFE00000
0800FFFF800000
00001FFC000000
ENDCHAR
STARTCHAR 00F9
ENCODING 249
SWIDTH 596 0
DWIDTH 53 0
BBX 42 70 5 -1
BITMAP
0003E0000000
0003F0000000
0001F0000000
0001F8000000
0001F8000000
0000F8000000
0000FC000000
0000FC000000
00007E000000
00007E000000
00003E000000
00003F000000
00003F000000
00001F000000
000000000000
000000000000
000000000000
000000000000
000000000000
000000000000
000000000000
FE0000001FC0
FE0000001FC0
FE0000001FC0
FE0000001FC0
FE0000001FC0
FE0000001FC0
FE0000001FC0
FE0000001FC0
FE0000001FC0
FE0000001FC0
FE0000001FC0
FE0000001FC0
FE0000001FC0
FE0000001FC0
FE0000001FC0
FE0000001FC0
FE0000001FC0
FE0000001FC0
FE0000001FC0
FE0000001FC0
FE0000001FC0
FE0000001FC0
FE0000001FC0
FE0000001FC0
FE0000001FC0
FE0000001FC0
FE0000001FC0
FE0000001FC0
FE0000001FC0
FE0000001FC0
7E0000001FC0
7F0000003FC0
7F0000003FC0
7F0000003FC0
7F8000007FC0
3F8000007FC0
3F8000007FC0
3FC00000FFC0
1FE00001FFC0
1FF00003FFC0
0FF80007FFC0
0FFE001FEFC0
07FFC0FFEFC0
03FFFFFFCFC0
01FFFFFF8FC0
00FFFFFF0FC0
003FFFFC0FC0
000FFFF00FC0
0001FF800000
ENDCHAR
STARTCHAR 00FA
ENCODING 250
SWIDTH 596 0
DWIDTH 53 0
BBX 42 70 5 -1
BITMAP
000001F00000
000001F00000
000003F00000
000003E00000
000007E00000
000007E00000
000007C00000
00000FC00000
00000F800000
00001F800000
00001F800000
00001F000000
00003F000000
000000000000
000000000000
000000000000
000000000000
000000000000
000000000000
000000000000
000000000000
FE0000001FC0
FE0000001FC0
FE0000001FC0
FE0000001FC0
FE0000001FC0
FE0000001FC0
FE0000001FC0
FE0000001FC0
FE0000001FC0
FE0000001FC0
FE0000001FC0
FE0000001FC0
FE0000001FC0
FE0000001FC0
FE0000001FC0
FE0000001FC0
FE0000001FC0
FE0000001FC0
FE0000001FC0
FE0000001FC0
FE0000001FC0
FE0000001FC0
FE0000001FC0
FE0000001FC0
FE0000001FC0
FE0000001FC0
FE0000001FC0
FE0000001FC0
FE0000001FC0
FE0000001FC0
7E0000001FC0
7F0000003FC0
7F0000003FC0
7F0000003FC0
7F8000007FC0
3F8000007FC0
3F8000007FC0
3FC00000FFC0
1FE00001FFC0
1FF00003FFC0
0FF80007FFC0
0FFE001FEFC0
07FFC0FFEFC0
03FFFFFFCFC0
01FFFFFF8FC0
00FFFFFF0FC0
003FFFFC0FC0
000FFFF00FC0
0001FF800000
ENDCHAR
STARTCHAR 00FB
ENCODING 251
SWIDTH 596 0
DWIDTH 53 0
BBX 42 69 5 -1
BITMAP
00007F000000
00007F800000
0000FFC00000
0001FFE00000
0003FFF00000
0007F3F80000
000FE3F80000
000FE1FC0000
001FC0FE0000
003F807F0000
007F003F8000
00FE001FC000
000000000000
000000000000
000000000000
000000000000
000000000000
000000000000
000000000000
000000000000
FE0000001FC0
FE0000001FC0
FE0000001FC0
FE0000001FC0
FE0000001FC0
FE0000001FC0
FE0000001FC0
FE0000001FC0
FE0000001FC0
FE0000001FC0
FE0000001FC0
FE0000001FC0
FE0000001FC0
FE0000001FC0
FE0000001FC0
FE0000001FC0
FE0000001FC0
FE0000001FC0
FE0000001FC0
FE0000001FC0
FE0000001FC0
FE0000001FC0
FE0000001FC0
FE0000001FC0
FE0000001FC0
FE0000001FC0
FE0000001FC0
FE0000001FC0
FE0000001FC0
FE0000001FC0
7E0000001FC0
7F0000003FC0
7F0000003FC0
7F0000003FC0
7F8000007FC0
3F8000007FC0
3F8000007FC0
3FC00000FFC0
1FE00001FFC0
1FF00003FFC0
0FF80007FFC0
0FFE001FEFC0
07FFC0FFEFC0
03FFFFFFCFC0
01FFFFFF8FC0
00FFFFFF0FC0
003FFFFC0FC0
000FFFF00FC0
0001FF800000
ENDCHAR
STARTCHAR 00FC
ENCODING 252
SWIDTH 596 0
DWIDTH 53 0
BBX 42 65 5 -1
BITMAP
007F003F8000
007F003F8000
007F003F8000
007F003F8000
007F003F8000
007F003F8000
007F003F8000
000000000000
000000000000
000000000000
000000000000
000000000000
000000000000
000000000000
000000000000
000000000000
FE0000001FC0
FE0000001FC0
FE0000001FC0
FE0000001FC0
FE0000001FC0
FE0000001FC0
FE0000001FC0
FE0000001FC0
FE0000001FC0
FE0000001FC0
FE0000001FC0
FE0000001FC0
FE0000001FC0
FE0000001FC0
FE0000001FC0
FE0000001FC0
FE0000001FC0
FE0000001FC0
FE0000001FC0
FE0000001FC0
FE0000001FC0
FE0000001FC0
FE0000001FC0
FE0000001FC0
FE0000001FC0
FE0000001FC0
FE0000001FC0
FE0000001FC0
FE0000001FC0
FE0000001FC0
7E0000001FC0
7F0000003FC0
7F0000003FC0
7F0000003FC0
7F8000007FC0
3F8000007FC0
3F8000007FC0
3FC00000FFC0
1FE00001FFC0
1FF00003FFC0
0FF80007FFC0
0FFE001FEFC0
07FFC0FFEFC0
03FFFFFFCFC0
01FFFFFF8FC0
00FFFFFF0FC0
003FFFFC0FC0
000FFFF00FC0
0001FF800000
ENDCHAR
STARTCHAR 00FD
ENCODING 253
SWIDTH 528 0
DWIDTH 47 0
BBX 43 90 2 -21
BITMAP
000000F80000
000001F80000
000001F00000
000003F00000
000003F00000
000003E00000
000007E00000
000007E00000
000007C00000
00000FC00000
00000F800000
00001F800000
00001F800000
000000000000
000000000000
000000000000
000000000000
000000000000
000000000000
000000000000
000000000000
FE00000007E0
FE0000000FE0
FE0000000FC0
7F0000001FC0
7F0000001FC0
3F8000001F80
3F8000003F80
3F8000003F80
1FC000003F00
1FC000007F00
0FE000007E00
0FE00000FE00
07E00000FE00
07F00000FC00
07F00001FC00
03F80001FC00
03F80001F800
01F80003F800
01FC0003F800
01FC0003F000
00FE0007F000
00FE0007E000
007E000FE000
007F000FE000
007F000FC000
003F801FC000
003F801FC000
001F801F8000
001FC03F8000
001FC03F0000
000FE07F0000
000FE07F0000
0007E07E0000
0007F0FE0000
0003F0FE0000
0003F8FC0000
0003F9FC0000
0001F9F80000
0001FDF80000
0000FFF80000
0000FFF00000
0000FFF00000
00007FF00000
00007FE00000
00003FE00000
00003FC00000
00003FC00000
00001FC00000
00001F800000
00003F800000
00003F800000
00003F000000
00007F000000
00007E000000
00007E000000
0000FE000000
0000FC000000
0001FC000000
0001FC000000
0001F8000000
0003F8000000
0003F8000000
0003F0000000
0007F0000000
0007E0000000
000FE0000000
000FE0000000
000FC0000000
001FC0000000
ENDCHAR
STARTCHAR 00FE
ENCODING 254
SWIDTH 596 0
DWIDTH 53 0
BBX 43 85 6 -21
BITMAP
FE0000000000
FE0000000000
FE0000000000
FE0000000000
FE0000000000
FE0000000000
FE0000000000
FE0000000000
FE0000000000
FE0000000000
FE0000000000
FE0000000000
FE0000000000
FE0000000000
FE0000000000
FE007FE00000
FE03FFFC0000
FE0FFFFF0000
FE3FFFFFC000
FE7FFFFFE000
FEFFFFFFF000
FFFF807FF800
FFFC000FFC00
FFF80007FC00
FFE00001FE00
FFC00000FF00
FFC00000FF00
FF8000007F80
FF0000003F80
FF0000003F80
FF0000001FC0
FE0000001FC0
FE0000001FC0
FE0000001FC0
FC0000000FE0
FC0000000FE0
FC0000000FE0
FC0000000FE0
FC0000000FE0
FC0000000FE0
FC0000000FE0
FC0000000FE0
FC0000000FE0
FC0000000FE0
FC0000000FE0
FC0000000FE0
FE0000001FC0
FE0000001FC0
FE0000001FC0
FF0000003FC0
FF0000003F80
FF0000003F80
FF8000007F80
FFC00000FF00
FFC00001FF00
FFE00003FE00
FFF80007FC00
FFFC000FFC00
FFFF807FF800
FEFFFFFFF000
FE7FFFFFE000
FE3FFFFFC000
FE0FFFFF0000
FE03FFFC0000
FE007FE00000
FE0000000000
FE0000000000
FE0000000000
FE0000000000
FE0000000000
FE0000000000
FE0000000000
FE0000000000
FE0000000000
FE0000000000
FE0000000000
FE0000000000
FE0000000000
FE0000000000
FE0000000000
FE0000000000
FE0000000000
FE0000000000
FE0000000000
FE0000000000
ENDCHAR
STARTCHAR 00FF
ENCODING 255
SWIDTH 528 0
DWIDTH 47 0
BBX 43 85 2 -21
BITMAP
003F801FC000
003F801FC000
003F801FC000
003F801FC000
003F801FC000
003F801FC000
003F801FC000
000000000000
000000000000
000000000000
000000000000
000000000000
000000000000
000000000000
000000000000
000000000000
FE00000007E0
FE0000000FE0
FE0000000FC0
7F0000001FC0
7F0000001FC0
3F8000001F80
3F8000003F80
3F8000003F80
1FC000003F00
1FC000007F00
0FE000007E00
0FE00000FE00
07E00000FE00
07F00000FC00
07F00001FC00
03F80001FC00
03F80001F800
01F80003F800
01FC0003F800
01FC0003F000
00FE0007F000
00FE0007E000
007E000FE000
007F000FE000
007F000FC000
003F801FC000
003F801FC000
001F801F8000
001FC03F8000
001FC03F0000
000FE07F0000
000FE07F0000
0007E07E0000
0007F0FE0000
0003F0FE0000
0003F8FC0000
0003F9FC0000
0001F9F80000
0001FDF80000
0000FFF80000
0000FFF00000
0000FFF00000
00007FF00000
00007FE00000
00003FE00000
00003FC00000
00003FC00000
00001FC00000
00001F800000
00003F800000
00003F800000
00003F000000
00007F000000
00007E000000
00007E000000
0000FE000000
0000FC000000
0001FC000000
0001FC000000
0001F8000000
0003F8000000
0003F8000000
0003F0000000
0007F0000000
0007E0000000
000FE0000000
000FE0000000
000FC0000000
001FC0000000
ENDCHAR
ENDFONT
